<svg fill="#333333" xmlns:dc="http://purl.org/dc/elements/1.1/" xmlns:cc="http://creativecommons.org/ns#" xmlns:rdf="http://www.w3.org/1999/02/22-rdf-syntax-ns#" xmlns:svg="http://www.w3.org/2000/svg" xmlns="http://www.w3.org/2000/svg" xmlns:sodipodi="http://sodipodi.sourceforge.net/DTD/sodipodi-0.dtd" xmlns:inkscape="http://www.inkscape.org/namespaces/inkscape" version="1.1" x="0px" y="0px" viewBox="0 0 32 32"><g transform="translate(0,-1020.3622)"><path style="text-indent:0;text-transform:none;direction:ltr;block-progression:tb;baseline-shift:baseline;color:#000000;enable-background:accumulate;" d="M 1.90625 9.25 C 0.82112367 9.25 0 10.22045 0 11.34375 L 0 17.125 C 0 18.2482 0.82108092 19.25 1.90625 19.25 L 2 19.25 L 2 21.25 C 2 21.7953 2.4546494 22.25 3 22.25 C 3.0102175 22.25031 3.0209864 22.25 3.03125 22.25 L 24 22.25 C 24.261724 22.242066 24.505101 22.142216 24.6875 21.96875 C 24.786621 21.874322 24.851796 21.783281 24.90625 21.65625 C 24.960247 21.536339 25 21.389525 25 21.25 L 25 19.25 L 25.375 19.25 L 26 19.25 L 29 19.25 L 30.09375 19.25 C 31.178919 19.25 32 18.2482 32 17.125 L 32 11.34375 C 32 10.22045 31.178876 9.25 30.09375 9.25 L 28 9.25 L 4 9.25 L 1.90625 9.25 z M 1.90625 10.25 L 2.28125 10.25 C 2.1014195 10.549765 2 10.877148 2 11.25 L 2 13.25 C 2 14.3493 2.9006641 15.25 4 15.25 L 28 15.25 C 29.099336 15.25 30 14.3493 30 13.25 L 30 11.25 C 30 10.877148 29.898581 10.549765 29.71875 10.25 L 30.09375 10.25 C 30.568056 10.25 31 10.69195 31 11.34375 L 31 17.125 C 31 17.7766 30.568013 18.25 30.09375 18.25 L 29 18.25 L 29 16.75 L 29 16.25 L 28.5 16.25 L 26.5 16.25 L 26 16.25 L 26 16.75 L 26 18.25 L 25.375 18.25 L 25 18.25 L 25 17.25 C 25 16.7047 24.545351 16.25 24 16.25 L 3 16.25 C 2.4546494 16.25 2 16.7047 2 17.25 L 2 18.25 L 1.90625 18.25 C 1.4319871 18.25 1 17.7766 1 17.125 L 1 11.34375 C 1 10.69195 1.4319443 10.25 1.90625 10.25 z M 4 10.25 L 28 10.25 C 28.562618 10.25 29 10.6873 29 11.25 L 29 13.25 C 29 13.8127 28.562618 14.25 28 14.25 L 4 14.25 C 3.4373815 14.25 3 13.8127 3 13.25 L 3 11.25 C 3 10.6873 3.4373815 10.25 4 10.25 z M 4 12.25 L 4 13.25 L 28 13.25 L 28 12.25 L 4 12.25 z M 3 17.25 L 24 17.25 L 24 18.25 C 23.990068 18.249707 23.978725 18.25 23.96875 18.25 L 3.03125 18.25 C 3.0212747 18.25 3.0099318 18.249707 3 18.25 L 3 17.25 z M 27 17.25 L 28 17.25 L 28 18.25 L 27 18.25 L 27 17.25 z M 3 19.25 L 3.03125 19.25 L 23.96875 19.25 L 24 19.25 L 24 21.25 L 23 21.25 L 23 20.25 L 22 20.25 L 22 21.25 L 21 21.25 L 21 20.25 L 20 20.25 L 20 21.25 L 19 21.25 L 19 20.25 L 18 20.25 L 18 21.25 L 17 21.25 L 17 20.25 L 16 20.25 L 16 21.25 L 15 21.25 L 15 20.25 L 14 20.25 L 14 21.25 L 13 21.25 L 13 20.25 L 12 20.25 L 12 21.25 L 11 21.25 L 11 20.25 L 10 20.25 L 10 21.25 L 9 21.25 L 9 20.25 L 8 20.25 L 8 21.25 L 7 21.25 L 7 20.25 L 6 20.25 L 6 21.25 L 5 21.25 L 5 20.25 L 4 20.25 L 4 21.25 L 3 21.25 L 3 19.25 z " transform="translate(0,1020.3622)" fill="#333333" fill-opacity="1" stroke="none" marker="none" visibility="visible" display="inline" overflow="visible"></path></g></svg>