<svg fill="#333333" xmlns="http://www.w3.org/2000/svg" viewBox="0 0 84.6 61.86" x="0px" y="0px"><title>itunes-icons</title><path d="M81.6,0H3A3,3,0,0,0,0,3V47.48a3,3,0,0,0,3,3H13.87a2.5,2.5,0,0,0,0-5H5V5H79.6V45.48H70.73a2.5,2.5,0,0,0,0,5H81.6a3,3,0,0,0,3-3V3A3,3,0,0,0,81.6,0Z"></path><path d="M67.35,60.31a2.46,2.46,0,0,0,.08-.25c0-.07,0-.14.07-.22a2.54,2.54,0,0,0,0-1c0-.08,0-.15-.07-.22a2.45,2.45,0,0,0-.08-.25,2.37,2.37,0,0,0-.13-.25c0-.06-.06-.12-.1-.18a2.48,2.48,0,0,0-.32-.38L44.06,34.85a2.5,2.5,0,0,0-3.54,0L17.79,57.59c-.05.05-.09.12-.14.17a2.55,2.55,0,0,0-.17.2,2.48,2.48,0,0,0-.15.28c0,.05-.06.1-.08.15a2.42,2.42,0,0,0-.11.35s0,.08,0,.12a2.51,2.51,0,0,0,0,1c0,.06,0,.11,0,.16a2.5,2.5,0,0,0,.09.3c0,.08.08.14.11.22s.07.15.12.21a2.52,2.52,0,0,0,.69.69l.15.08a2.47,2.47,0,0,0,.28.15l.2.06.27.08.3,0,.18,0H65a2.5,2.5,0,0,0,.49,0l.22-.06.25-.08a2.47,2.47,0,0,0,.25-.13l.18-.1a2.51,2.51,0,0,0,.69-.69c0-.06.06-.12.1-.18A2.41,2.41,0,0,0,67.35,60.31ZM42.3,40.15,59,56.86H25.59Z"></path></svg>