<svg fill="#333333" xmlns="http://www.w3.org/2000/svg" xmlns:xlink="http://www.w3.org/1999/xlink" version="1.0" x="0px" y="0px" viewBox="0 0 24 24" enable-background="new 0 0 24 24" xml:space="preserve"><g><path fill="#333333" d="M23.152,21.989H0.848c-0.36,0-0.651-0.292-0.651-0.651V18.59c0-0.36,0.292-0.651,0.651-0.651h22.304   c0.36,0,0.651,0.292,0.651,0.651v2.748C23.803,21.698,23.512,21.989,23.152,21.989z M1.5,20.687H22.5v-1.446H1.5V20.687z"></path><path fill="#333333" d="M16.112,19.009c-0.36,0-0.651-0.292-0.651-0.651c0-1.841-1.488-3.229-3.461-3.229   c-1.973,0-3.46,1.388-3.46,3.229c0,0.36-0.292,0.651-0.651,0.651c-0.36,0-0.651-0.292-0.651-0.651c0-2.583,2.048-4.532,4.763-4.532   s4.764,1.948,4.764,4.532C16.763,18.718,16.472,19.009,16.112,19.009z"></path><g><path fill="#333333" d="M10.875,15.129c-0.239,0-0.47-0.132-0.584-0.361l-3.538-7.11c-0.16-0.322-0.029-0.713,0.293-0.874    C7.367,6.624,7.76,6.755,7.92,7.078l3.538,7.11c0.16,0.322,0.029,0.713-0.293,0.874C11.072,15.108,10.973,15.129,10.875,15.129z"></path><path fill="#333333" d="M6.127,7.852c-1.116,0-2.119-0.621-2.617-1.62c-0.347-0.698-0.402-1.49-0.154-2.23    s0.769-1.338,1.468-1.685C5.232,2.114,5.67,2.011,6.123,2.011c1.116,0,2.119,0.621,2.616,1.62    c0.717,1.441,0.128,3.198-1.314,3.916C7.017,7.749,6.58,7.852,6.127,7.852z M6.123,3.314c-0.25,0-0.492,0.057-0.718,0.17    C5.017,3.676,4.728,4.007,4.591,4.417c-0.138,0.41-0.107,0.848,0.085,1.235C5.064,6.429,6.061,6.77,6.845,6.379    c0.798-0.397,1.125-1.37,0.727-2.168C7.297,3.657,6.741,3.314,6.123,3.314z"></path></g></g></svg>