<svg fill="#333333" xmlns="http://www.w3.org/2000/svg" xmlns:xlink="http://www.w3.org/1999/xlink" version="1.1" x="0px" y="0px" viewBox="0 0 66 66" enable-background="new 0 0 66 66" xml:space="preserve"><g><g><path d="M49.1,30.9L33.7,15.3c-0.4-0.4-1-0.4-1.4,0L26.3,21v-2.1c0-0.6-0.4-1-1-1h-4.8c-0.3,0-0.5,0.1-0.7,0.3    c-0.2,0.2-0.3,0.4-0.3,0.7l0,8.5L16.8,31c-0.2,0.3-0.3,0.7-0.1,1c0.2,0.3,0.5,0.6,0.9,0.6h2.7v15.3c0,0.6,0.4,1,1,1    c8.4,0,15,0,23.4,0c0.6,0,1-0.4,1-1V32.6h2.7c0.4,0,0.8-0.2,0.9-0.6C49.5,31.6,49.4,31.2,49.1,30.9z M29.8,46.9v-8.5h5.6v8.5H29.8    z M44.7,30.6c-0.6,0-1,0.4-1,1v15.3h-6.3v-9.5c0-0.6-0.4-1-1-1h-7.6c-0.6,0-1,0.4-1,1v9.5h-5.5V31.6c0-0.6-0.4-1-1-1h-1.7l1.7-2.3    c0.1-0.2,0.2-0.4,0.2-0.6l0-7.9h2.8v3.4c0,0.4,0.2,0.8,0.6,0.9c0.4,0.2,0.8,0.1,1.1-0.2l7-6.6l13,13.2H44.7z"></path></g><g><path d="M29.5,24c0,1.9,1.5,3.5,3.5,3.5c1.9,0,3.5-1.5,3.5-3.5c0-1.9-1.5-3.5-3.5-3.5C31.1,20.6,29.5,22.1,29.5,24z M33,22.6    c0.8,0,1.5,0.7,1.5,1.5c0,0.8-0.7,1.5-1.5,1.5c-0.8,0-1.5-0.7-1.5-1.5C31.5,23.2,32.2,22.6,33,22.6z"></path></g><g><path d="M61.6,47.3c-1.5,0-2.8,1-3.2,2.4h-1.9l-3.1-4c2.2-3.4,3.5-7.5,3.6-11.8h1.5c0.4,1.4,1.7,2.4,3.2,2.4    c1.9,0,3.4-1.5,3.4-3.4c0-1.9-1.5-3.4-3.4-3.4c-1.5,0-2.8,1-3.2,2.4h-1.5c-0.2-4.3-1.5-8.3-3.7-11.7l3.2-4.1h1.9    c0.4,1.4,1.7,2.4,3.2,2.4c1.9,0,3.4-1.5,3.4-3.4c0-1.9-1.5-3.4-3.4-3.4c-1.5,0-2.8,1-3.2,2.4h-2.4c-0.3,0-0.6,0.1-0.8,0.4l-3.1,4    c-2.8-3.7-6.6-6.5-11-8.1V6.8h13.1c0.4,1.4,1.7,2.4,3.2,2.4c1.9,0,3.4-1.5,3.4-3.4c0-1.9-1.5-3.4-3.4-3.4c-1.5,0-2.8,1-3.2,2.4H40    c-0.6,0-1,0.4-1,1v4.1c-1.9-0.5-3.9-0.8-6-0.8c-2.1,0-4.1,0.3-6,0.8V5.8c0-0.6-0.4-1-1-1H11.9c-0.4-1.4-1.7-2.4-3.2-2.4    c-1.9,0-3.4,1.5-3.4,3.4c0,1.9,1.5,3.4,3.4,3.4c1.5,0,2.8-1,3.2-2.4H25v3.7c-4.4,1.6-8.2,4.4-11,8.1l-3.1-4    c-0.2-0.2-0.5-0.4-0.8-0.4H7.6c-0.4-1.4-1.7-2.4-3.2-2.4c-1.9,0-3.4,1.5-3.4,3.4c0,1.9,1.5,3.4,3.4,3.4c1.5,0,2.8-1,3.2-2.4h1.9    l3.2,4.1c-2.2,3.4-3.5,7.4-3.7,11.7H7.6c-0.4-1.4-1.7-2.4-3.2-2.4C2.5,29.5,1,31,1,32.9c0,1.9,1.5,3.4,3.4,3.4    c1.5,0,2.8-1,3.2-2.4h1.5c0.2,4.3,1.5,8.4,3.6,11.8l-3.1,4H7.6c-0.4-1.4-1.7-2.4-3.2-2.4c-1.9,0-3.4,1.5-3.4,3.4v0    c0,0.9,0.4,1.8,1,2.4c0.6,0.6,1.5,1,2.4,1c1.5,0,2.8-1,3.2-2.4h2.4c0.3,0,0.6-0.1,0.8-0.4l3.1-3.9c2.8,3.7,6.6,6.6,11.1,8.1v3.7    l-13.1,0c-0.4-1.4-1.7-2.4-3.2-2.4c-1.9,0-3.4,1.5-3.4,3.4c0,1.9,1.5,3.4,3.4,3.4c1.5,0,2.8-1,3.2-2.4l14.1,0    c0.3,0,0.5-0.1,0.7-0.3s0.3-0.4,0.3-0.7v-4.1c1.9,0.5,3.9,0.8,6,0.8c2.1,0,4.1-0.3,6-0.8v4.1c0,0.3,0.1,0.5,0.3,0.7    s0.4,0.3,0.7,0.3l14.1,0c0.4,1.4,1.7,2.4,3.2,2.4c1.9,0,3.4-1.5,3.4-3.4c0-1.9-1.5-3.4-3.4-3.4c-1.5,0-2.8,1-3.2,2.4l-13.1,0v-3.7    c4.4-1.6,8.3-4.4,11.1-8.1l3.1,3.9c0.2,0.2,0.5,0.4,0.8,0.4h2.4c0.4,1.4,1.7,2.4,3.2,2.4c1.9,0,3.4-1.5,3.4-3.4v0    C65,48.9,63.5,47.3,61.6,47.3z M61.6,13.7c0.8,0,1.4,0.6,1.4,1.4s-0.6,1.4-1.4,1.4c-0.8,0-1.4-0.6-1.4-1.4S60.8,13.7,61.6,13.7z     M57.4,4.4c0.8,0,1.4,0.6,1.4,1.4c0,0.8-0.6,1.4-1.4,1.4c-0.8,0-1.4-0.6-1.4-1.4C56,5,56.6,4.4,57.4,4.4z M8.6,7.2    c-0.8,0-1.4-0.6-1.4-1.4c0-0.8,0.6-1.4,1.4-1.4C9.4,4.4,10,5,10,5.8C10,6.5,9.4,7.2,8.6,7.2z M4.4,16.5c-0.8,0-1.4-0.6-1.4-1.4    s0.6-1.4,1.4-1.4c0.8,0,1.4,0.6,1.4,1.4S5.2,16.5,4.4,16.5z M4.4,52.1c-0.4,0-0.7-0.1-1-0.4c-0.3-0.3-0.4-0.6-0.4-1v0    c0-0.8,0.6-1.4,1.4-1.4c0.8,0,1.4,0.6,1.4,1.4C5.8,51.5,5.2,52.1,4.4,52.1z M8.6,61.6c-0.8,0-1.4-0.6-1.4-1.4    c0-0.8,0.6-1.4,1.4-1.4c0.8,0,1.4,0.6,1.4,1.4C10,61,9.4,61.6,8.6,61.6z M57.4,58.8c0.8,0,1.4,0.6,1.4,1.4c0,0.8-0.6,1.4-1.4,1.4    c-0.8,0-1.4-0.6-1.4-1.4C56,59.5,56.6,58.8,57.4,58.8z M61.6,31.5c0.8,0,1.4,0.6,1.4,1.4c0,0.8-0.6,1.4-1.4,1.4    c-0.8,0-1.4-0.6-1.4-1.4C60.2,32.1,60.8,31.5,61.6,31.5z M4.4,34.3c-0.8,0-1.4-0.6-1.4-1.4c0-0.8,0.6-1.4,1.4-1.4    c0.8,0,1.4,0.6,1.4,1.4C5.8,33.7,5.2,34.3,4.4,34.3z M33,54.9c-12.1,0-21.9-9.8-21.9-21.9S20.9,11.1,33,11.1    c12.1,0,21.9,9.8,21.9,21.9S45.1,54.9,33,54.9z M61.6,52.1c-0.8,0-1.4-0.6-1.4-1.4c0-0.8,0.6-1.4,1.4-1.4c0.8,0,1.4,0.6,1.4,1.4    C63,51.5,62.4,52.1,61.6,52.1z"></path></g></g></svg>