<svg fill="#333333" xmlns="http://www.w3.org/2000/svg" xmlns:xlink="http://www.w3.org/1999/xlink" version="1.1" x="0px" y="0px" viewBox="0 0 72 72" enable-background="new 0 0 72 72" xml:space="preserve"><g><path fill="#333333" d="M3.3,57.8l-2.1,3.6c-0.3,0.5,0.1,1.1,0.6,1.1h68.4c0.6,0,0.9-0.6,0.6-1.1l-2.1-3.6   c-0.1-0.2-0.4-0.4-0.6-0.4H3.9C3.7,57.5,3.4,57.6,3.3,57.8z"></path><path fill="#333333" d="M3.3,66.8l-2.1,3.6c-0.3,0.5,0.1,1.1,0.6,1.1h68.4c0.6,0,0.9-0.6,0.6-1.1l-2.1-3.6   c-0.1-0.2-0.4-0.4-0.6-0.4H3.9C3.7,66.4,3.4,66.5,3.3,66.8z"></path><path fill="#333333" d="M60.9,49.2c-0.2,1.2-0.6,2.3-1.3,3.3c-0.3,0.5,0,1.1,0.6,1.1h9.9c0.6,0,0.9-0.6,0.6-1.1l-2.1-3.6   c-0.1-0.2-0.4-0.4-0.6-0.4h-6.4C61.3,48.5,61,48.8,60.9,49.2z"></path><path fill="#333333" d="M45.3,48.5H3.9c-0.3,0-0.5,0.1-0.6,0.4l-2.1,3.6c-0.3,0.5,0.1,1.1,0.6,1.1h44.9c0.6,0,0.9-0.7,0.6-1.1   c-0.7-1-1.1-2.1-1.3-3.3C46,48.8,45.7,48.5,45.3,48.5z"></path><path fill="#333333" d="M48,42.8v-2.5c0-0.4-0.3-0.7-0.7-0.7H3.9c-0.3,0-0.5,0.1-0.6,0.4l-2.1,3.6c-0.3,0.5,0.1,1.1,0.6,1.1h44.6   c0.3,0,0.5-0.1,0.6-0.4c0.2-0.4,0.5-0.7,0.8-1C47.9,43.1,48,43,48,42.8z"></path><path fill="#333333" d="M1.8,17.8h45.5c0.4,0,0.7-0.3,0.7-0.7v-3.6c0-0.4-0.3-0.7-0.7-0.7H3.9c-0.3,0-0.5,0.1-0.6,0.4l-2.1,3.6   C0.9,17.2,1.2,17.8,1.8,17.8z"></path><path fill="#333333" d="M47.2,21.7H3.9c-0.3,0-0.5,0.1-0.6,0.4l-2.1,3.6c-0.3,0.5,0.1,1.1,0.6,1.1h45.5c0.4,0,0.7-0.3,0.7-0.7v-3.6   C48,22,47.7,21.7,47.2,21.7z"></path><path fill="#333333" d="M47.2,30.6H3.9c-0.3,0-0.5,0.1-0.6,0.4l-2.1,3.6c-0.3,0.5,0.1,1.1,0.6,1.1h45.5c0.4,0,0.7-0.3,0.7-0.7v-3.6   C48,30.9,47.7,30.6,47.2,30.6z"></path><path fill="#333333" d="M59,13.4v3.6c0,0.4,0.3,0.7,0.7,0.7h10.5c0.6,0,0.9-0.6,0.6-1.1l-2.1-3.6c-0.1-0.2-0.4-0.4-0.6-0.4h-8.4   C59.3,12.7,59,13,59,13.4z"></path><path fill="#333333" d="M70.8,0.5H1.2c-0.4,0-0.7,0.3-0.7,0.7v5.7c0,0.4,0.3,0.7,0.7,0.7H52v1.9V45c-1.2,0.6-2,1.8-2,3.2   c0,2,1.6,3.5,3.5,3.5c2,0,3.5-1.6,3.5-3.5c0-1.4-0.8-2.6-2-3.2V9.6V7.6h15.8c0.4,0,0.7-0.3,0.7-0.7V1.2C71.5,0.8,71.2,0.5,70.8,0.5   z"></path><path fill="#333333" d="M59,22.4V26c0,0.4,0.3,0.7,0.7,0.7h10.5c0.6,0,0.9-0.6,0.6-1.1L68.7,22c-0.1-0.2-0.4-0.4-0.6-0.4h-8.4   C59.3,21.7,59,22,59,22.4z"></path><path fill="#333333" d="M59,31.3V35c0,0.4,0.3,0.7,0.7,0.7h10.5c0.6,0,0.9-0.6,0.6-1.1L68.7,31c-0.1-0.2-0.4-0.4-0.6-0.4h-8.4   C59.3,30.6,59,30.9,59,31.3z"></path><path fill="#333333" d="M59,40.3v2.5c0,0.2,0.1,0.3,0.2,0.5c0.3,0.3,0.5,0.7,0.8,1c0.1,0.2,0.4,0.4,0.6,0.4h9.7   c0.6,0,0.9-0.6,0.6-1.1l-2.1-3.6c-0.1-0.2-0.4-0.4-0.6-0.4h-8.4C59.3,39.6,59,39.9,59,40.3z"></path></g></svg>