<svg fill="#333333" xmlns="http://www.w3.org/2000/svg" xmlns:xlink="http://www.w3.org/1999/xlink" viewBox="0 0 100 100" version="1.1" xml:space="preserve" style="" x="0px" y="0px" fill-rule="evenodd" clip-rule="evenodd" stroke-linejoin="round" stroke-miterlimit="1.41421"><g transform="matrix(1,0,0,1,2.00854,-0.805193)"><path d="M32.648,68.918L10.391,68.918C10.345,68.916 10.298,68.916 10.252,68.912C10.16,68.903 10.069,68.886 9.98,68.861C9.532,68.733 9.161,68.395 8.992,67.96C8.942,67.831 8.91,67.694 8.897,67.556C8.893,67.51 8.893,67.464 8.891,67.418L8.891,34.192C8.893,34.146 8.893,34.1 8.897,34.054C8.91,33.916 8.942,33.78 8.992,33.65C9.161,33.216 9.532,32.877 9.98,32.75C10.069,32.724 10.16,32.707 10.252,32.699C10.298,32.694 10.345,32.694 10.391,32.692L32.648,32.692C32.694,32.694 32.74,32.697 32.786,32.699C32.832,32.705 32.878,32.709 32.923,32.718C33.014,32.735 33.103,32.76 33.189,32.794C33.58,32.945 33.895,33.26 34.046,33.65C34.096,33.78 34.128,33.916 34.141,34.054C34.145,34.1 34.145,34.146 34.148,34.192L34.148,36.222L61.835,36.222L61.835,34.192C61.837,34.146 61.837,34.1 61.842,34.054C61.85,33.962 61.867,33.871 61.893,33.782C62.02,33.333 62.358,32.962 62.793,32.794C62.923,32.744 63.059,32.712 63.197,32.699C63.243,32.694 63.289,32.694 63.335,32.692L85.592,32.692C85.638,32.694 85.684,32.697 85.73,32.699C85.776,32.705 85.822,32.709 85.868,32.718C86.004,32.743 86.137,32.788 86.261,32.85C86.635,33.036 86.92,33.379 87.035,33.782C87.06,33.871 87.077,33.962 87.086,34.054C87.09,34.1 87.09,34.146 87.092,34.192L87.092,67.418C87.09,67.464 87.09,67.51 87.086,67.556C87.073,67.694 87.041,67.831 86.991,67.96C86.822,68.395 86.451,68.733 86.003,68.861C85.914,68.886 85.822,68.903 85.73,68.912C85.684,68.916 85.638,68.916 85.592,68.918L63.335,68.918C63.289,68.916 63.243,68.916 63.197,68.912C63.12,68.905 63.045,68.892 62.97,68.873L33.013,68.873C32.938,68.892 32.863,68.905 32.786,68.912C32.74,68.916 32.694,68.916 32.648,68.918ZM64.835,35.692L64.835,65.918L84.092,65.918L84.092,35.692C77.673,35.692 71.254,35.692 64.835,35.692ZM31.148,37.208L31.148,35.692C24.729,35.692 18.31,35.692 11.891,35.692L11.891,65.918L31.057,65.918L31.057,41.663C31.059,41.62 31.059,41.576 31.062,41.533C31.074,41.402 31.102,41.273 31.147,41.15L31.148,41.149L31.148,38.236C31.027,37.905 31.028,37.538 31.148,37.208ZM37.654,57.089L34.148,57.089L34.148,65.873L61.835,65.873L61.835,57.089L58.238,57.089L58.238,62.745C58.232,62.918 58.209,63.084 58.151,63.247C58.001,63.669 57.662,64.008 57.24,64.158C57.077,64.216 56.91,64.239 56.738,64.245L39.154,64.245C38.982,64.239 38.815,64.216 38.652,64.158C38.23,64.008 37.891,63.669 37.741,63.247C37.683,63.084 37.66,62.918 37.654,62.745L37.654,57.089ZM21.625,47.501C22.01,47.508 22.393,47.537 22.774,47.595C23.545,47.713 24.3,47.942 25.007,48.272C26.692,49.059 28.085,50.42 28.913,52.085C29.259,52.782 29.506,53.528 29.643,54.294C29.797,55.154 29.813,56.039 29.692,56.905C29.574,57.745 29.326,58.566 28.957,59.331C28.525,60.226 27.931,61.04 27.212,61.726C26.468,62.436 25.591,63.005 24.638,63.395C23.651,63.799 22.586,64.006 21.519,64.006C20.452,64.006 19.388,63.799 18.4,63.395C17.448,63.005 16.571,62.436 15.826,61.726C15.107,61.04 14.513,60.226 14.082,59.331C13.713,58.566 13.464,57.745 13.346,56.905C13.225,56.039 13.242,55.154 13.395,54.294C13.532,53.528 13.779,52.782 14.126,52.085C14.954,50.42 16.347,49.059 18.032,48.272C18.739,47.942 19.493,47.713 20.265,47.595C20.645,47.537 21.028,47.508 21.413,47.501C21.519,47.5 21.519,47.5 21.625,47.501ZM74.57,47.501C74.955,47.508 75.338,47.537 75.718,47.595C76.49,47.713 77.244,47.942 77.951,48.272C79.636,49.059 81.029,50.42 81.857,52.085C82.204,52.782 82.451,53.528 82.588,54.294C82.741,55.154 82.758,56.039 82.636,56.905C82.519,57.745 82.27,58.566 81.901,59.331C81.47,60.226 80.876,61.04 80.157,61.726C79.412,62.436 78.535,63.005 77.583,63.395C76.595,63.799 75.531,64.006 74.464,64.006C73.397,64.006 72.332,63.799 71.344,63.395C70.392,63.005 69.515,62.436 68.77,61.726C68.052,61.04 67.457,60.226 67.026,59.331C66.657,58.566 66.409,57.745 66.291,56.905C66.17,56.039 66.186,55.154 66.34,54.294C66.477,53.528 66.723,52.782 67.07,52.085C67.898,50.42 69.291,49.059 70.976,48.272C71.683,47.942 72.437,47.713 73.209,47.595C73.59,47.537 73.973,47.508 74.357,47.501C74.464,47.5 74.464,47.5 74.57,47.501ZM46.441,57.089L40.654,57.089L40.654,61.245L46.426,61.245C46.418,59.86 46.432,58.475 46.441,57.089ZM55.238,57.089L49.466,57.089C49.474,58.474 49.46,59.86 49.451,61.245L55.238,61.245L55.238,57.089ZM21.451,50.5C20.708,50.515 19.976,50.675 19.302,50.99C18.286,51.465 17.435,52.267 16.9,53.251C16.655,53.703 16.476,54.19 16.373,54.694C16.253,55.283 16.234,55.893 16.318,56.489C16.392,57.022 16.55,57.543 16.784,58.028C17.059,58.598 17.438,59.117 17.896,59.554C18.371,60.007 18.929,60.37 19.536,60.618C20.164,60.875 20.841,61.006 21.519,61.006C22.198,61.006 22.875,60.875 23.503,60.618C24.11,60.37 24.668,60.007 25.142,59.554C25.601,59.117 25.98,58.598 26.255,58.028C26.479,57.563 26.633,57.064 26.711,56.554C26.802,55.959 26.791,55.349 26.678,54.758C26.585,54.273 26.423,53.803 26.198,53.364C25.677,52.347 24.823,51.514 23.794,51.017C23.125,50.695 22.397,50.525 21.655,50.502C21.587,50.5 21.519,50.5 21.451,50.5ZM74.395,50.5C73.652,50.515 72.92,50.675 72.246,50.99C71.231,51.465 70.38,52.267 69.844,53.251C69.599,53.703 69.421,54.19 69.318,54.694C69.197,55.283 69.179,55.893 69.262,56.489C69.334,57.001 69.482,57.502 69.701,57.97C69.969,58.544 70.342,59.068 70.795,59.511C71.264,59.968 71.818,60.338 72.421,60.593C73.045,60.857 73.718,60.997 74.395,61.005C75.075,61.014 75.755,60.891 76.388,60.642C76.998,60.401 77.561,60.044 78.041,59.598C78.504,59.166 78.889,58.652 79.171,58.085C79.41,57.604 79.575,57.085 79.656,56.554C79.743,55.981 79.736,55.393 79.634,54.822C79.547,54.336 79.391,53.863 79.171,53.421C78.662,52.398 77.819,51.554 76.796,51.045C76.132,50.715 75.407,50.537 74.668,50.504C74.577,50.501 74.486,50.5 74.395,50.5ZM74.558,52.078C74.713,52.084 74.868,52.095 75.022,52.119C75.41,52.178 75.788,52.301 76.138,52.48C76.848,52.844 77.43,53.44 77.776,54.158C77.934,54.485 78.043,54.836 78.098,55.195C78.154,55.564 78.154,55.942 78.098,56.311C78.043,56.67 77.934,57.02 77.776,57.347C77.584,57.746 77.32,58.108 77,58.413C76.679,58.719 76.303,58.967 75.895,59.139C75.443,59.33 74.954,59.429 74.464,59.429C73.973,59.429 73.484,59.33 73.032,59.139C72.624,58.967 72.248,58.719 71.927,58.413C71.607,58.108 71.343,57.746 71.151,57.347C70.993,57.02 70.885,56.67 70.83,56.311C70.773,55.942 70.773,55.564 70.83,55.195C70.885,54.836 70.993,54.485 71.151,54.158C71.497,53.44 72.079,52.844 72.789,52.48C73.139,52.301 73.517,52.178 73.906,52.119C74.06,52.095 74.214,52.084 74.37,52.078C74.464,52.077 74.463,52.077 74.558,52.078ZM21.613,52.078C21.769,52.084 21.923,52.095 22.077,52.119C22.466,52.178 22.844,52.301 23.194,52.48C23.904,52.844 24.485,53.44 24.832,54.158C24.99,54.485 25.098,54.836 25.153,55.195C25.21,55.564 25.21,55.942 25.153,56.311C25.098,56.67 24.99,57.02 24.832,57.347C24.64,57.746 24.376,58.108 24.056,58.413C23.735,58.719 23.359,58.967 22.951,59.139C22.499,59.33 22.01,59.429 21.519,59.429C21.029,59.429 20.54,59.33 20.088,59.139C19.68,58.967 19.304,58.719 18.983,58.413C18.663,58.108 18.399,57.746 18.207,57.347C18.049,57.02 17.94,56.67 17.885,56.311C17.829,55.942 17.829,55.564 17.885,55.195C17.94,54.836 18.049,54.485 18.207,54.158C18.553,53.44 19.135,52.844 19.845,52.48C20.194,52.301 20.573,52.178 20.961,52.119C21.115,52.095 21.27,52.084 21.425,52.078C21.519,52.077 21.519,52.077 21.613,52.078ZM21.501,55.077C21.401,55.081 21.303,55.104 21.213,55.15C20.955,55.282 20.807,55.57 20.851,55.857C20.86,55.917 20.877,55.975 20.902,56.03C20.936,56.104 20.984,56.173 21.042,56.231C21.099,56.288 21.168,56.336 21.242,56.37C21.324,56.407 21.412,56.426 21.501,56.429C21.592,56.431 21.682,56.416 21.766,56.383C21.842,56.352 21.913,56.308 21.973,56.253C22.034,56.198 22.085,56.132 22.122,56.059C22.152,56.001 22.173,55.938 22.185,55.874C22.235,55.594 22.101,55.307 21.854,55.165C21.767,55.116 21.672,55.088 21.573,55.079C21.549,55.077 21.525,55.077 21.501,55.077ZM74.446,55.077C74.345,55.081 74.247,55.104 74.157,55.15C73.899,55.282 73.752,55.57 73.795,55.857C73.805,55.917 73.822,55.975 73.847,56.03C73.88,56.104 73.928,56.173 73.986,56.231C74.044,56.288 74.112,56.336 74.187,56.37C74.268,56.407 74.356,56.426 74.446,56.429C74.536,56.431 74.626,56.416 74.711,56.383C74.787,56.352 74.857,56.308 74.918,56.253C74.978,56.198 75.029,56.132 75.067,56.059C75.096,56.001 75.118,55.938 75.129,55.874C75.179,55.594 75.045,55.307 74.798,55.165C74.712,55.116 74.616,55.088 74.517,55.079C74.493,55.077 74.469,55.077 74.446,55.077ZM34.148,43.163L34.148,54.089L39.17,54.089C45.025,54.089 50.884,53.894 56.736,54.089L61.835,54.089L61.835,43.163L34.148,43.163ZM48.018,49.488C48.238,49.503 48.448,49.555 48.643,49.658C48.814,49.748 48.968,49.871 49.092,50.019C49.202,50.148 49.288,50.296 49.348,50.454C49.4,50.589 49.432,50.733 49.442,50.877C49.483,51.441 49.193,51.992 48.706,52.279C48.495,52.403 48.262,52.466 48.018,52.484C45.065,52.555 42.109,52.486 39.154,52.486C38.91,52.48 38.674,52.428 38.457,52.314C38.329,52.247 38.21,52.16 38.106,52.059C37.793,51.753 37.626,51.315 37.658,50.877C37.669,50.733 37.7,50.589 37.752,50.454C37.812,50.296 37.899,50.148 38.008,50.019C38.132,49.871 38.286,49.748 38.457,49.658C38.652,49.555 38.863,49.503 39.082,49.488C42.06,49.416 45.04,49.416 48.018,49.488ZM56.699,45.144C56.855,45.15 57.009,45.161 57.163,45.185C57.552,45.244 57.93,45.367 58.28,45.546C59.016,45.924 59.614,46.551 59.956,47.305C60.093,47.609 60.189,47.931 60.239,48.261C60.295,48.63 60.295,49.008 60.239,49.377C60.184,49.736 60.075,50.086 59.918,50.414C59.726,50.812 59.461,51.175 59.141,51.48C58.821,51.785 58.445,52.033 58.036,52.205C57.585,52.397 57.096,52.495 56.605,52.495C56.115,52.495 55.625,52.397 55.174,52.205C54.765,52.033 54.39,51.785 54.069,51.48C53.749,51.175 53.484,50.812 53.292,50.414C53.135,50.086 53.026,49.736 52.971,49.377C52.915,49.008 52.915,48.63 52.971,48.261C53.026,47.902 53.135,47.552 53.292,47.224C53.639,46.506 54.22,45.91 54.931,45.546C55.28,45.367 55.659,45.244 56.047,45.185C56.201,45.161 56.355,45.15 56.511,45.144C56.605,45.143 56.605,45.143 56.699,45.144ZM56.587,48.143C56.486,48.147 56.389,48.17 56.299,48.216C56.041,48.348 55.893,48.637 55.937,48.923C55.946,48.983 55.963,49.041 55.988,49.096C56.022,49.17 56.069,49.239 56.127,49.297C56.185,49.355 56.253,49.402 56.328,49.436C56.409,49.473 56.498,49.493 56.587,49.495C56.677,49.497 56.768,49.482 56.852,49.449C56.928,49.419 56.998,49.374 57.059,49.319C57.12,49.264 57.171,49.198 57.208,49.125C57.238,49.067 57.259,49.004 57.27,48.94C57.321,48.66 57.186,48.373 56.94,48.232C56.853,48.182 56.758,48.154 56.658,48.145C56.635,48.143 56.611,48.143 56.587,48.143ZM48.018,45.524C48.238,45.54 48.448,45.591 48.643,45.694C48.814,45.784 48.968,45.907 49.092,46.055C49.202,46.184 49.288,46.332 49.348,46.49C49.549,47.018 49.429,47.63 49.044,48.044C48.946,48.15 48.831,48.242 48.706,48.315C48.495,48.439 48.262,48.503 48.018,48.52C45.065,48.592 42.109,48.522 39.154,48.522C38.935,48.517 38.722,48.475 38.522,48.382C38.347,48.301 38.188,48.185 38.056,48.044C37.941,47.92 37.847,47.776 37.779,47.621C37.721,47.488 37.683,47.347 37.665,47.203C37.648,47.059 37.651,46.913 37.676,46.77C37.749,46.337 38.016,45.951 38.394,45.729C38.605,45.605 38.838,45.542 39.082,45.524C42.06,45.452 45.04,45.452 48.018,45.524ZM74.558,38.078C74.713,38.084 74.868,38.095 75.022,38.119C75.41,38.178 75.788,38.301 76.138,38.48C76.848,38.844 77.43,39.44 77.776,40.158C77.934,40.485 78.043,40.836 78.098,41.195C78.154,41.564 78.154,41.942 78.098,42.311C78.043,42.67 77.934,43.02 77.776,43.347C77.584,43.746 77.32,44.108 77,44.413C76.679,44.719 76.303,44.967 75.895,45.139C75.443,45.33 74.954,45.429 74.464,45.429C73.973,45.429 73.484,45.331 73.032,45.139C72.624,44.967 72.248,44.719 71.927,44.413C71.607,44.108 71.343,43.746 71.151,43.347C70.993,43.02 70.885,42.67 70.83,42.311C70.773,41.942 70.773,41.564 70.83,41.195C70.885,40.836 70.993,40.485 71.151,40.158C71.497,39.44 72.079,38.844 72.789,38.48C73.139,38.301 73.517,38.178 73.906,38.119C74.06,38.095 74.214,38.084 74.369,38.078C74.464,38.077 74.463,38.077 74.558,38.078ZM21.613,38.078C21.769,38.084 21.923,38.095 22.077,38.119C22.466,38.178 22.844,38.301 23.194,38.48C23.904,38.844 24.485,39.44 24.832,40.158C24.99,40.485 25.098,40.836 25.153,41.195C25.21,41.564 25.21,41.942 25.153,42.311C25.098,42.67 24.99,43.02 24.832,43.347C24.64,43.746 24.376,44.108 24.056,44.413C23.735,44.719 23.359,44.967 22.951,45.139C22.499,45.331 22.01,45.429 21.519,45.429C21.029,45.429 20.54,45.331 20.088,45.139C19.68,44.967 19.304,44.719 18.983,44.413C18.663,44.108 18.399,43.746 18.207,43.347C18.049,43.02 17.94,42.67 17.885,42.311C17.829,41.942 17.829,41.564 17.885,41.195C17.94,40.836 18.049,40.485 18.207,40.158C18.553,39.44 19.135,38.844 19.845,38.48C20.194,38.301 20.573,38.178 20.961,38.119C21.115,38.095 21.27,38.084 21.425,38.078C21.519,38.077 21.519,38.077 21.613,38.078ZM21.501,41.077C21.401,41.081 21.303,41.104 21.213,41.15C20.955,41.282 20.807,41.57 20.851,41.857C20.86,41.917 20.877,41.975 20.902,42.03C20.936,42.104 20.984,42.173 21.042,42.231C21.099,42.288 21.168,42.336 21.242,42.37C21.324,42.407 21.412,42.426 21.501,42.429C21.592,42.431 21.682,42.416 21.766,42.383C21.842,42.353 21.913,42.308 21.973,42.253C22.034,42.198 22.085,42.132 22.122,42.059C22.152,42.001 22.173,41.938 22.185,41.874C22.235,41.594 22.101,41.307 21.854,41.165C21.767,41.116 21.672,41.088 21.573,41.079C21.549,41.077 21.525,41.077 21.501,41.077ZM74.446,41.077C74.345,41.081 74.247,41.104 74.157,41.15C73.899,41.282 73.752,41.57 73.795,41.857C73.805,41.917 73.822,41.975 73.847,42.03C73.88,42.104 73.928,42.173 73.986,42.231C74.044,42.288 74.112,42.336 74.187,42.37C74.268,42.407 74.356,42.426 74.446,42.429C74.536,42.431 74.626,42.416 74.711,42.383C74.787,42.353 74.857,42.308 74.918,42.253C74.978,42.198 75.029,42.132 75.067,42.059C75.096,42.001 75.118,41.938 75.129,41.874C75.179,41.594 75.045,41.307 74.798,41.165C74.712,41.116 74.616,41.088 74.517,41.079C74.493,41.077 74.469,41.077 74.446,41.077ZM34.148,39.222L34.148,40.163L61.835,40.163L61.835,39.222L34.148,39.222Z" style="" fill="black"></path></g></svg>