<svg fill="#333333" xmlns="http://www.w3.org/2000/svg" xmlns:xlink="http://www.w3.org/1999/xlink" xml:space="preserve" version="1.1" style="shape-rendering:geometricPrecision;text-rendering:geometricPrecision;image-rendering:optimizeQuality;" viewBox="0 0 346 272" x="0px" y="0px" fill-rule="evenodd" clip-rule="evenodd"><defs><style type="text/css">
   
    .fil0 {fill:#333333}
   
  </style></defs><g><path class="fil0" d="M307 31l-55 0c0,-17 -13,-31 -30,-31l-99 0c-17,0 -30,14 -30,31l-54 0c-21,0 -39,18 -39,39l0 163c0,21 18,39 39,39l268 0c21,0 39,-18 39,-39l0 -163c0,-22 -18,-39 -39,-39zm21 202c0,12 -9,22 -21,22l-268 0c-12,0 -22,-10 -22,-22l0 -163c0,-12 10,-22 22,-22l63 0c5,0 9,-4 9,-9l0 -9c0,-8 5,-13 13,-13l98 0c7,0 13,5 13,13l0 9c0,5 4,9 9,9l63 0c12,0 21,10 21,22l0 163z"></path><path class="fil0" d="M173 71c-45,0 -81,36 -81,80 0,45 36,81 81,81 44,0 81,-36 81,-81 0,-44 -37,-80 -81,-80zm0 144c-35,0 -63,-28 -63,-63 0,-35 28,-63 63,-63 35,0 63,28 63,63 0,35 -29,63 -63,63z"></path><path class="fil0" d="M306 86c0,-9 -7,-16 -16,-16 -9,0 -16,7 -16,16 0,9 7,16 16,16 9,0 16,-7 16,-16z"></path></g></svg>