<svg fill="#333333" xmlns="http://www.w3.org/2000/svg" xmlns:xlink="http://www.w3.org/1999/xlink" version="1.1" x="0px" y="0px" viewBox="0 0 512 512" enable-background="new 0 0 512 512" xml:space="preserve"><g><path d="M467.7,253.2h-9.1C451.5,147.5,363.4,63.7,256,63.7c-107.4,0-195.5,83.8-202.6,189.5h-9.1C21,253.2,2,272.2,2,295.5V406   c0,23.3,19,42.3,42.3,42.3h423.3c23.3,0,42.3-19,42.3-42.3V295.5C510,272.2,491,253.2,467.7,253.2z M256,91.9   c91.7,0,167.1,70.9,174.3,160.8h-117c-6.3-25.7-29.6-44.9-57.3-44.9c-27.7,0-51,19.1-57.3,44.9h-117   C88.9,162.9,164.3,91.9,256,91.9z M283.4,253.2h-54.9c5.1-10.1,15.4-17.1,27.4-17.1C268,236.1,278.4,243.1,283.4,253.2z M481.8,406   c0,7.8-6.3,14.1-14.1,14.1H44.3c-7.8,0-14.1-6.3-14.1-14.1V295.5c0-7.8,6.3-14.1,14.1-14.1h423.3c7.8,0,14.1,6.3,14.1,14.1V406z"></path><path d="M427.4,376.9h-30.2c-7.8,0-14.1,6.3-14.1,14.1c0,7.8,6.3,14.1,14.1,14.1h30.2c7.8,0,14.1-6.3,14.1-14.1   C441.5,383.2,435.2,376.9,427.4,376.9z"></path><path d="M92.1,376.9h-7.5c-7.8,0-14.1,6.3-14.1,14.1c0,7.8,6.3,14.1,14.1,14.1h7.5c7.8,0,14.1-6.3,14.1-14.1   C106.2,383.2,99.9,376.9,92.1,376.9z"></path><path d="M434,320.4H78c-7.8,0-14.1,6.3-14.1,14.1c0,7.8,6.3,14.1,14.1,14.1h356c7.8,0,14.1-6.3,14.1-14.1   C448.1,326.7,441.8,320.4,434,320.4z"></path></g></svg>