<svg fill="#333333" xmlns="http://www.w3.org/2000/svg" xmlns:xlink="http://www.w3.org/1999/xlink" version="1.1" x="0px" y="0px" viewBox="0 0 100 100" style="enable-background:new 0 0 100 100;" xml:space="preserve"><g><path d="M78.4,45l-0.1-1.6c-0.2-2.3-2-4.1-4.4-4.2l-4-0.3c-5.3-0.3-10.6-0.5-16-0.6c-0.1-1-0.5-1.9-1-2.6l14.8-14.8   c0.4-0.4,0.4-1,0-1.4s-1-0.4-1.4,0L51.3,34.3c-0.7-0.3-1.4-0.5-2.2-0.5c-0.8,0-1.5,0.2-2.2,0.6L36.4,23.7c-0.4-0.4-1-0.4-1.4,0   s-0.4,1,0,1.4l10.5,10.5c-0.6,0.7-0.9,1.6-1,2.6c-4.8,0.1-9.6,0.3-14.3,0.6l-4,0.3c-2.3,0.2-4.1,1.9-4.4,4.2L21.6,45   c-0.9,9.7-0.9,19.5,0,29.2l0.1,1.6c0.2,2.3,2,4.1,4.4,4.2l4,0.3c6.6,0.4,13.3,0.6,19.9,0.6c6.7,0,13.3-0.2,19.9-0.6l4-0.3   c2.3-0.2,4.1-1.9,4.4-4.2l0.1-1.6C79.3,64.4,79.3,54.6,78.4,45z M49.2,35.8c1.4,0,2.6,1.1,2.8,2.4c-1.8,0-3.7,0-5.5,0   C46.6,36.8,47.8,35.8,49.2,35.8z M76.4,73.9l-0.1,1.6c-0.1,1.3-1.2,2.3-2.5,2.4l-4,0.3c-13.1,0.9-26.4,0.9-39.5,0l-4-0.3   c-1.3-0.1-2.4-1.1-2.5-2.4l-0.1-1.6c-0.9-9.6-0.9-19.2,0-28.8l0.1-1.6c0.1-1.3,1.2-2.3,2.5-2.4l4-0.3c6.6-0.4,13.2-0.6,19.8-0.6   c6.6,0,13.2,0.2,19.8,0.6l4,0.3c1.3,0.1,2.4,1.1,2.5,2.4l0.1,1.6C77.3,54.7,77.3,64.4,76.4,73.9z"></path><path d="M62.7,45.8c-0.1-1.1-1-1.9-2-2l-4.4-0.3c-7.8-0.5-15.7-0.5-23.5,0l-4.4,0.3c-1.1,0.1-1.9,0.9-2,2l-0.2,2.6   c-0.7,7.4-0.7,14.9,0,22.3l0.2,2.6c0.1,1.1,1,1.9,2,2l4.4,0.3c3.9,0.3,7.8,0.4,11.8,0.4s7.9-0.1,11.8-0.4l4.4-0.3   c1.1-0.1,1.9-0.9,2-2l0.2-2.6c0.7-7.4,0.7-14.9,0-22.3L62.7,45.8z M61,70.5l-0.2,2.6c0,0.1-0.1,0.2-0.2,0.2l-4.4,0.3   c-7.7,0.5-15.5,0.5-23.2,0l-4.4-0.3c-0.1,0-0.2-0.1-0.2-0.2l-0.2-2.6c-0.7-7.3-0.7-14.7,0-21.9l0.2-2.6c0-0.1,0.1-0.2,0.2-0.2   l4.4-0.3c3.9-0.3,7.7-0.4,11.6-0.4c3.9,0,7.8,0.1,11.6,0.4l4.4,0.3c0.1,0,0.2,0.1,0.2,0.2l0.2,2.6C61.6,55.8,61.6,63.2,61,70.5z"></path><path d="M70.2,50.7c-2,0-3.7,1.6-3.7,3.7s1.6,3.7,3.7,3.7s3.7-1.6,3.7-3.7S72.2,50.7,70.2,50.7z M70.2,56c-0.9,0-1.7-0.7-1.7-1.7   s0.7-1.7,1.7-1.7s1.7,0.7,1.7,1.7S71.1,56,70.2,56z"></path><path d="M72.7,60.4h-5c-0.6,0-1,0.4-1,1s0.4,1,1,1h5c0.6,0,1-0.4,1-1S73.2,60.4,72.7,60.4z"></path><path d="M72.7,63.6h-5c-0.6,0-1,0.4-1,1s0.4,1,1,1h5c0.6,0,1-0.4,1-1S73.2,63.6,72.7,63.6z"></path><path d="M72.7,66.8h-5c-0.6,0-1,0.4-1,1s0.4,1,1,1h5c0.6,0,1-0.4,1-1S73.2,66.8,72.7,66.8z"></path></g></svg>