<svg fill="#333333" xmlns="http://www.w3.org/2000/svg" xmlns:xlink="http://www.w3.org/1999/xlink" version="1.1" x="0px" y="0px" viewBox="0 0 66 66" enable-background="new 0 0 66 66" xml:space="preserve"><g><g><path d="M60.2,32.7c1.4,1.1,3.5,0.9,4.6-0.6c1.1-1.4,0.8-3.5-0.6-4.6l-9.3-7.2v-10c0-0.6-0.4-1-1-1H47c-0.6,0-1,0.4-1,1v3.2    L35.4,5.4c-1.1-0.9-2.9-0.9-4,0l-10,7.6c0-0.7-0.1-1.3-0.3-1.9l2.7-1.1c0.5-0.2,0.8-0.8,0.5-1.3c-0.2-0.5-0.8-0.7-1.3-0.5    l-2.7,1.1c-0.4-0.7-0.9-1.4-1.5-2l1.8-2.4c0.3-0.4,0.3-1.1-0.2-1.4c-0.4-0.3-1.1-0.2-1.4,0.2L17.3,6c-0.7-0.4-1.5-0.7-2.3-0.9    l0.4-2.9c0.1-0.5-0.3-1-0.9-1.1c-0.6-0.1-1,0.3-1.1,0.9L13,4.8c-0.8,0-1.7,0.1-2.5,0.3L9.4,2.4C9.2,1.9,8.6,1.7,8.1,1.9    C7.6,2.1,7.3,2.7,7.5,3.2L8.7,6C8,6.4,7.3,6.9,6.7,7.5L4.4,5.7C3.9,5.3,3.3,5.4,3,5.9C2.6,6.3,2.7,6.9,3.2,7.3l2.4,1.8    c-0.4,0.7-0.7,1.5-0.9,2.3L1.6,11c-0.6-0.1-1,0.3-1.1,0.9c-0.1,0.5,0.3,1,0.9,1.1l2.9,0.4c0,0.8,0.1,1.7,0.3,2.5l-2.7,1.1    c-0.5,0.2-0.7,0.8-0.5,1.3c0.2,0.4,0.5,0.6,0.9,0.6c0.1,0,0.3,0,0.4-0.1l2.7-1.1c0.2,0.4,0.4,0.7,0.7,1c0.3,0.3,0.5,0.6,0.8,0.9    L5.1,22c-0.3,0.4-0.3,1.1,0.2,1.4c0.4,0.3,1.1,0.3,1.4-0.2l1.8-2.3c0.5,0.3,1.1,0.6,1.7,0.8l-7.6,5.8c-1.4,1.1-1.7,3.2-0.6,4.6    c1.1,1.5,3.2,1.7,4.6,0.6l2.1-1.6V63H3.1c-0.6,0-1,0.4-1,1c0,0.6,0.4,1,1,1c25.8,0,16.3,0,60.5,0c0.6,0,1-0.4,1-1c0-0.6-0.4-1-1-1    h-5.5V31.1L60.2,32.7z M48,14.9v-3.7h4.9v7.5C52.8,18.7,47.7,14.7,48,14.9z M12.1,20c-1.8-0.2-3.3-1.1-4.4-2.5    C4.1,12.8,7.9,6.1,13.7,6.9c3.8,0.5,6.3,4.1,5.6,7.7L12.3,20C12.2,20,12.1,20,12.1,20z M5.4,31.1c-0.6,0.4-1.4,0.3-1.8-0.2    c-0.4-0.6-0.3-1.4,0.2-1.8L32.7,6.9c0.5-0.3,1.1-0.3,1.6,0C68,33,29.4,3.2,63,29c0.6,0.4,0.7,1.2,0.2,1.8    c-0.4,0.5-1.3,0.7-1.8,0.2l-3.6-2.8c0,0-0.1-0.1-0.1-0.1L34,10c-0.4-0.3-0.9-0.3-1.2,0L9.1,28.2c-0.1,0-0.1,0.1-0.1,0.1L5.4,31.1z     M56.1,63H10.7V29.6l22.8-17.4l22.7,17.4V63z"></path></g><g><path d="M54.9,6c0.3-0.1,1.5-0.1,2.1,0.4c0.3,0.3,0.5,0.6,0.6,1.2C57.7,8,58,8.3,58.4,8.4c0.1,0,0.1,0,0.2,0    c0.4,0,0.7-0.2,0.9-0.6c0-0.1,1.2-2.3,3.5-2c0.5,0.1,1.1-0.3,1.1-0.8c0.1-0.5-0.3-1.1-0.8-1.1c-1.9-0.3-3.4,0.5-4.4,1.5    c-0.2-0.2-0.4-0.5-0.7-0.7c-1.5-1.1-3.4-0.8-3.7-0.8c-0.5,0.1-0.9,0.6-0.8,1.1C53.8,5.7,54.3,6,54.9,6z"></path></g><g><path d="M21.9,32.7c-0.2,0.1-4,2.4-4.8,6.6c-0.5,2.8,0.5,5.8,2.9,8.7c0,0.1,0.1,0.1,0.2,0.1c0,0.1,3,2.5-2.4,9    c-0.4,0.4-0.3,1.1,0.1,1.4c0.4,0.4,1.1,0.3,1.4-0.1c2.7-3.2,3.9-6.1,3.7-8.6c-0.2-1.8-1.1-2.8-1.5-3.1c-2-2.5-2.8-4.9-2.4-7    c0.6-3.3,3.7-5.2,3.8-5.2c0.5-0.3,0.6-0.9,0.4-1.4C23,32.6,22.4,32.4,21.9,32.7z"></path></g><g><path d="M30.7,32.7c-0.2,0.1-4,2.4-4.8,6.6c-0.5,2.8,0.5,5.8,2.9,8.7c0,0.1,0.1,0.1,0.2,0.1c0,0.1,3,2.5-2.4,9    c-0.4,0.4-0.3,1.1,0.1,1.4c0.4,0.4,1.1,0.3,1.4-0.1c2.7-3.2,3.9-6.1,3.7-8.6c-0.2-1.8-1.1-2.8-1.5-3.1c-2-2.5-2.8-4.9-2.4-7    c0.6-3.3,3.7-5.2,3.8-5.2c0.5-0.3,0.6-0.9,0.4-1.4C31.8,32.6,31.2,32.4,30.7,32.7z"></path></g><g><path d="M34.7,39.2c-0.5,2.8,0.5,5.8,2.9,8.7c0,0,0.1,0.1,0.1,0.1c0.1,0.1,2.9,2.6-2.4,9c-0.4,0.4-0.3,1.1,0.1,1.4    c0.4,0.4,1.1,0.3,1.4-0.1c2.7-3.2,3.9-6.1,3.7-8.6c-0.2-1.8-1.1-2.8-1.5-3.1c-2-2.5-2.8-4.9-2.4-7c0.6-3.3,3.8-5.2,3.8-5.2    c0.5-0.3,0.6-0.9,0.4-1.4c-0.3-0.5-0.9-0.6-1.4-0.4C39.3,32.8,35.5,35,34.7,39.2z"></path></g><g><path d="M46.5,48.1c0.1,0.1,2.9,2.6-2.4,9c-0.4,0.4-0.3,1.1,0.1,1.4c0.4,0.4,1.1,0.3,1.4-0.1c2.7-3.2,3.9-6.1,3.7-8.6    c-0.2-1.8-1.1-2.8-1.5-3.1c-2-2.5-2.8-4.9-2.4-7c0.6-3.3,3.8-5.2,3.8-5.2c0.5-0.3,0.6-0.9,0.4-1.4c-0.3-0.5-0.9-0.6-1.4-0.4    c-0.2,0.1-4,2.4-4.8,6.6C43,42.1,44,45,46.4,48C46.4,48,46.5,48.1,46.5,48.1z"></path></g><g><path d="M30.5,21c-0.8,0.8-1.2,1.8-1.2,2.9c0,2.3,1.8,4.1,4.1,4.1c1.1,0,2.1-0.4,2.9-1.2c0.8-0.8,1.2-1.8,1.2-2.9    c0-1.1-0.4-2.1-1.2-2.9s-1.8-1.2-2.9-1.2C32.3,19.8,31.3,20.3,30.5,21z M35.5,24c0,0.6-0.2,1.1-0.6,1.5c-0.4,0.4-0.9,0.6-1.5,0.6    c-1.2,0-2.1-1-2.1-2.1c0-0.6,0.2-1.1,0.6-1.5c0.3-0.3,0.8-0.6,1.5-0.6c0.6,0,1.1,0.2,1.5,0.6C35.3,22.9,35.5,23.4,35.5,24z"></path></g></g></svg>