<svg fill="#333333" xmlns="http://www.w3.org/2000/svg" xmlns:xlink="http://www.w3.org/1999/xlink" version="1.1" x="0px" y="0px" viewBox="0 0 512 512" style="enable-background:new 0 0 512 512;" xml:space="preserve"><g><g><path d="M99.128,204.01c2.054-2.134,5.453-2.178,7.58-0.155c2.139,2.05,2.203,5.431,0.14,7.571L86.692,232.36    c-2.063,2.095-5.477,2.184-7.604,0.134c-2.123-2.05-2.195-5.432-0.148-7.548L99.128,204.01z M100.809,178.458    c2.055-2.12,5.453-2.19,7.6-0.136c2.095,2.05,2.187,5.431,0.125,7.548l-20.188,20.934c-2.055,2.137-5.421,2.203-7.568,0.152    c-2.126-2.046-2.195-5.427-0.132-7.567L100.809,178.458z M473.804,135.362h-89.747c-3.146,0-5.996,1.265-8.05,3.315    c-2.079,2.094-3.379,4.926-3.379,8.069V358.49c0,3.014,1.212,5.76,3.13,7.813l0.249,0.208c2.054,2.055,4.903,3.317,8.05,3.317    h89.747c3.13,0,6.003-1.263,8.065-3.329c2.078-2.035,3.347-4.888,3.347-8.01V146.747c0-3.143-1.269-5.975-3.347-8.023    C479.807,136.673,476.934,135.362,473.804,135.362z M384.057,124.634h89.747c6.107,0,11.669,2.486,15.682,6.5    c4.005,3.988,6.501,9.504,6.501,15.612V358.49c0,6.039-2.496,11.586-6.525,15.571c-3.988,4.017-9.55,6.506-15.657,6.506h-89.747    c-6.124,0-11.686-2.489-15.674-6.481l-0.369-0.412c-3.788-3.969-6.132-9.316-6.132-15.184V146.747    c0-6.065,2.496-11.598,6.501-15.592C372.42,127.12,377.973,124.634,384.057,124.634z M178.471,320.427    c-0.313-0.312-0.702-0.483-1.156-0.483c-0.47,0-0.875,0.172-1.172,0.483c-0.297,0.256-0.469,0.691-0.469,1.128    c0,0.459,0.188,0.871,0.469,1.174c0.265,0.289,0.702,0.46,1.172,0.46c0.413,0,0.766-0.147,1.031-0.352l0.125-0.108    c0.281-0.303,0.485-0.715,0.485-1.174c0-0.389-0.156-0.74-0.345-1.052L178.471,320.427z M177.315,309.213    c3.415,0,6.513,1.371,8.78,3.621l0.389,0.451c1.986,2.21,3.222,5.088,3.222,8.27c0,3.4-1.376,6.498-3.611,8.748l-0.486,0.411    c-2.187,1.983-5.124,3.198-8.294,3.198c-3.423,0-6.5-1.388-8.736-3.609c-2.279-2.25-3.68-5.348-3.68-8.748    c0-3.402,1.4-6.451,3.632-8.697C170.766,310.584,173.892,309.213,177.315,309.213z M111.708,369.921l-1.46,0.063    c-0.963,0.061-1.838,0.412-2.516,0.98l-0.181,0.195c-0.545,0.543-0.891,1.314-0.891,2.162c0,0.919,0.345,1.742,0.959,2.31    c0.586,0.616,1.449,0.979,2.347,0.979l134.301,0.063c0.898-0.04,1.733-0.411,2.319-0.995c0.594-0.591,0.991-1.414,0.991-2.31    c0-0.835-0.357-1.535-0.875-2.054c-0.654-0.696-1.717-1.176-2.897-1.309l-2.054-0.303l-49.031-13.696    c-2.468-0.483-4.35-2.661-4.35-5.276v-15.966c0-2.934,2.412-5.339,5.381-5.339h126.183c2.167,0,4.133-0.892,5.554-2.334    c1.444-1.398,2.343-3.361,2.343-5.523V143.234c0-2.164-0.914-4.144-2.318-5.555c-1.445-1.421-3.411-2.316-5.578-2.316H34.684    c-2.07,0-3.96,0.806-5.357,2.094l-0.221,0.222c-1.42,1.431-2.319,3.391-2.319,5.555V321.57c0,2.162,0.875,4.125,2.295,5.547    c1.424,1.419,3.415,2.311,5.602,2.311h126.187c2.973,0,5.381,2.405,5.381,5.339v15.966c-0.016,2.351-1.577,4.488-3.937,5.145    l-49.42,13.828L111.708,369.921z M109.673,359.322l0.863-0.036l44.95-12.605v-6.554H34.684c-5.116,0-9.787-2.091-13.153-5.443    c-3.391-3.361-5.518-8.025-5.518-13.113V143.234c0-5.124,2.103-9.792,5.477-13.147l0.39-0.326    c3.331-3.164,7.836-5.127,12.804-5.127h285.25c5.104,0,9.783,2.096,13.153,5.453c3.396,3.401,5.497,8.047,5.497,13.147V321.57    c0,5.088-2.126,9.752-5.497,13.113c-3.37,3.353-8.009,5.443-13.153,5.443H199.14v6.554l45.079,12.622l0.686,0.059    c3.627,0.412,6.986,1.971,9.408,4.404c2.48,2.442,4.029,5.76,4.029,9.557c0,3.868-1.621,7.377-4.153,9.896    c-2.546,2.577-6.073,4.147-9.921,4.147l-134.301-0.039c-3.836,0-7.383-1.578-9.915-4.108c-2.592-2.565-4.173-6.06-4.173-9.896    c0-3.837,1.565-7.238,4.057-9.729l0.413-0.395C102.799,360.957,106.09,359.518,109.673,359.322z M300.685,160.503H53.913v135.972    h246.771V160.503z M48.528,149.8h257.546c2.977,0,5.385,2.397,5.385,5.337v146.709c0,2.958-2.408,5.359-5.385,5.359H48.528    c-2.961,0-5.381-2.401-5.381-5.359V155.138C43.147,152.198,45.566,149.8,48.528,149.8z M432.425,294.772    c-0.898-0.87-2.118-1.438-3.499-1.438c-1.275,0-2.432,0.483-3.307,1.243l-0.176,0.195c-0.899,0.896-1.453,2.139-1.453,3.493    c0,1.268,0.466,2.442,1.229,3.317l0.225,0.168c0.874,0.88,2.118,1.442,3.482,1.442c1.381,0,2.601-0.563,3.499-1.442    c0.899-0.872,1.444-2.138,1.444-3.485c0-1.267-0.457-2.441-1.243-3.289L432.425,294.772z M428.926,282.604    c4.357,0,8.274,1.766,11.1,4.584l0.369,0.396c2.632,2.817,4.245,6.582,4.245,10.683c0,4.32-1.773,8.25-4.614,11.082    c-2.825,2.807-6.742,4.573-11.1,4.573c-4.317,0-8.258-1.767-11.107-4.573l-0.345-0.398c-2.632-2.811-4.253-6.559-4.253-10.684    c0-4.316,1.749-8.24,4.598-11.078l0.394-0.352C421.021,284.222,424.833,282.604,428.926,282.604z M471.789,178.212H386.07v7.046    h85.719V178.212z M383.102,167.483h91.649c2.095,0,4.068,0.875,5.465,2.268c1.444,1.417,2.319,3.385,2.319,5.521v12.931    c0,2.156-0.875,4.117-2.271,5.513l-0.545,0.46c-1.356,1.131-3.106,1.808-4.968,1.808h-91.649c-2.127,0-4.077-0.871-5.506-2.288    c-1.412-1.376-2.287-3.337-2.287-5.493v-12.931c0-2.136,0.875-4.104,2.271-5.501C378.984,168.378,380.959,167.483,383.102,167.483    z M471.789,212.519H386.07v7.042h85.719V212.519z M383.102,201.79h91.649c2.15,0,4.117,0.867,5.513,2.264    c1.396,1.397,2.271,3.361,2.271,5.497v12.951c0,2.096-0.843,4.057-2.247,5.451c-1.42,1.443-3.387,2.338-5.537,2.338h-91.649    c-2.143,0-4.117-0.896-5.521-2.292l-0.474-0.545c-1.116-1.353-1.798-3.077-1.798-4.952v-12.951c0-2.136,0.875-4.1,2.271-5.497    C378.984,202.657,380.959,201.79,383.102,201.79z"></path></g></g></svg>