<svg fill="#333333" xmlns="http://www.w3.org/2000/svg" xmlns:xlink="http://www.w3.org/1999/xlink" viewBox="0 0 100 100" version="1.1" x="0px" y="0px"><title>dat</title><desc>Created with Sketch.</desc><g stroke="none" stroke-width="1" fill="none" fill-rule="evenodd"><g stroke="#333333"><g transform="translate(52.500000, 40.500000) rotate(-270.000000) translate(-52.500000, -40.500000) translate(40.000000, 8.000000)" stroke-width="2"><g transform="translate(12.301831, 56.397458) rotate(-250.000000) translate(-12.301831, -56.397458) translate(6.301831, 50.397458)"><circle cx="5.69198876" cy="6.06914445" r="5.51431927"></circle></g><g transform="translate(12.122210, 13.000000) rotate(-315.000000) translate(-12.122210, -13.000000) translate(3.622210, 4.500000)"><g transform="translate(8.910236, 8.656214) rotate(-295.000000) translate(-8.910236, -8.656214) translate(2.910236, 2.656214)"><circle cx="5.69198876" cy="6.06914445" r="5.51431927"></circle></g></g></g><g transform="translate(13.000000, 59.000000)" stroke-width="2"><path d="M14.9344558,-14.5 L15.0655442,15.5" transform="translate(15.000000, 0.500000) rotate(-270.000000) translate(-15.000000, -0.500000) "></path><path d="M26.5655441,-19 L26.5655442,34" transform="translate(26.500000, 7.500000) rotate(-270.000000) translate(-26.500000, -7.500000) "></path></g><path d="M50.5655441,31 L50.5655442,116" stroke-width="2" transform="translate(50.500000, 73.500000) rotate(-270.000000) translate(-50.500000, -73.500000) "></path><rect stroke-width="2" x="12" y="28" width="76" height="25" rx="2"></rect><rect stroke-width="3" x="5" y="17" width="90" height="66" rx="3"></rect></g></g></svg>