<svg fill="#333333" xmlns="http://www.w3.org/2000/svg" xmlns:xlink="http://www.w3.org/1999/xlink" version="1.1" x="0px" y="0px" viewBox="0 0 100 100" style="enable-background:new 0 0 100 100;" xml:space="preserve"><path d="M85,5H15C9.477,5,5,9.477,5,15v70c0,5.523,4.477,10,10,10h70c5.523,0,10-4.477,10-10V15C95,9.477,90.523,5,85,5z M90,85   c0,2.757-2.243,5-5,5H15c-2.757,0-5-2.243-5-5V15c0-2.757,2.243-5,5-5h70c2.757,0,5,2.243,5,5V85z"></path><path d="M15,85h70V15H15V85z M17.5,17.5h65v65h-65V17.5z"></path><path d="M50,30c-11.046,0-20,8.954-20,20c0,11.046,8.954,20,20,20s20-8.954,20-20C70,38.954,61.046,30,50,30z M50,67.5   c-9.665,0-17.5-7.835-17.5-17.5S40.335,32.5,50,32.5S67.5,40.335,67.5,50S59.665,67.5,50,67.5z"></path><circle cx="50" cy="60" r="3.75"></circle><path d="M50,36.25c-7.594,0-13.75,6.156-13.75,13.75H40c0-6.213,5.037-11.25,11.25-11.25S62.5,43.787,62.5,50h1.25   C63.75,42.406,57.594,36.25,50,36.25z"></path></svg>