<svg fill="#333333" xmlns="http://www.w3.org/2000/svg" xmlns:xlink="http://www.w3.org/1999/xlink" version="1.1" x="0px" y="0px" viewBox="0 0 152 137" style="enable-background:new 0 0 152 137;" xml:space="preserve"><g><path d="M76,42.2c-7.4,0-13.4,6-13.4,13.4S68.6,69,76,69c7.4,0,13.4-6,13.4-13.4S83.4,42.2,76,42.2z M81.6,65.2v-9.4   c0-0.3-0.1-0.6-0.3-0.8l-1.6-1.6v-0.4c0-0.6-0.5-1.1-1.1-1.1h-1.2v-2.4h1.2c0.6,0,1.1-0.5,1.1-1.1V45c4.4,1.5,7.5,5.7,7.5,10.5   C87.2,59.7,84.9,63.3,81.6,65.2z M71.1,45.6v7.5c0,0.3,0.1,0.6,0.3,0.8l0.4,0.4L70.1,56c-0.2,0.2-0.3,0.5-0.3,0.8v8   c-3-2-4.9-5.4-4.9-9.3C64.8,51.2,67.4,47.4,71.1,45.6z M72,57.3l2.2-2.2c0.4-0.4,0.4-1.2,0-1.6l-0.9-0.9v-7.9   c0.9-0.2,1.8-0.3,2.7-0.3c0.5,0,0.9,0,1.4,0.1v2.8h-1.2c-0.6,0-1.1,0.5-1.1,1.1v4.6c0,0.6,0.5,1.1,1.1,1.1h1.3   c0,0.2,0.2,0.4,0.3,0.6l1.6,1.6v9.9c-1,0.3-2.2,0.5-3.3,0.5c-1.4,0-2.7-0.3-4-0.7V57.3z"></path><path d="M76,34.4c-11.7,0-21.2,9.5-21.2,21.2v26.5c0,11.7,9.5,21.2,21.2,21.2c11.7,0,21.2-9.5,21.2-21.2V55.6   C97.2,43.9,87.7,34.4,76,34.4z M92.7,82.1c0,9.2-7.5,16.7-16.7,16.7c-9.2,0-16.7-7.5-16.7-16.7V55.6c0-9.2,7.5-16.7,16.7-16.7   c9.2,0,16.7,7.5,16.7,16.7V82.1z"></path></g></svg>