<svg fill="#333333" xmlns="http://www.w3.org/2000/svg" xmlns:xlink="http://www.w3.org/1999/xlink" version="1.1" x="0px" y="0px" viewBox="0 0 64 64" enable-background="new 0 0 64 64" xml:space="preserve"><g><g><path d="M44,42.5c3.873,0,7.515-1.508,10.253-4.246c2.739-2.738,4.247-6.379,4.247-10.253c0-3.873-1.509-7.514-4.247-10.252    c-2.738-2.739-6.38-4.247-10.253-4.247s-7.515,1.508-10.253,4.247c-2.738,2.738-4.247,6.379-4.247,10.252    c0,3.874,1.508,7.515,4.247,10.253S40.127,42.5,44,42.5z M34.454,18.456c2.55-2.55,5.939-3.954,9.546-3.954    s6.996,1.404,9.546,3.954s3.954,5.94,3.954,9.546s-1.404,6.996-3.954,9.545S47.606,41.5,44,41.5s-6.996-1.403-9.546-3.953    c-2.549-2.55-3.954-5.939-3.954-9.546C30.5,24.395,31.905,21.005,34.454,18.456z"></path><path d="M44,30.501c0.668,0,1.295-0.26,1.768-0.732c0.473-0.472,0.732-1.1,0.732-1.768s-0.26-1.296-0.732-1.768    c-0.945-0.944-2.59-0.944-3.535,0c-0.473,0.472-0.732,1.1-0.732,1.768s0.26,1.296,0.732,1.768    C42.705,30.241,43.332,30.501,44,30.501z M42.939,26.941c0.283-0.283,0.66-0.439,1.061-0.439s0.777,0.156,1.061,0.439    s0.439,0.66,0.439,1.061s-0.156,0.777-0.439,1.061c-0.566,0.566-1.555,0.566-2.121,0c-0.283-0.283-0.439-0.66-0.439-1.061    S42.656,27.224,42.939,26.941z"></path><path d="M48.242,24.259c0.128,0,0.256-0.049,0.354-0.146l2.829-2.829c0.195-0.195,0.195-0.512,0-0.707s-0.512-0.195-0.707,0    l-2.829,2.829c-0.195,0.195-0.195,0.512,0,0.707C47.986,24.21,48.114,24.259,48.242,24.259z"></path><path d="M36.575,35.426c0.098,0.098,0.226,0.146,0.354,0.146s0.256-0.049,0.354-0.146l2.829-2.828    c0.195-0.195,0.195-0.512,0-0.707s-0.512-0.195-0.707,0l-2.829,2.828C36.38,34.914,36.38,35.23,36.575,35.426z"></path><path d="M49.169,26.121c0.074,0.203,0.266,0.329,0.47,0.329c0.057,0,0.114-0.01,0.171-0.03l3.759-1.369    c0.26-0.094,0.394-0.381,0.299-0.641c-0.095-0.26-0.381-0.392-0.641-0.299l-3.759,1.369    C49.208,25.574,49.074,25.861,49.169,26.121z"></path><path d="M34.774,31.892l3.759-1.368c0.26-0.094,0.394-0.381,0.299-0.641s-0.379-0.394-0.641-0.299l-3.759,1.368    c-0.26,0.094-0.394,0.381-0.299,0.641c0.074,0.203,0.266,0.329,0.47,0.329C34.66,31.922,34.718,31.912,34.774,31.892z"></path><path d="M58,39.5c-0.276,0-0.5,0.224-0.5,0.5v7.5h-51v-11H28c0.276,0,0.5-0.224,0.5-0.5s-0.224-0.5-0.5-0.5H6    c-0.276,0-0.5,0.224-0.5,0.5v12c0,0.276,0.224,0.5,0.5,0.5h52c0.276,0,0.5-0.224,0.5-0.5v-8C58.5,39.724,58.276,39.5,58,39.5z"></path><path d="M10,42.5c-0.276,0-0.5,0.224-0.5,0.5s0.224,0.5,0.5,0.5h20c0.276,0,0.5-0.224,0.5-0.5s-0.224-0.5-0.5-0.5H10z"></path><circle cx="53" cy="43" r="1"></circle><path d="M12,49.5h-2c-0.276,0-0.5,0.224-0.5,0.5s0.224,0.5,0.5,0.5h2c0.276,0,0.5-0.224,0.5-0.5S12.276,49.5,12,49.5z"></path><path d="M54,49.5h-2c-0.276,0-0.5,0.224-0.5,0.5s0.224,0.5,0.5,0.5h2c0.276,0,0.5-0.224,0.5-0.5S54.276,49.5,54,49.5z"></path></g></g></svg>