<svg fill="#333333" xmlns="http://www.w3.org/2000/svg" xmlns:xlink="http://www.w3.org/1999/xlink" version="1.1" x="0px" y="0px" viewBox="0 0 90 90" enable-background="new 0 0 90 90" xml:space="preserve"><g><path d="M48.321,56.818c0-2.627-2.137-4.764-4.763-4.764c-2.627,0-4.764,2.137-4.764,4.764c0,2.625,2.137,4.762,4.764,4.762   C46.185,61.58,48.321,59.443,48.321,56.818z M41.574,56.818c0-1.096,0.89-1.986,1.984-1.986c1.094,0,1.983,0.891,1.983,1.986   c0,1.094-0.89,1.984-1.983,1.984C42.464,58.803,41.574,57.912,41.574,56.818z"></path><path d="M44.753,39.928V18.52c0-0.556-0.455-1.012-1.013-1.012h-9.081c-0.557,0-1.012,0.456-1.012,1.012v28.605   c0,0.557,0.455,1.012,1.012,1.012h9.081c0.558,0,1.013-0.455,1.013-1.012V42.18c7.543,0.611,13.495,6.939,13.495,14.638   c0,1.74-0.306,3.408-0.863,4.959l-8.211-3.146c-0.361,1.117-1.047,2.088-1.946,2.805l6.417,6.047   c-1.741,1.648-3.883,2.875-6.265,3.518l-1.515-8.748c-0.709,0.301-1.488,0.471-2.307,0.471c-0.264,0-0.52-0.023-0.773-0.057v8.82   c-7.743-0.402-13.918-6.828-13.918-14.668c0-3.639,1.332-6.969,3.53-9.537c-0.003-0.053-0.016-0.104-0.016-0.156v-3.022   c-3.53,3.106-5.764,7.653-5.764,12.715c0,9.34,7.599,16.938,16.94,16.938c9.34,0,16.938-7.598,16.938-16.938   C60.497,47.879,53.537,40.544,44.753,39.928z M36.336,46.316h-1.403v-1.403h1.403V46.316z M36.336,43.99h-1.403v-1.403h1.403V43.99   z M36.336,41.662h-1.403v-1.402h1.403V41.662z M36.336,39.334h-1.403v-1.403h1.403V39.334z M36.336,37.007h-1.403v-1.403h1.403   V37.007z M36.336,34.679h-1.403v-1.402h1.403V34.679z M36.336,32.352h-1.403v-1.403h1.403V32.352z M36.336,30.024h-1.403v-1.402   h1.403V30.024z M36.336,27.697h-1.403v-1.403h1.403V27.697z M36.336,25.37h-1.403v-1.403h1.403V25.37z M36.336,23.042h-1.403   v-1.403h1.403V23.042z M36.336,20.714h-1.403v-1.402h1.403V20.714z M43.352,46.316h-1.402v-1.403h1.402V46.316z M43.352,43.99   h-1.402v-1.403h1.402V43.99z M43.352,41.662h-1.402v-1.402h1.402V41.662z M43.352,39.334h-1.402v-1.403h1.402V39.334z    M43.352,37.007h-1.402v-1.403h1.402V37.007z M43.352,34.679h-1.402v-1.402h1.402V34.679z M43.352,32.352h-1.402v-1.403h1.402   V32.352z M43.352,30.024h-1.402v-1.402h1.402V30.024z M43.352,27.697h-1.402v-1.403h1.402V27.697z M43.352,25.37h-1.402v-1.403   h1.402V25.37z M43.352,23.042h-1.402v-1.403h1.402V23.042z M43.352,20.714h-1.402v-1.402h1.402V20.714z"></path></g></svg>