<svg fill="#333333" xmlns="http://www.w3.org/2000/svg" xmlns:xlink="http://www.w3.org/1999/xlink" version="1.1" x="0px" y="0px" viewBox="0 0 100 100" style="enable-background:new 0 0 100 100;" xml:space="preserve"><g><path d="M44.648,80.619l-0.513,2.047c-7.846-1.967-14.848-6.164-20.247-12.141l1.566-1.416   C30.573,74.773,37.21,78.754,44.648,80.619z M25.197,30.592l1.63,1.342c4.874-5.92,11.315-10.209,18.628-12.404l-0.607-2.022   C37.133,19.823,30.338,24.348,25.197,30.592z M20.421,72.66l-1.694,1.26c3.082,4.141,6.885,7.611,11.306,10.318   c4.361,2.67,9.123,4.477,14.153,5.367l0.368-2.078C34.849,85.809,26.278,80.529,20.421,72.66z M44.405,13.459l-0.413-2.07   c-5.062,1.009-9.828,2.957-14.168,5.789c-4.283,2.796-7.957,6.323-10.917,10.485l1.721,1.224   C26.341,20.856,34.786,15.377,44.405,13.459z M100,50c0,27.615-22.386,50-50,50C22.386,100,0,77.615,0,50C0,22.386,22.386,0,50,0   C77.614,0,100,22.386,100,50z M96.291,50C96.291,24.434,75.565,3.709,50,3.709C24.434,3.709,3.709,24.434,3.709,50   c0,25.566,20.725,46.291,46.291,46.291C75.565,96.291,96.291,75.566,96.291,50z M88.213,37.172l-2.006,0.656   c3.063,9.367,2.449,19.416-1.727,28.291l1.91,0.9c2.197-4.67,3.465-9.662,3.766-14.836C90.455,47.078,89.801,42.028,88.213,37.172z    M55.268,50c0-2.904-2.363-5.268-5.268-5.268c-2.905,0-5.268,2.363-5.268,5.268c0,2.904,2.363,5.267,5.268,5.267   C52.904,55.268,55.268,52.904,55.268,50z M78.284,72.967c0.62,2.045,0.668,4.223-0.744,6.771   c-6.322,11.404-23.573,9.479-30.851-3.658c-2.462-4.104-3.119-9.709-3.241-13.643c-2.69-1.416-4.773-3.631-6.056-6.24   c-6.12,3.752-13.648,11.342-19.12,10.963c-2.131-0.148-4.184-0.879-6.062-3.105c-8.407-9.969-0.468-25.405,14.397-27.529   c5.193-0.926,11.309,0.846,14.986,2.215c3.16-2.353,7.258-3.344,11.291-2.494c0.697-7.146-0.822-17.734,2.781-21.873   c1.402-1.61,3.223-2.808,6.133-2.965c13.02-0.699,20.551,14.941,13.283,28.084c-2.448,4.813-7.732,8.691-11.029,10.766   c-0.055,3.089-1.127,6.093-3.086,8.533C66.605,63.246,76.667,67.635,78.284,72.967z M56.621,37.6   c3.357,1.791,5.76,4.832,6.823,8.324c2.067-1.362,5.86-4.241,8.22-8.322c7.175-13.874-3.283-23.495-9.656-22.292   c-1.989,0.106-2.769,0.814-3.225,1.419C55.953,20.506,57.416,31.426,56.621,37.6z M38.544,41.858   c-2.392-0.827-6.843-2.025-11.383-1.466c-15.395,2.64-16.766,16.784-11.964,21.143c1.284,1.523,2.319,1.719,3.076,1.719   c4.699-0.021,12.485-7.707,17.888-10.82C35.403,48.165,36.717,44.426,38.544,41.858z M59.588,53.334   c1.838-5.287-0.969-11.083-6.255-12.921c-5.287-1.838-11.083,0.969-12.921,6.255c-1.838,5.286,0.968,11.083,6.255,12.92   C51.953,61.426,57.75,58.619,59.588,53.334z M74.634,74.357c-1.694-4.395-11.692-8.947-16.513-12.895   c-3.027,2.139-6.859,3.064-10.66,2.363c0.149,2.623,0.715,6.713,2.646,10.361c7.946,13.447,21.652,9.695,24.018,3.656   C75.09,76.102,74.903,75.064,74.634,74.357z M80.071,41.002c1.864,7.439,1.485,15.169-1.095,22.353l1.986,0.715   c2.723-7.58,3.123-15.734,1.156-23.582L80.071,41.002z"></path></g></svg>