<svg fill="#333333" xmlns="http://www.w3.org/2000/svg" xmlns:xlink="http://www.w3.org/1999/xlink" version="1.1" x="0px" y="0px" viewBox="0 0 60 46.05" enable-background="new 0 0 60 46.05" xml:space="preserve"><g><path d="M45.16,11.66c1.07,0,2.07-0.42,2.83-1.17c1.56-1.56,1.56-4.1,0-5.66c-1.51-1.51-4.15-1.51-5.66,0   c-0.76,0.76-1.17,1.76-1.17,2.83c0,1.07,0.42,2.07,1.17,2.83C43.09,11.25,44.1,11.66,45.16,11.66z M43.75,6.25   c0.38-0.38,0.88-0.58,1.42-0.58c0.53,0,1.04,0.21,1.41,0.58c0.78,0.78,0.78,2.05,0,2.83c-0.76,0.75-2.07,0.75-2.83,0   c-0.38-0.38-0.59-0.88-0.59-1.42C43.16,7.13,43.37,6.63,43.75,6.25z"></path><path d="M33.76,23.06c1.07,0,2.07-0.42,2.83-1.17c0.76-0.76,1.17-1.76,1.17-2.83c0-1.07-0.42-2.07-1.17-2.83   c-1.51-1.51-4.14-1.51-5.66,0c-0.76,0.76-1.17,1.76-1.17,2.83c0,1.07,0.42,2.07,1.17,2.83C31.69,22.65,32.7,23.06,33.76,23.06z    M32.35,17.65c0.38-0.38,0.88-0.58,1.41-0.58s1.04,0.21,1.41,0.58c0.38,0.38,0.59,0.88,0.59,1.42c0,0.53-0.21,1.04-0.59,1.41   c-0.76,0.75-2.07,0.75-2.83,0c-0.38-0.38-0.59-0.88-0.59-1.41C31.76,18.53,31.97,18.03,32.35,17.65z"></path><path d="M36.68,14.74c0.2,0.2,0.45,0.29,0.71,0.29s0.51-0.1,0.71-0.29l2.83-2.83c0.39-0.39,0.39-1.02,0-1.41l-0.71-0.71   c-0.39-0.39-1.02-0.39-1.41,0c-0.39,0.39-0.39,1.02,0,1.41l-1.41,1.41l0,0c-0.39-0.39-1.02-0.39-1.41,0s-0.39,1.02,0,1.41   L36.68,14.74z"></path><path d="M58.98,37.88c-0.02-0.11-0.05-0.21-0.1-0.31c-0.01-0.02-0.03-0.04-0.04-0.06c-0.04-0.06-0.08-0.12-0.13-0.18l-2.29-2.29H59   c0.29,0,0.57-0.13,0.76-0.34c0.19-0.22,0.28-0.51,0.23-0.8l-1-7c0-0.02-0.01-0.04-0.02-0.05c-0.02-0.09-0.05-0.19-0.09-0.27   c-0.02-0.04-0.06-0.08-0.08-0.11c-0.04-0.05-0.08-0.11-0.13-0.16c-0.04-0.04-0.09-0.06-0.13-0.09c-0.04-0.03-0.08-0.07-0.13-0.09   l-9-4c-0.13-0.06-0.27-0.09-0.41-0.09h-7.57c-0.07-0.21-0.14-0.4-0.2-0.56l6.29-6.29l4.06,1.47c0.63,0.32,1.33,0.49,2.04,0.49   c1.19,0,2.3-0.46,3.14-1.3c1.73-1.73,1.73-4.55-0.05-6.33L53.58,6.8c-0.95-0.83-1.04-0.99-1.28-1.4c-0.17-0.31-0.41-0.73-0.95-1.47   c-0.67-0.92-2.66-2.77-3.85-3.33c-2.54-1.19-5.78-0.54-7.8,1.55c-0.33,0.34-0.65,0.8-0.97,1.41c-0.99,1.88-2.25,3.59-3.74,5.08   c-1.43,1.43-3.13,2.68-5.05,3.72c-0.61,0.33-1.21,0.78-1.78,1.33c-2.14,2.08-2.76,5.22-1.55,7.81c0.08,0.17,0.19,0.36,0.32,0.56H11   c-0.14,0-0.28,0.03-0.41,0.09l-9,4c-0.05,0.02-0.09,0.06-0.13,0.09c-0.05,0.03-0.09,0.05-0.13,0.09c-0.05,0.05-0.09,0.1-0.13,0.16   c-0.03,0.04-0.06,0.07-0.08,0.11c-0.04,0.08-0.07,0.18-0.09,0.27c0,0.02-0.02,0.04-0.02,0.06l-1,7c-0.04,0.29,0.04,0.58,0.23,0.8   c0.19,0.22,0.47,0.34,0.76,0.34h2.59l-2.29,2.29c-0.05,0.05-0.09,0.11-0.13,0.18c-0.01,0.02-0.03,0.04-0.04,0.06   c-0.05,0.1-0.09,0.2-0.1,0.31c0,0.01-0.01,0.01-0.01,0.02l-1,7c-0.04,0.29,0.04,0.58,0.23,0.8c0.19,0.22,0.47,0.34,0.76,0.34h58   c0.29,0,0.57-0.13,0.76-0.34c0.19-0.22,0.28-0.51,0.23-0.8l-1-7C58.99,37.9,58.98,37.89,58.98,37.88z M54,33.05H19v-5h14.24   l2.35,2.7c0.84,0.84,1.96,1.3,3.14,1.3c1.19,0,2.3-0.46,3.14-1.3c0.18-0.18,0.34-0.38,0.49-0.58c0.01-0.02,0.02-0.04,0.03-0.06   c0.13-0.19,0.25-0.39,0.35-0.6c0-0.01,0.01-0.02,0.01-0.02c0.1-0.22,0.19-0.45,0.25-0.68c0-0.01,0-0.02,0.01-0.03   c0.06-0.23,0.11-0.46,0.13-0.69c0-0.01,0-0.02,0.01-0.03h13.97l0.71,5H54z M48.79,24.05l4.5,2H42.9c-0.06-0.16-0.13-0.33-0.21-0.48   l-0.54-1.52H48.79z M29.56,15.11c0.44-0.42,0.89-0.76,1.34-1.01c2.09-1.13,3.94-2.49,5.51-4.06c1.63-1.63,3.01-3.5,4.09-5.56   c0.28-0.53,0.5-0.81,0.63-0.95c0.96-0.99,2.28-1.56,3.61-1.56c0.67,0,1.32,0.14,1.92,0.42c0.84,0.39,2.58,2.01,3.08,2.7   c0.47,0.64,0.66,0.99,0.82,1.27c0.34,0.6,0.54,0.92,1.7,1.93l3.09,2.69c0.95,0.95,0.95,2.5,0,3.46c-0.75,0.75-1.96,0.93-2.89,0.42   l-5.45-1.98l-7.63,7.63l-0.11,0.13c-0.24,0.34-0.3,0.43,0.51,2.71c0,0.01,0,0.01,0.01,0.02l0.17,0.49   c0.23,0.65,0.52,1.45,0.87,2.44l0.06,0.14c0.01,0.02,0.02,0.04,0.03,0.06c0.11,0.22,0.19,0.45,0.23,0.7   c0.03,0.19,0.04,0.38,0.02,0.57c0,0.01,0,0.02,0,0.03c-0.03,0.36-0.14,0.72-0.33,1.03c-0.02,0.03-0.03,0.05-0.05,0.08   c-0.09,0.15-0.2,0.29-0.33,0.42c-0.92,0.92-2.58,0.87-3.41,0.05l-2.61-2.99l-0.13-0.15c-1.02-1.17-1.33-1.37-1.93-1.71   c-0.28-0.16-0.63-0.35-1.27-0.82c-0.07-0.05-0.17-0.13-0.26-0.21c-0.08-0.07-0.16-0.15-0.25-0.23c-0.02-0.02-0.05-0.04-0.07-0.07   c-0.1-0.1-0.21-0.21-0.33-0.32c-0.02-0.02-0.04-0.04-0.06-0.06c-0.12-0.13-0.25-0.27-0.39-0.41c-0.58-0.63-1.13-1.33-1.34-1.77   C27.57,18.82,28.03,16.6,29.56,15.11z M28.83,24.33c0.06,0.06,0.12,0.12,0.18,0.18c0.07,0.07,0.13,0.13,0.2,0.19   c0.09,0.08,0.17,0.16,0.25,0.23c0.04,0.04,0.09,0.08,0.13,0.12c0.13,0.11,0.24,0.2,0.35,0.28c0.21,0.15,0.39,0.28,0.56,0.39   c0.06,0.04,0.11,0.07,0.16,0.1c0.11,0.07,0.21,0.14,0.3,0.19c0.01,0.01,0.03,0.02,0.05,0.03H20.41l2-2h6.14   C28.64,24.15,28.74,24.24,28.83,24.33z M11.21,24.05h8.37l-2,2H6.71L11.21,24.05z M2.87,28.05H17v5H6H2.15L2.87,28.05z    M53.59,35.05l2,2H4.41l2-2H53.59z M2.87,39.05H17v5H2.15L2.87,39.05z M19,44.05v-5h38.13l0.71,5H19z"></path><path d="M46,29.05c-0.55,0-1,0.45-1,1v1c0,0.55,0.45,1,1,1s1-0.45,1-1v-1C47,29.49,46.55,29.05,46,29.05z"></path><path d="M49,29.05c-0.55,0-1,0.45-1,1v1c0,0.55,0.45,1,1,1s1-0.45,1-1v-1C50,29.49,49.55,29.05,49,29.05z"></path><path d="M52,29.05c-0.55,0-1,0.45-1,1v1c0,0.55,0.45,1,1,1s1-0.45,1-1v-1C53,29.49,52.55,29.05,52,29.05z"></path></g></svg>