<svg fill="#333333" xmlns="http://www.w3.org/2000/svg" xmlns:xlink="http://www.w3.org/1999/xlink" version="1.1" x="0px" y="0px" viewBox="0 0 100 100" enable-background="new 0 0 100 100" xml:space="preserve"><path d="M90,77H10c-0.552,0-1-0.447-1-1V56c0-0.553,0.448-1,1-1h80c0.553,0,1,0.447,1,1v20C91,76.553,90.553,77,90,77z M11,75h78V57  H11V75z"></path><path d="M70,67H30c-0.552,0-1-0.447-1-1v-5c0-0.553,0.448-1,1-1h40c0.553,0,1,0.447,1,1v5C71,66.553,70.553,67,70,67z M31,65h38v-3  H31V65z"></path><path d="M80,72c-3.309,0-6-2.691-6-6s2.691-6,6-6s6,2.691,6,6S83.309,72,80,72z M80,62c-2.206,0-4,1.794-4,4s1.794,4,4,4  s4-1.794,4-4S82.206,62,80,62z"></path><path d="M20,72c-3.309,0-6-2.691-6-6s2.691-6,6-6s6,2.691,6,6S23.309,72,20,72z M20,62c-2.206,0-4,1.794-4,4s1.794,4,4,4  s4-1.794,4-4S22.206,62,20,62z"></path><path d="M90,53H10c-0.552,0-1-0.447-1-1V38c0-0.552,0.448-1,1-1h80c0.553,0,1,0.448,1,1v14C91,52.553,90.553,53,90,53z M11,51h78V39  H11V51z"></path><path d="M70,46H30c-0.552,0-1-0.448-1-1s0.448-1,1-1h40c0.553,0,1,0.448,1,1S70.553,46,70,46z"></path><path d="M90,35H10c-0.552,0-1-0.448-1-1V20c0-0.552,0.448-1,1-1h80c0.553,0,1,0.448,1,1v14C91,34.552,90.553,35,90,35z M11,33h78V21  H11V33z"></path><path d="M85,29H15c-0.552,0-1-0.448-1-1s0.448-1,1-1h70c0.553,0,1,0.448,1,1S85.553,29,85,29z"></path><path d="M84,81h-8c-0.553,0-1-0.447-1-1s0.447-1,1-1h8c0.553,0,1,0.447,1,1S84.553,81,84,81z"></path><path d="M24,81h-8c-0.552,0-1-0.447-1-1s0.448-1,1-1h8c0.552,0,1,0.447,1,1S24.552,81,24,81z"></path></svg>