<svg fill="#333333" xmlns="http://www.w3.org/2000/svg" xmlns:xlink="http://www.w3.org/1999/xlink" version="1.1" x="0px" y="0px" viewBox="0 0 100 100" enable-background="new 0 0 100 100" xml:space="preserve"><path d="M69.5,44.869c-0.173,0-0.327,0.055-0.469,0.132H59.5V25.047c0.069-0.803-0.165-1.546-0.662-2.097  C58.285,22.338,57.455,22,56.5,22h-26c-1.794,0-3,1.206-3,3v50c0,1.794,1.206,2.999,3,2.999h26c0.956,0,1.786-0.337,2.339-0.95  c0.496-0.55,0.73-1.293,0.661-2.096v-0.096C59.646,74.94,59.805,75,59.984,75H69.5c1.206,0,3-0.799,3-3V48  C72.5,46.742,71.701,44.869,69.5,44.869z M57.354,75.71C57.188,75.894,56.877,76,56.5,76h-26c-0.691,0-1-0.308-1-0.999V41.014h28  v16.014c-0.064,0.143-0.109,0.294-0.109,0.457v12c0,0.163,0.045,0.314,0.109,0.457V75c0,0.034,0.002,0.068,0.005,0.103  C57.532,75.365,57.481,75.569,57.354,75.71z M57.5,25v14.014h-28V25c0-0.691,0.309-1,1-1h26c0.376,0,0.688,0.105,0.854,0.29  c0.128,0.142,0.179,0.346,0.151,0.607C57.502,24.932,57.5,24.966,57.5,25z M70.5,72c0,0.805-0.55,0.988-1,1h-9.516  c-0.18,0-0.339,0.06-0.484,0.143v-2.185c0.496,0.101,1.002,0.152,1.516,0.152c4.204,0,7.625-3.421,7.625-7.626  c0-4.204-3.421-7.624-7.625-7.624c-0.514,0-1.02,0.051-1.516,0.152V53h11V72z M59.641,68.682V58.288  c0.446-0.119,0.906-0.178,1.375-0.178c2.964,0,5.375,2.411,5.375,5.374c0,2.964-2.411,5.376-5.375,5.376  C60.547,68.86,60.087,68.8,59.641,68.682z M70.5,51h-11v-4h10.304c0.057,0,0.106-0.023,0.16-0.032  c0.438,0.208,0.529,0.708,0.536,1.032V51z M32.5,43c-0.553,0-1,0.448-1,1v9c0,0.552,0.447,1,1,1s1-0.448,1-1v-9  C33.5,43.448,33.053,43,32.5,43z M32.5,26c-0.553,0-1,0.448-1,1v9c0,0.552,0.447,1,1,1s1-0.448,1-1v-9  C33.5,26.448,33.053,26,32.5,26z"></path></svg>