<svg fill="#333333" xmlns="http://www.w3.org/2000/svg" xmlns:xlink="http://www.w3.org/1999/xlink" version="1.1" x="0px" y="0px" viewBox="0 0 100 100" enable-background="new 0 0 100 100" xml:space="preserve"><g><rect x="17.352" y="66.69" width="65.675" height="1.245"></rect></g><g><rect x="23.72" y="45.708" width="1.245" height="5.103"></rect></g><g><rect x="27.284" y="45.708" width="1.245" height="5.103"></rect></g><g><rect x="30.848" y="45.708" width="1.245" height="5.103"></rect></g><g><path d="M71.124,50.308L71.124,50.308c-0.547-0.001-1.062-0.214-1.45-0.602c-0.387-0.387-0.601-0.902-0.6-1.45   c0-0.547,0.213-1.062,0.6-1.447c0.773-0.773,2.125-0.773,2.898,0c0.799,0.8,0.799,2.1,0,2.899   C72.185,50.096,71.67,50.308,71.124,50.308z M71.123,47.456c-0.215,0-0.417,0.083-0.569,0.235   c-0.151,0.152-0.234,0.353-0.234,0.566c-0.001,0.215,0.083,0.417,0.234,0.569c0.152,0.152,0.355,0.236,0.57,0.237l0,0   c0.216,0,0.417-0.084,0.569-0.236c0.312-0.312,0.312-0.823-0.001-1.137C71.54,47.539,71.339,47.456,71.123,47.456z"></path></g><g><circle cx="49.911" cy="67.314" r="1.912"></circle><path d="M49.911,69.85L49.911,69.85c-0.678-0.001-1.315-0.265-1.794-0.744c-0.987-0.988-0.987-2.596,0.001-3.583   c0.959-0.956,2.628-0.957,3.585,0.001c0.986,0.989,0.985,2.597-0.002,3.584C51.223,69.586,50.587,69.85,49.911,69.85z    M49.91,66.025c-0.345,0-0.668,0.134-0.912,0.377c-0.502,0.502-0.502,1.32,0,1.823c0.487,0.487,1.336,0.487,1.824,0.002   c0.501-0.502,0.502-1.321,0-1.825C50.579,66.16,50.255,66.025,49.91,66.025z"></path></g><g><path d="M84.015,56.902H16.363V38.566h67.652V56.902z M17.608,55.657H82.77V39.812H17.608V55.657z"></path></g><g><rect x="49.287" y="56.279" width="1.245" height="9.683"></rect></g><g><path d="M59.05,30.226c-1.917-2.854-5.11-4.558-8.542-4.558c-3.34,0-6.485,1.639-8.415,4.385l-1.019-0.716   c2.162-3.077,5.688-4.914,9.434-4.914c3.848,0,7.428,1.91,9.576,5.109L59.05,30.226z"></path></g><g><path d="M62.99,28.325c-2.821-4.136-7.487-6.605-12.482-6.605c-4.9,0-9.518,2.404-12.349,6.431l-1.019-0.716   c3.065-4.358,8.063-6.959,13.368-6.959c5.407,0,10.457,2.673,13.511,7.149L62.99,28.325z"></path></g><g><path d="M55.978,32.382c-1.216-1.856-3.26-2.964-5.47-2.964c-2.124,0-4.125,1.043-5.351,2.791l-1.019-0.715   c1.458-2.08,3.839-3.321,6.369-3.321c2.631,0,5.064,1.319,6.511,3.527L55.978,32.382z"></path></g><g><path d="M59.05,30.226c-1.917-2.854-5.11-4.558-8.542-4.558c-3.34,0-6.485,1.639-8.415,4.385l-1.019-0.716   c2.162-3.077,5.688-4.914,9.434-4.914c3.848,0,7.428,1.91,9.576,5.109L59.05,30.226z"></path></g><g><path d="M55.978,32.382c-1.216-1.856-3.26-2.964-5.47-2.964c-2.124,0-4.125,1.043-5.351,2.791l-1.019-0.715   c1.458-2.08,3.839-3.321,6.369-3.321c2.631,0,5.064,1.319,6.511,3.527L55.978,32.382z"></path></g><g><path d="M53.095,34.387c-0.56-0.92-1.527-1.469-2.587-1.469c-0.988,0-1.918,0.488-2.488,1.305l-1.021-0.711   c0.803-1.151,2.114-1.839,3.51-1.839c1.498,0,2.862,0.772,3.649,2.067L53.095,34.387z"></path></g><g><path d="M53.095,34.387c-0.56-0.92-1.527-1.469-2.587-1.469c-0.988,0-1.918,0.488-2.488,1.305l-1.021-0.711   c0.803-1.151,2.114-1.839,3.51-1.839c1.498,0,2.862,0.772,3.649,2.067L53.095,34.387z"></path></g><g><path stroke="#333333" d="M50.706,37.364" fill="#333333"></path></g></svg>