<svg fill="#333333" xmlns="http://www.w3.org/2000/svg" xmlns:xlink="http://www.w3.org/1999/xlink" version="1.1" x="0px" y="0px" viewBox="0 0 64 64" enable-background="new 0 0 64 64" xml:space="preserve"><g><g><path fill="none" stroke="#333333" stroke-width="2" stroke-miterlimit="10" d="M52,61H12V22.8C12,11.9,20.9,3,31.8,3h0.4    C43.1,3,52,11.9,52,22.8V61z"></path><path fill="none" stroke="#333333" stroke-width="2" stroke-miterlimit="10" d="M44,61H20V24.9C20,18.3,25.3,13,31.9,13h0.2    C38.7,13,44,18.3,44,24.9V61z"></path><line fill="none" stroke="#333333" stroke-width="2" stroke-miterlimit="10" x1="12" y1="28" x2="20" y2="28"></line><line fill="none" stroke="#333333" stroke-width="2" stroke-miterlimit="10" x1="12" y1="36" x2="20" y2="36"></line><line fill="none" stroke="#333333" stroke-width="2" stroke-miterlimit="10" x1="44" y1="28" x2="52" y2="28"></line><line fill="none" stroke="#333333" stroke-width="2" stroke-miterlimit="10" x1="44" y1="36" x2="52" y2="36"></line><line fill="none" stroke="#333333" stroke-width="2" stroke-miterlimit="10" x1="26" y1="24" x2="38" y2="24"></line><line fill="none" stroke="#333333" stroke-width="2" stroke-miterlimit="10" x1="26" y1="29" x2="38" y2="29"></line><line fill="none" stroke="#333333" stroke-width="2" stroke-miterlimit="10" x1="26" y1="34" x2="38" y2="34"></line><circle fill="none" stroke="#333333" stroke-width="2" stroke-miterlimit="10" cx="32" cy="48" r="7"></circle></g></g></svg>