<svg fill="#333333" xmlns="http://www.w3.org/2000/svg" xmlns:xlink="http://www.w3.org/1999/xlink" version="1.1" x="0px" y="0px" viewBox="0 0 100 100" enable-background="new 0 0 100 100" xml:space="preserve"><g><path d="M91.635,28.13L47.67,2.747c-0.364-0.21-0.774-0.321-1.188-0.321c-1.172,0-2.162,0.838-2.354,1.994l-6.323,38.008   c-0.003,0.015,0.007,0.029,0.006,0.044c-0.28,0.043-0.556,0.119-0.808,0.265L6.06,60.602c-0.515,0.297-0.822,0.829-0.824,1.423   c0,0.002-0.001,0.004-0.001,0.006v3.2c0,0.091,0.037,0.172,0.091,0.236c0.125,0.383,0.376,0.705,0.734,0.911l45.423,26.225   c0.839,0.485,1.779,0.727,2.72,0.727c0.94,0,1.881-0.242,2.719-0.727l29.746-17.174c0.442-0.255,0.706-0.712,0.706-1.223v-2.918   c0,0,0-0.001,0-0.001c0-0.465-0.227-0.877-0.6-1.141c0.46-0.224,0.804-0.654,0.893-1.19l6.056-36.405   C94.015,30.796,93.175,29.019,91.635,28.13z M6.428,61.238l30.944-17.865c0.491-0.283,1.102-0.283,1.593,0   c0.001,0,0.001,0,0.002,0.001l45.98,26.547c0,0,0,0,0.001,0l1.351,0.78c0,0,0,0,0.001,0.001c0.212,0.123,0.339,0.343,0.339,0.587   c0,0.245-0.127,0.464-0.339,0.587l-30.448,17.58c-1.017,0.587-2.281,0.587-3.299,0L32.905,78.111l-0.25-0.487   c-0.241-0.469-0.61-0.857-1.067-1.121l-4.204-2.427c-0.421-0.244-0.908-0.388-1.384-0.367l-0.711,0.004L6.428,62.823   c-0.286-0.165-0.457-0.461-0.457-0.791C5.97,61.701,6.141,61.404,6.428,61.238z M32.002,77.962   c-0.503-0.057-0.995-0.211-1.435-0.465l-4.074-2.352c-0.291-0.168-0.515-0.415-0.687-0.699l0.199-0.001   c0.337-0.004,0.704,0.09,1.012,0.268l4.204,2.427c0.335,0.194,0.604,0.477,0.781,0.821L32.002,77.962z M86.3,74.793L56.554,91.967   c-1.45,0.838-3.253,0.837-4.703,0L6.427,65.741c-0.225-0.129-0.38-0.339-0.435-0.59c-0.004-0.019-0.016-0.033-0.022-0.05v-1.71   c0.032,0.021,0.057,0.049,0.09,0.069l18.849,10.883l0.121,0.255c0.238,0.498,0.616,0.908,1.095,1.183l4.074,2.352   c0.609,0.352,1.3,0.555,2,0.588l0.321,0.016l19.665,11.354c0.622,0.36,1.32,0.539,2.017,0.539c0.698,0,1.395-0.18,2.017-0.539   l30.419-17.563v1.678C86.639,74.451,86.512,74.67,86.3,74.793z M92.998,32.431l-6.056,36.405c-0.115,0.691-0.85,0.897-1.322,0.624   L38.573,42.297L44.854,4.54c0.133-0.799,0.818-1.379,1.628-1.379c0.289,0,0.565,0.075,0.82,0.222l43.964,25.383   C92.544,29.504,93.239,30.976,92.998,32.431z"></path><path d="M90.7,32.106c-0.006-0.014-0.011-0.025-0.019-0.038c-0.031-0.057-0.072-0.11-0.133-0.145L47.085,6.83   c-0.049-0.029-0.103-0.042-0.156-0.046c-0.015-0.001-0.03,0.002-0.045,0.003c-0.04,0.002-0.077,0.009-0.114,0.023   c-0.008,0.003-0.017,0.001-0.025,0.005c-0.009,0.004-0.014,0.013-0.022,0.018c-0.032,0.018-0.059,0.041-0.085,0.068   c-0.013,0.014-0.027,0.026-0.037,0.042c-0.005,0.007-0.013,0.012-0.017,0.02c-0.017,0.029-0.022,0.06-0.031,0.091   c-0.003,0.011-0.012,0.02-0.014,0.031l-5.763,33.997c0,0.003,0.001,0.005,0,0.008c-0.004,0.029,0,0.057,0.003,0.086   c0.002,0.019-0.001,0.039,0.004,0.057c0.006,0.023,0.019,0.043,0.029,0.065c0.01,0.021,0.017,0.043,0.03,0.062   c0.01,0.014,0.026,0.024,0.039,0.037c0.021,0.022,0.042,0.044,0.068,0.06c0.002,0.001,0.003,0.003,0.005,0.004l43.448,25.085   c0,0,0.001,0.001,0.001,0.001l0.013,0.007c0.007,0.004,0.015,0.002,0.022,0.006c0.032,0.016,0.064,0.032,0.1,0.039   c0.02,0.004,0.041,0.005,0.061,0.005c0,0,0,0,0,0c0,0,0,0,0,0c0,0,0,0,0.001,0c0.058,0,0.111-0.018,0.161-0.043   c0.012-0.006,0.023-0.013,0.035-0.02c0.049-0.031,0.092-0.07,0.122-0.121c0,0,0,0,0,0c0.001-0.001,0.001-0.003,0.001-0.004   c0.02-0.036,0.035-0.075,0.043-0.118l5.763-33.997c0-0.002-0.001-0.004-0.001-0.007C90.736,32.231,90.724,32.166,90.7,32.106z    M84.327,65.655L41.544,40.955l5.632-33.223l42.783,24.7L84.327,65.655z"></path><path d="M25.613,69.966l13.735,7.93c0.202,0.117,0.433,0.179,0.667,0.179s0.464-0.062,0.667-0.179l8.477-4.894   c0.206-0.12,0.33-0.334,0.33-0.572c0-0.239-0.124-0.453-0.331-0.573l-13.736-7.931c-0.405-0.233-0.928-0.233-1.333,0.001   l-8.476,4.893c-0.207,0.119-0.331,0.333-0.331,0.572C25.282,69.631,25.405,69.846,25.613,69.966z M34.456,64.563   c0.182-0.106,0.417-0.105,0.599-0.001l13.625,7.866l-8.366,4.831c-0.182,0.103-0.416,0.103-0.598,0l-13.625-7.867L34.456,64.563z"></path><path d="M26.816,56.564c0.005,0.025,0.014,0.048,0.024,0.071c0.006,0.014,0.007,0.03,0.015,0.043   c0.003,0.005,0.009,0.007,0.013,0.013c0.031,0.048,0.069,0.091,0.122,0.122l0.002,0.001c0,0,0.001,0,0.001,0.001L32.51,60   c0.001,0,0.001,0.001,0.002,0.001l2.758,1.592c0,0,0,0,0,0l16.552,9.556c0.001,0.001,0.003,0.002,0.004,0.002l2.756,1.591   c0.001,0,0.002,0.001,0.003,0.001l2.757,1.592c0,0,0,0,0.001,0l2.757,1.592c0.001,0.001,0.002,0.001,0.003,0.002l2.755,1.59   c0,0,0.001,0,0.001,0c0.047,0.027,0.101,0.038,0.155,0.042c0.009,0.001,0.018,0.007,0.027,0.007c0,0,0,0,0,0s0,0,0,0   c0.009,0,0.018-0.007,0.027-0.007c0.054-0.004,0.108-0.015,0.155-0.042c0,0,0.001,0,0.001,0l2.733-1.578c0,0,0.001,0,0.001-0.001   l0.002-0.001l2.733-1.578c0,0,0.001,0,0.001-0.001l0.002-0.001l2.733-1.578c0,0,0.001,0,0.001-0.001l0.002-0.001l2.733-1.578   c0,0,0.001,0,0.001-0.001l0.002-0.001l2.733-1.578c0,0,0.001,0,0.001-0.001l0.002-0.001c0.053-0.03,0.091-0.074,0.122-0.122   c0.003-0.005,0.01-0.007,0.013-0.013c0.008-0.014,0.009-0.029,0.015-0.043c0.01-0.024,0.019-0.046,0.024-0.071   c0.005-0.023,0.005-0.046,0.005-0.069c0-0.023,0-0.046-0.005-0.069c-0.005-0.025-0.014-0.048-0.024-0.071   c-0.006-0.014-0.007-0.03-0.015-0.043c-0.004-0.007-0.011-0.01-0.015-0.017c-0.013-0.02-0.03-0.036-0.047-0.053   c-0.019-0.019-0.036-0.037-0.058-0.051c-0.006-0.004-0.009-0.01-0.015-0.013L41.041,48.276c-0.013-0.008-0.028-0.008-0.042-0.014   c-0.024-0.01-0.047-0.02-0.073-0.025c-0.023-0.005-0.046-0.005-0.069-0.005c-0.023,0-0.046,0-0.069,0.005   c-0.026,0.005-0.049,0.015-0.073,0.025c-0.014,0.006-0.028,0.006-0.041,0.014l-2.737,1.58l-2.737,1.58l-2.737,1.58l-2.737,1.58   l-2.737,1.58c-0.006,0.004-0.01,0.01-0.015,0.014c-0.021,0.014-0.039,0.032-0.057,0.05c-0.017,0.017-0.034,0.034-0.047,0.054   c-0.004,0.006-0.011,0.01-0.015,0.017c-0.008,0.014-0.009,0.029-0.015,0.043c-0.01,0.024-0.019,0.046-0.024,0.071   c-0.005,0.023-0.005,0.046-0.005,0.069C26.811,56.518,26.812,56.541,26.816,56.564z M40.857,49.019l2.024,1.169l-2.002,1.156   l-2.024-1.169L40.857,49.019z M45.641,51.78l-2.002,1.156l-2.024-1.169l2.002-1.156L45.641,51.78z M48.399,53.373l-2.002,1.156   l-2.024-1.169l2.002-1.156L48.399,53.373z M51.159,54.966l-2.002,1.156l-2.024-1.168l2.002-1.156L51.159,54.966z M53.917,56.559   l-2.002,1.156l-2.024-1.169l2.002-1.156L53.917,56.559z M56.676,58.152l-2.002,1.156l-2.024-1.169l2.002-1.156L56.676,58.152z    M59.435,59.745L57.433,60.9l-2.024-1.169l2.002-1.156L59.435,59.745z M62.194,61.337l-2.002,1.156l-2.024-1.169l2.002-1.156   L62.194,61.337z M64.953,62.93l-2.002,1.156l-2.024-1.169l2.002-1.156L64.953,62.93z M67.712,64.523l-2.002,1.156l-2.024-1.169   l2.002-1.156L67.712,64.523z M70.471,66.116l-2.002,1.156l-2.024-1.169l2.002-1.156L70.471,66.116z M73.23,67.709l-2.002,1.156   l-2.024-1.169l2.002-1.156L73.23,67.709z M75.989,69.302l-2.002,1.156l-2.025-1.169l2.003-1.156L75.989,69.302z M63.04,76.778   l-2.024-1.169l2.002-1.156l2.024,1.169L63.04,76.778z M58.257,74.016l2.002-1.156l2.024,1.169l-2.002,1.156L58.257,74.016z    M55.498,72.424l2.002-1.156l2.024,1.169l-2.002,1.156L55.498,72.424z M52.739,70.831l2.002-1.156l2.024,1.169l-2.002,1.156   L52.739,70.831z M38.944,62.866l2.002-1.156l13.06,7.54l-2.002,1.156L38.944,62.866z M36.185,61.273l2.002-1.156l2.024,1.169   l-2.002,1.156L36.185,61.273z M33.426,59.681l2.002-1.156l2.024,1.169l-2.002,1.156L33.426,59.681z M30.667,58.088l2.002-1.156   l2.024,1.169l-2.002,1.156L30.667,58.088z M38.821,57.323l-2.002,1.156l-2.024-1.169l2.002-1.156L38.821,57.323z M43.457,53.679   c0,0,0.001,0,0.001,0.001l0.556,0.321l-2.002,1.156l-2.024-1.169l2.002-1.156L43.457,53.679z M46.215,55.272   c0.001,0.001,0.002,0.001,0.003,0.002l0.554,0.32l-2.002,1.156l-2.024-1.169l2.002-1.156L46.215,55.272z M48.974,56.865   c0.001,0,0.002,0.001,0.002,0.001l0.555,0.321l-2.002,1.156l-2.024-1.169l2.002-1.156L48.974,56.865z M51.732,58.457   c0.001,0.001,0.003,0.002,0.004,0.003l0.554,0.32l-2.002,1.156l-2.025-1.169l2.002-1.156L51.732,58.457z M54.492,60.051   c0.001,0,0.002,0.001,0.002,0.001l0.555,0.32l-2.002,1.156l-2.024-1.169l2.002-1.156L54.492,60.051z M57.252,61.644   C57.252,61.644,57.252,61.644,57.252,61.644l0.557,0.321l-2.002,1.156l-2.024-1.169l2.002-1.156L57.252,61.644z M60.01,63.237   c0.001,0,0.001,0.001,0.002,0.001l0.555,0.32l-2.002,1.156l-2.024-1.169l2.002-1.156L60.01,63.237z M62.769,64.83   c0,0,0.001,0.001,0.001,0.001l0.556,0.321l-2.002,1.156L59.3,65.138l2.002-1.156L62.769,64.83z M65.528,66.422   c0.001,0.001,0.002,0.001,0.003,0.002l0.555,0.32L64.084,67.9l-2.025-1.169l2.002-1.156L65.528,66.422z M68.287,68.015   c0,0,0.001,0.001,0.001,0.001l0.556,0.321l-2.002,1.156l-2.024-1.169l2.002-1.156L68.287,68.015z M60.994,72.437l2.002-1.156   l2.025,1.169l-2.002,1.156L60.994,72.437z M56.866,70.053l2.002-1.156l1.186,0.685c0.001,0,0.002,0.001,0.003,0.001l2.204,1.272   l-2.002,1.156L56.866,70.053z M54.107,68.461l2.002-1.156l1.187,0.685c0,0,0,0,0,0l0.837,0.483l-2.002,1.156L54.107,68.461z    M40.313,60.496l2.002-1.156l2.024,1.169l-2.002,1.156L40.313,60.496z M37.553,58.903l2.002-1.156l1.187,0.685c0,0,0,0,0,0   l0.837,0.483l-2.002,1.156L37.553,58.903z M44.588,57.493c0.001,0.001,0.002,0.001,0.003,0.002l1.094,0.632l-2.003,1.156   L42.6,58.657c-0.053-0.057-0.118-0.096-0.192-0.111l-0.75-0.433l2.002-1.156L44.588,57.493z M47.348,59.086   c0,0,0.001,0.001,0.001,0.001l1.095,0.632l-2.002,1.156l-1.084-0.626c-0.053-0.056-0.117-0.095-0.19-0.11l-0.75-0.433l2.003-1.156   L47.348,59.086z M50.106,60.678c0.001,0.001,0.002,0.001,0.004,0.002l1.094,0.631l-2.003,1.156l-1.084-0.626   c-0.053-0.056-0.117-0.095-0.19-0.11l-0.75-0.433l2.002-1.156L50.106,60.678z M52.866,62.272c0.001,0,0.001,0.001,0.002,0.001   l1.094,0.632l-2.002,1.156l-1.083-0.625c-0.053-0.057-0.118-0.096-0.192-0.111l-0.749-0.433l2.003-1.156L52.866,62.272z    M55.625,63.865C55.626,63.865,55.626,63.865,55.625,63.865l1.095,0.632l-2.002,1.156l-1.083-0.625   c-0.053-0.057-0.118-0.096-0.191-0.11l-0.749-0.433l2.002-1.156L55.625,63.865z M58.383,65.457   c0.001,0.001,0.002,0.001,0.004,0.002l1.094,0.631l-2.003,1.156l-1.083-0.625c-0.053-0.057-0.119-0.096-0.192-0.111l-0.749-0.432   l2.002-1.156L58.383,65.457z M61.142,67.05c0.001,0,0.001,0.001,0.002,0.001l1.094,0.632l-2.002,1.156l-1.084-0.626   c-0.053-0.056-0.117-0.094-0.189-0.109l-0.751-0.433l2.003-1.156L61.142,67.05z M45.073,60.933l1.186,0.685   c0.001,0,0.001,0.001,0.002,0.001l0.836,0.483l-2.002,1.156l-2.024-1.169L45.073,60.933z M47.832,62.526l1.187,0.685c0,0,0,0,0,0   l0.837,0.483l-2.002,1.156l-2.024-1.169L47.832,62.526z M50.591,64.119l1.187,0.685c0.001,0,0.002,0.001,0.003,0.001l0.835,0.482   l-2.002,1.156l-2.024-1.169L50.591,64.119z M53.35,65.712l1.187,0.685c0,0,0.001,0,0.001,0l0.836,0.483l-2.002,1.156l-2.025-1.169   L53.35,65.712z M60.972,69.264l2.002-1.156l0.927,0.535c0.001,0.001,0.003,0.002,0.004,0.002l1.093,0.631l-2.003,1.156   L60.972,69.264z M42.926,56.533l-2.002,1.156l-1.083-0.625c-0.053-0.056-0.118-0.095-0.191-0.11l-0.75-0.433l2.003-1.156   L42.926,56.533z M65.777,75.198l-2.025-1.169l2.003-1.156l2.024,1.169L65.777,75.198z M68.514,73.618l-4.783-2.762l2.003-1.156   l0.927,0.535c0.001,0.001,0.002,0.001,0.003,0.001l3.853,2.225L68.514,73.618z M71.25,72.038l-3.673-2.121l2.002-1.156l3.673,2.121   L71.25,72.038z M38.12,50.598l2.576,1.488c0.001,0.001,0.002,0.001,0.003,0.002l0.555,0.32l-2.002,1.156l-3.134-1.81L38.12,50.598z    M35.384,52.179l3.687,2.129c0,0,0.001,0.001,0.001,0.001l1.095,0.632l-2.003,1.156l-1.082-0.625   c-0.054-0.057-0.119-0.097-0.193-0.112l-3.508-2.025L35.384,52.179z M32.647,53.759l3.414,1.971l-2.002,1.156l-3.415-1.972   L32.647,53.759z M29.91,55.339l2.025,1.169l-2.003,1.156l-2.024-1.169L29.91,55.339z"></path></g></svg>