<svg fill="#333333" xmlns="http://www.w3.org/2000/svg" viewBox="0 0 100 100" x="0px" y="0px"><path d="M 50,5 C 25.14718,5 5,25.14719 5,50 5,74.85282 25.14718,95 50,95 74.85281,95 95,74.85282 95,50 95,25.14719 74.85281,5 50,5 z m 0,2.25 c 6.31356,0 12.29377,1.38698 17.6875,3.84375 L 56.65625,33.8125 C 54.60437,32.968 52.35649,32.5 50,32.5 c -9.66499,0 -17.5,7.83502 -17.5,17.5 0,2.19151 0.42059,4.28542 1.15625,6.21875 L 10.625,66.65625 C 8.45471,61.53469 7.25,55.91266 7.25,50 7.25,26.38983 26.38981,7.25 50,7.25 z m 19.6875,4.8125 c 5.73775,2.98421 10.71719,7.23322 14.5625,12.375 L 63.59375,39.03125 c -1.37972,-1.70751 -3.04798,-3.16006 -4.96875,-4.25 L 69.6875,12.0625 z M 85.53125,26.25 c 1.08615,1.62238 2.07789,3.32469 2.9375,5.09375 L 65.4375,41.78125 C 65.26518,41.45793 65.06662,41.15458 64.875,40.84375 L 85.53125,26.25 z M 89.375,33.34375 C 91.54529,38.46531 92.75,44.08734 92.75,50 92.75,73.61018 73.61016,92.75 50,92.75 43.68643,92.75 37.70624,91.36302 32.3125,88.90625 L 43.34375,66.1875 C 45.39563,67.032 47.64351,67.5 50,67.5 c 9.66498,0 17.5,-7.83501 17.5,-17.5 0,-2.19151 -0.42059,-4.28542 -1.15625,-6.21875 L 89.375,33.34375 z M 50,34.75 c 8.42234,0 15.25,6.82766 15.25,15.25 0,8.42235 -6.82766,15.25 -15.25,15.25 C 41.57765,65.25 34.75,58.42235 34.75,50 34.75,41.57766 41.57765,34.75 50,34.75 z M 34.5625,58.21875 c 0.17654,0.33122 0.36572,0.65065 0.5625,0.96875 L 14.46875,73.78125 c -1.09194,-1.62889 -2.07407,-3.34808 -2.9375,-5.125 L 34.5625,58.21875 z m 1.84375,2.75 c 1.37971,1.70751 3.04798,3.16006 4.96875,4.25 L 30.3125,87.9375 C 24.57475,84.95329 19.59531,80.70428 15.75,75.5625 L 36.40625,60.96875 z" color="#000"></path><path d="m 50.00393,55.74224 c -3.1727,0 -5.74468,-2.57198 -5.74468,-5.74468 0,-3.1727 2.57198,-5.74468 5.74468,-5.74468 3.1727,0 5.74468,2.57198 5.74468,5.74468 0,3.1727 -2.57198,5.74468 -5.74468,5.74468 z" color="#000"></path></svg>