<svg fill="#333333" xmlns="http://www.w3.org/2000/svg" xmlns:xlink="http://www.w3.org/1999/xlink" version="1.1" x="0px" y="0px" viewBox="0 0 64 64" style="enable-background:new 0 0 64 64;" xml:space="preserve"><g><path d="M58,17H38c-2.757,0-5,2.243-5,5v36c0,2.757,2.243,5,5,5h20c2.757,0,5-2.243,5-5V22C63,19.243,60.757,17,58,17z M38,19h20   c1.654,0,3,1.346,3,3v1H35v-1C35,20.346,36.346,19,38,19z M61,25v28H35V25H61z M58,61H38c-1.654,0-3-1.346-3-3v-3h26v3   C61,59.654,59.654,61,58,61z"></path><rect x="44" y="57" width="8" height="2"></rect><path d="M34,12c0-2.414-1.721-4.434-4-4.899V1h-1c-4.148,0-7.923,2.334-9.794,6H10c-2.757,0-5,2.243-5,5   c0,1.613,0.781,3.034,1.97,3.949L3.132,28.42C1.83,29.521,1,31.165,1,33s0.83,3.479,2.132,4.58L6.646,49H4c-1.654,0-3,1.346-3,3v3   h20v-3c0-1.654-1.346-3-3-3h-3.262l-3.592-11.674C12.286,36.234,13,34.7,13,33s-0.714-3.234-1.854-4.326L14.738,17h4.467   c1.872,3.666,5.646,6,9.794,6h1v-6.101C32.279,16.434,34,14.414,34,12z M7,29c2.206,0,4,1.794,4,4s-1.794,4-4,4s-4-1.794-4-4   S4.794,29,7,29z M19,52v1H3v-1c0-0.552,0.449-1,1-1h14C18.551,51,19,51.448,19,52z M12.646,49H8.738L5.609,38.831   C6.057,38.937,6.521,39,7,39c0.858,0,1.673-0.184,2.412-0.51L12.646,49z M9.412,27.51C8.673,27.184,7.858,27,7,27   c-0.479,0-0.943,0.063-1.391,0.169l3.18-10.335C9.179,16.933,9.58,17,10,17h2.646L9.412,27.51z M28,20.944   c-0.691-0.077-1.358-0.247-2-0.475V17h-2v2.461c-1.397-0.937-2.543-2.253-3.246-3.861L20.492,15H10c-1.654,0-3-1.346-3-3   s1.346-3,3-3h10.492l0.262-0.6C21.457,6.792,22.603,5.476,24,4.539V15h2V3.531c0.642-0.228,1.309-0.398,2-0.475V20.944z M30,14.816   V9.184c1.161,0.414,2,1.514,2,2.816S31.161,14.402,30,14.816z"></path><rect x="36" y="11" width="4" height="2"></rect><rect x="32.778" y="3.222" transform="matrix(0.7071 -0.7071 0.7071 0.7071 7.2011 25.8283)" width="4" height="2"></rect><path d="M48,44c3.309,0,6-2.691,6-6c0-2.385-1.412-4.543-3.597-5.499l-0.802,1.832C51.059,34.971,52,36.41,52,38   c0,2.206-1.794,4-4,4s-4-1.794-4-4c0-1.591,0.942-3.03,2.4-3.668L45.599,32.5C43.413,33.455,42,35.614,42,38   C42,41.309,44.691,44,48,44z"></path><rect x="47" y="29" width="2" height="7"></rect><rect x="47" y="47" width="2" height="2"></rect><rect x="53" y="47" width="2" height="2"></rect><rect x="41" y="47" width="2" height="2"></rect><rect x="6" y="32" width="2" height="2"></rect></g></svg>