<svg fill="#333333" xmlns="http://www.w3.org/2000/svg" xmlns:xlink="http://www.w3.org/1999/xlink" version="1.1" x="0px" y="0px" viewBox="0 0 512 512" enable-background="new 0 0 512 512" xml:space="preserve"><g><path d="M411.7,34.8v32.8H100.3V34.8H2v442.5h98.3v-32.8h311.4v32.8H510V34.8H411.7z M83.9,460.8H18.4V51.2h65.5v16.4v376.9V460.8z    M100.3,428.1V83.9h311.4v344.1H100.3z M493.6,460.8h-65.5v-16.4V67.5V51.2h65.5V460.8z"></path><path d="M256,141.3c-63.3,0-114.7,51.5-114.7,114.7S192.7,370.7,256,370.7S370.7,319.3,370.7,256S319.3,141.3,256,141.3z    M256,354.3c-54.2,0-98.3-44.1-98.3-98.3s44.1-98.3,98.3-98.3s98.3,44.1,98.3,98.3S310.2,354.3,256,354.3z"></path><path d="M231.4,314.5l70.2-58.5l-70.2-58.5V314.5z M247.8,232.5L276,256l-28.2,23.5V232.5z"></path><rect x="43" y="247.8" width="16.4" height="16.4"></rect><rect x="452.6" y="247.8" width="16.4" height="16.4"></rect><rect x="452.6" y="329.7" width="16.4" height="16.4"></rect><rect x="452.6" y="411.7" width="16.4" height="16.4"></rect><rect x="452.6" y="165.9" width="16.4" height="16.4"></rect><rect x="452.6" y="83.9" width="16.4" height="16.4"></rect><rect x="43" y="329.7" width="16.4" height="16.4"></rect><rect x="43" y="411.7" width="16.4" height="16.4"></rect><rect x="43" y="165.9" width="16.4" height="16.4"></rect><rect x="43" y="83.9" width="16.4" height="16.4"></rect></g></svg>