<svg fill="#333333" xmlns="http://www.w3.org/2000/svg" xmlns:xlink="http://www.w3.org/1999/xlink" viewBox="0 0 100 100" version="1.1" x="0px" y="0px"><title>mini disc</title><desc>Created with Sketch.</desc><g stroke="none" stroke-width="1" fill="none" fill-rule="evenodd"><g><g transform="translate(49.500000, 50.500000) rotate(-315.000000) translate(-49.500000, -50.500000) translate(6.000000, 7.000000)" stroke="#333333"><g transform="translate(43.324493, 43.440025) rotate(-295.000000) translate(-43.324493, -43.440025) translate(10.824493, 10.940025)"><g transform="translate(-0.000000, -0.000000)"><ellipse stroke-width="3" cx="32.1537732" cy="32.1537732" rx="32.1537732" ry="32.1537732"></ellipse><circle stroke-width="2" cx="32.0752089" cy="31.2319761" r="7.46551689"></circle></g></g></g><path d="M47,21.5 L47,32 L47,36 L55,36 L55,32 L55,21.5 L55,17.5 L47,17.5 L47,21.5 L47,21.5 Z" fill="#333333"></path><path d="M8,7.99446106 L8,7.99446106 L8,92.0055389 C8,92.0017653 7.99823523,92 7.99446106,92 L92.0055389,92 C92.0017653,92 92,92.0017648 92,92.0055389 L92,7.99446106 C92,7.99823465 92.0017648,8 92.0055389,8 L7.99446106,8 C7.99823465,8 8,7.99823523 8,7.99446106 L8,7.99446106 Z M5,7.99446106 C5,6.34066588 6.34209558,5 7.99446106,5 L92.0055389,5 C93.6593341,5 95,6.34209558 95,7.99446106 L95,92.0055389 C95,93.6593341 93.6579044,95 92.0055389,95 L7.99446106,95 C6.34066588,95 5,93.6579044 5,92.0055389 L5,7.99446106 L5,7.99446106 Z" fill="#333333"></path></g></g></svg>