<svg fill="#333333" xmlns="http://www.w3.org/2000/svg" xmlns:xlink="http://www.w3.org/1999/xlink" version="1.1" x="0px" y="0px" viewBox="0 0 100 100" style="enable-background:new 0 0 100 100;" xml:space="preserve"><path d="M93,2.3H7c-3.9,0-7,3.1-7,7V77c0,3.9,3.1,7,7,7h33.5L39.1,93h-4.2v4.7h30.3V93h-4.2L59.5,84H93c3.9,0,7-3.1,7-7V9.3  C100,5.5,96.9,2.3,93,2.3z M1.9,10.3h96.1v56.5H1.9V10.3z M7,4.3h86c2.5,0,4.5,1.8,5,4.1H2C2.5,6,4.5,4.3,7,4.3z M63.2,95v0.8H36.8  V95h1.9l0,0h22.5l0,0H63.2z M59,93H41l1.5-9.1h15L59,93z M93,82H59.2H40.8H7c-2.8,0-5.1-2.3-5.1-5.1v-8.3h96.1V77  C98.1,79.8,95.8,82,93,82z"></path></svg>