<svg fill="#333333" xmlns="http://www.w3.org/2000/svg" xmlns:xlink="http://www.w3.org/1999/xlink" version="1.1" x="0px" y="0px" viewBox="0 0 100 100" enable-background="new 0 0 100 100" xml:space="preserve"><path d="M81.984,53.197L69.17,55.291c-0.727,0.117-1.258,0.744-1.258,1.48v16.41c0,1.539-1.75,1.783-2.285,1.82  c-1.389,0.09-2.691-0.465-2.795-1.203c-0.045-0.311,0.033-0.432,0.109-0.521c0.457-0.533,1.873-0.799,2.682-0.811  c0.828-0.008,1.494-0.686,1.486-1.514c-0.008-0.824-0.678-1.486-1.5-1.486h-0.014c-0.344,0.002-3.402,0.082-4.926,1.854  c-0.686,0.797-0.965,1.799-0.809,2.9c0.359,2.525,2.994,3.791,5.473,3.791c0.168,0,0.336-0.006,0.504-0.018  c3.035-0.215,5.074-2.148,5.074-4.813V63.33l9.814-1.604v9.361c0,1.561-1.58,1.834-2.26,1.881c-1.381,0.09-2.719-0.506-2.818-1.252  c-0.059-0.451,0.076-0.6,0.141-0.672c0.424-0.469,1.625-0.67,2.389-0.67c0.061,0,0.119,0.004,0.182,0.004  c0.801,0,1.465-0.635,1.498-1.441c0.031-0.828-0.613-1.525-1.441-1.559c-0.326-0.008-3.277-0.078-4.844,1.645  c-0.521,0.572-1.1,1.572-0.896,3.09c0.365,2.734,3.359,4.012,5.99,3.848c3.027-0.201,5.061-2.16,5.061-4.873v-16.41  c0-0.441-0.193-0.859-0.527-1.143C82.863,53.25,82.424,53.129,81.984,53.197z M80.727,58.686l-9.814,1.605v-2.246l9.814-1.604  V58.686z M75.182,44.775v-12.58c0-2.307-1.877-4.183-4.184-4.183H11.471c-2.306,0-4.181,1.876-4.181,4.183v13.021  c0,2.307,1.875,4.183,4.181,4.183h46.837c-0.873,0.735-1.68,1.544-2.424,2.412c-0.014,0-0.025-0.004-0.039-0.004H11.471  c-2.306,0-4.181,1.875-4.181,4.182V69.01c0,2.307,1.875,4.182,4.181,4.182h28.265v12.914c-1.819,0.518-3.253,1.951-3.771,3.771  H21.168c-0.828,0-1.5,0.672-1.5,1.5s0.672,1.5,1.5,1.5h14.796c0.654,2.297,2.768,3.986,5.271,3.986c2.505,0,4.618-1.689,5.272-3.986  h14.794c0.828,0,1.5-0.672,1.5-1.5s-0.672-1.5-1.5-1.5H46.508c-0.519-1.82-1.952-3.254-3.772-3.771V73.191h9.616  c3.098,7.699,10.627,13.154,19.422,13.154c11.545,0,20.936-9.393,20.936-20.936C92.709,55.027,85.107,46.411,75.182,44.775z   M11.471,46.399c-0.651,0-1.181-0.53-1.181-1.183V32.195c0-0.652,0.529-1.183,1.181-1.183h59.527c0.652,0,1.184,0.53,1.184,1.183  v12.298c-0.137-0.003-0.271-0.021-0.408-0.021c-3.205,0-6.232,0.745-8.951,2.037c-0.172-0.069-0.361-0.11-0.561-0.11H11.471z   M43.722,91.377c0,1.371-1.115,2.486-2.486,2.486c-1.37,0-2.485-1.115-2.485-2.486s1.115-2.486,2.485-2.486  C42.607,88.891,43.722,90.006,43.722,91.377z M50.836,65.41c0,1.646,0.211,3.242,0.572,4.781H11.471  c-0.651,0-1.181-0.529-1.181-1.182V55.988c0-0.652,0.529-1.182,1.181-1.182H53.75C51.91,57.92,50.836,61.537,50.836,65.41z   M71.773,83.346c-9.891,0-17.938-8.047-17.938-17.936c0-9.891,8.047-17.938,17.938-17.938S89.709,55.52,89.709,65.41  C89.709,75.299,81.664,83.346,71.773,83.346z M11.471,24.524h59.527c2.307,0,4.184-1.877,4.184-4.184V7.32  c0-2.306-1.877-4.183-4.184-4.183H11.471c-2.306,0-4.181,1.876-4.181,4.183V20.34C7.291,22.647,9.166,24.524,11.471,24.524z   M10.291,7.32c0-0.652,0.529-1.183,1.181-1.183h59.527c0.652,0,1.184,0.53,1.184,1.183V20.34c0,0.653-0.531,1.184-1.184,1.184  H11.471c-0.651,0-1.181-0.531-1.181-1.184V7.32z M16.846,16.181c1.296,0,2.351-1.055,2.351-2.352c0-1.296-1.055-2.351-2.351-2.351  s-2.351,1.055-2.351,2.351C14.496,15.126,15.55,16.181,16.846,16.181z M16.846,13.181c0.358,0,0.649,0.291,0.649,0.648  c0,0.358-0.291,0.649-0.649,0.649s-0.649-0.292-0.649-0.649C16.197,13.472,16.488,13.181,16.846,13.181z M25.16,16.181  c1.297,0,2.352-1.055,2.352-2.352c0-1.296-1.055-2.351-2.352-2.351s-2.352,1.055-2.352,2.351  C22.808,15.126,23.863,16.181,25.16,16.181z M25.16,13.181c0.357,0,0.648,0.291,0.648,0.648c0,0.358-0.291,0.649-0.648,0.649  s-0.648-0.292-0.648-0.649C24.511,13.472,24.802,13.181,25.16,13.181z M33.473,16.181c1.296,0,2.351-1.055,2.351-2.352  c0-1.296-1.055-2.351-2.351-2.351s-2.351,1.055-2.351,2.351C31.123,15.126,32.177,16.181,33.473,16.181z M33.473,13.181  c0.358,0,0.649,0.291,0.649,0.648c0,0.358-0.291,0.649-0.649,0.649s-0.649-0.292-0.649-0.649  C32.824,13.472,33.115,13.181,33.473,13.181z M16.846,36.355c-1.296,0-2.351,1.055-2.351,2.351c0,1.297,1.055,2.352,2.351,2.352  s2.351-1.055,2.351-2.352C19.197,37.41,18.142,36.355,16.846,36.355z M16.846,39.355c-0.358,0-0.649-0.291-0.649-0.649  c0-0.357,0.291-0.648,0.649-0.648s0.649,0.291,0.649,0.648C17.496,39.064,17.205,39.355,16.846,39.355z M25.16,36.355  c-1.297,0-2.352,1.055-2.352,2.351c0,1.297,1.055,2.352,2.352,2.352s2.352-1.055,2.352-2.352  C27.511,37.41,26.457,36.355,25.16,36.355z M25.16,39.355c-0.357,0-0.648-0.291-0.648-0.649c0-0.357,0.291-0.648,0.648-0.648  s0.648,0.291,0.648,0.648C25.808,39.064,25.517,39.355,25.16,39.355z M33.473,36.355c-1.296,0-2.351,1.055-2.351,2.351  c0,1.297,1.055,2.352,2.351,2.352s2.351-1.055,2.351-2.352C35.824,37.41,34.769,36.355,33.473,36.355z M33.473,39.355  c-0.358,0-0.649-0.291-0.649-0.649c0-0.357,0.291-0.648,0.649-0.648s0.649,0.291,0.649,0.648  C34.123,39.064,33.832,39.355,33.473,39.355z M16.846,64.852c1.296,0,2.351-1.055,2.351-2.352s-1.055-2.352-2.351-2.352  s-2.351,1.055-2.351,2.352S15.55,64.852,16.846,64.852z M16.846,61.852c0.358,0,0.649,0.291,0.649,0.648s-0.291,0.648-0.649,0.648  s-0.649-0.291-0.649-0.648S16.488,61.852,16.846,61.852z M25.16,64.852c1.297,0,2.352-1.055,2.352-2.352s-1.055-2.352-2.352-2.352  s-2.352,1.055-2.352,2.352S23.863,64.852,25.16,64.852z M25.16,61.852c0.357,0,0.648,0.291,0.648,0.648s-0.291,0.648-0.648,0.648  s-0.648-0.291-0.648-0.648S24.802,61.852,25.16,61.852z M33.473,64.852c1.296,0,2.351-1.055,2.351-2.352s-1.055-2.352-2.351-2.352  s-2.351,1.055-2.351,2.352S32.177,64.852,33.473,64.852z M33.473,61.852c0.358,0,0.649,0.291,0.649,0.648s-0.291,0.648-0.649,0.648  s-0.649-0.291-0.649-0.648S33.115,61.852,33.473,61.852z"></path></svg>