<svg fill="#333333" xmlns:dc="http://purl.org/dc/elements/1.1/" xmlns:cc="http://creativecommons.org/ns#" xmlns:rdf="http://www.w3.org/1999/02/22-rdf-syntax-ns#" xmlns:svg="http://www.w3.org/2000/svg" xmlns="http://www.w3.org/2000/svg" xmlns:sodipodi="http://sodipodi.sourceforge.net/DTD/sodipodi-0.dtd" xmlns:inkscape="http://www.inkscape.org/namespaces/inkscape" preserveAspectRatio="xMidYMid" viewBox="0 0 59 48" version="1.1" x="0px" y="0px"><defs><style>

      .cls-3 {
        fill: #000000;
      }
    </style></defs><path style="" d="M 5.5 0 C 2.462 0 2.6693057e-019 2.462 0 5.5 L 0 42.5 C 0 45.538 2.462 48 5.5 48 L 53.5 48 C 56.538 48 59 45.538 59 42.5 L 59 5.5 C 59 2.462 56.538 2.6693057e-019 53.5 0 L 5.5 0 z M 5.5 3 L 53.5 3 C 54.881 3 56 4.119 56 5.5 L 56 42.5 C 56 43.881 54.881 45 53.5 45 L 5.5 45 C 4.119 45 3 43.881 3 42.5 L 3 5.5 C 3 4.119 4.119 3 5.5 3 z M 30.28125 6.65625 C 20.96225 6.65625 13.375 14.2435 13.375 23.5625 C 13.375 32.8815 20.96225 40.46875 30.28125 40.46875 C 39.60125 40.46875 47.1875 32.8815 47.1875 23.5625 C 47.1875 14.2435 39.60125 6.65625 30.28125 6.65625 z M 30.28125 9.65625 C 37.94625 9.65625 44.1875 15.8985 44.1875 23.5625 C 44.1875 31.2275 37.94625 37.46875 30.28125 37.46875 C 22.61625 37.46875 16.375 31.2275 16.375 23.5625 C 16.375 15.8985 22.61625 9.65625 30.28125 9.65625 z M 30.09375 12.90625 C 28.13075 12.90625 26.53125 14.4745 26.53125 16.4375 C 26.53125 18.4005 28.13075 20 30.09375 20 C 32.05675 20 33.65625 18.4005 33.65625 16.4375 C 33.65625 14.4745 32.05675 12.90625 30.09375 12.90625 z M 30.09375 27.09375 C 28.13075 27.09375 26.53125 28.69325 26.53125 30.65625 C 26.53125 32.61825 28.13075 34.21875 30.09375 34.21875 C 32.05675 34.21875 33.65625 32.61825 33.65625 30.65625 C 33.65625 28.69325 32.05675 27.09375 30.09375 27.09375 z " fill="#333333" fill-rule="evenodd"></path></svg>