<svg fill="#333333" xmlns:dc="http://purl.org/dc/elements/1.1/" xmlns:cc="http://creativecommons.org/ns#" xmlns:rdf="http://www.w3.org/1999/02/22-rdf-syntax-ns#" xmlns:svg="http://www.w3.org/2000/svg" xmlns="http://www.w3.org/2000/svg" xmlns:sodipodi="http://sodipodi.sourceforge.net/DTD/sodipodi-0.dtd" xmlns:inkscape="http://www.inkscape.org/namespaces/inkscape" version="1.1" x="0px" y="0px" viewBox="0 0 100 100"><g transform="translate(0,-952.36218)"><path style="text-indent:0;text-transform:none;direction:ltr;block-progression:tb;baseline-shift:baseline;color:#000000;enable-background:accumulate;" d="m 49.781252,958.29905 a 2.0002,2.0002 0 0 0 -1.78125,2.03125 l 0,1.71875 -37.875,0 c -2.2543105,0 -4.1250005,1.87224 -4.1250005,4.125 l 0,3.75 c 0,1.53223 0.86336,2.88046 2.125,3.59375 l 0,38.1563 c 0,2.3382 1.8996305,4.2812 4.2500005,4.2812 l 35.625,0 0,11.25 -24.09375,15.4375 a 2.0002,2.0002 0 1 0 2.15625,3.3438 l 21.9375,-14.0313 0,12.3438 a 2.0002,2.0002 0 1 0 4,0 l 0,-12.3438 21.906247,14.0313 a 2.0002,2.0002 0 1 0 2.15625,-3.3438 l -24.062498,-15.4375 0,-11.25 35.593748,0 c 2.35037,0 4.28125,-1.943 4.28125,-4.2812 l 0,-38.1563 c 1.2646,-0.71071 2.125,-2.05378 2.125,-3.59375 l 0,-3.75 c 0,-2.26414 -1.87069,-4.125 -4.125,-4.125 l -37.874998,0 0,-1.71875 a 2.0002,2.0002 0 0 0 -2.03125,-2.03125 2.0002,2.0002 0 0 0 -0.1875,0 z m -39.65625,7.75 79.749997,0 c 0.0857,0 0.125,0.0455 0.125,0.125 l 0,3.75 c 0,0.0795 -0.0507,0.125 -0.125,0.125 l -79.749997,0 c -0.0743,0 -0.125,-0.0341 -0.125,-0.125 l 0,-3.75 c 0,-0.0909 0.0393,-0.125 0.125,-0.125 z m 2,8 75.749997,0 0,37.62505 c 0,0.1656 -0.13162,0.2812 -0.28125,0.2812 l -75.218747,0 c -0.14963,0 -0.25,-0.1156 -0.25,-0.2812 l 0,-37.62505 z" fill="#333333" fill-opacity="1" fill-rule="evenodd" stroke="none" marker="none" visibility="visible" display="inline" overflow="visible"></path><path style="text-indent:0;text-transform:none;direction:ltr;block-progression:tb;baseline-shift:baseline;color:#000000;enable-background:accumulate;" d="m 33.979062,978.6978 a 2.0002,2.0002 0 1 0 0,4 l 32.03188,0 a 2.0002,2.0002 0 1 0 0,-4 l -32.03188,0 z" fill="#333333" fill-opacity="1" fill-rule="evenodd" stroke="none" marker="none" visibility="visible" display="inline" overflow="visible"></path><path style="text-indent:0;text-transform:none;direction:ltr;block-progression:tb;baseline-shift:baseline;color:#000000;enable-background:accumulate;" d="m 24.995002,987.05061 a 2.0002,2.0002 0 1 0 0,3.99997 l 49.999997,0 a 2.0002,2.0002 0 1 0 0,-3.99997 l -49.999998,0 z" fill="#333333" fill-opacity="1" fill-rule="evenodd" stroke="none" marker="none" visibility="visible" display="inline" overflow="visible"></path></g></svg>