<svg fill="#333333" xmlns:dc="http://purl.org/dc/elements/1.1/" xmlns:cc="http://creativecommons.org/ns#" xmlns:rdf="http://www.w3.org/1999/02/22-rdf-syntax-ns#" xmlns:svg="http://www.w3.org/2000/svg" xmlns="http://www.w3.org/2000/svg" xmlns:sodipodi="http://sodipodi.sourceforge.net/DTD/sodipodi-0.dtd" xmlns:inkscape="http://www.inkscape.org/namespaces/inkscape" version="1.1" x="0px" y="0px" viewBox="0 0 100 100"><g transform="translate(0,-952.36218)"><path style="font-size:medium;font-style:normal;font-variant:normal;font-weight:normal;font-stretch:normal;text-indent:0;text-align:start;text-decoration:none;line-height:normal;letter-spacing:normal;word-spacing:normal;text-transform:none;direction:ltr;block-progression:tb;writing-mode:lr-tb;text-anchor:start;baseline-shift:baseline;opacity:1;color:#000000;fill:#333333;fill-opacity:1;stroke:none;stroke-width:4.00000047999999970;marker:none;visibility:visible;display:inline;overflow:visible;enable-background:accumulate;font-family:Sans;-inkscape-font-specification:Sans" d="M 16.90625 9.96875 A 2.0002002 2.0002002 0 0 0 16.3125 13.875 L 71.71875 34 L 11 34 C 8.264595 34 6 36.2646 6 39 L 6 85 C 6 87.7354 8.264595 90 11 90 L 81 90 A 2.0002002 2.0002002 0 1 0 81 86 L 11 86 C 10.411409 86 10 85.5886 10 85 L 10 39 C 10 38.4114 10.411409 38 11 38 L 89 38 C 89.588591 38 90 38.4114 90 39 L 90 85 C 90 85.5886 89.588591 86 89 86 A 2.0002002 2.0002002 0 1 0 89 90 C 91.735405 90 94 87.7354 94 85 L 94 39 C 94 36.2646 91.735405 34 89 34 L 83.375 34 A 2.0002002 2.0002002 0 0 0 83.15625 33.90625 L 17.6875 10.09375 A 2.0002002 2.0002002 0 0 0 16.90625 9.96875 z M 16 42 A 2.0002 2.0002 0 0 0 14 44 L 14 62 A 2.0002 2.0002 0 0 0 16 64 L 84 64 A 2.0002 2.0002 0 0 0 86 62 L 86 44 A 2.0002 2.0002 0 0 0 84 42 L 16 42 z M 18 46 L 82 46 L 82 60 L 76 60 L 76 55 A 2.0002 2.0002 0 0 0 73.78125 52.96875 A 2.0002 2.0002 0 0 0 72 55 L 72 60 L 68 60 L 68 55 A 2.0002 2.0002 0 0 0 65.78125 52.96875 A 2.0002 2.0002 0 0 0 64 55 L 64 60 L 60 60 L 60 55 A 2.0002 2.0002 0 0 0 57.78125 52.96875 A 2.0002 2.0002 0 0 0 56 55 L 56 60 L 52 60 L 52 55 A 2.0002 2.0002 0 0 0 49.78125 52.96875 A 2.0002 2.0002 0 0 0 48 55 L 48 60 L 44 60 L 44 55 A 2.0002 2.0002 0 0 0 41.78125 52.96875 A 2.0002 2.0002 0 0 0 40 55 L 40 60 L 36 60 L 36 55 A 2.0002 2.0002 0 0 0 33.78125 52.96875 A 2.0002 2.0002 0 0 0 32 55 L 32 60 L 28 60 L 28 55 A 2.0002 2.0002 0 0 0 25.78125 52.96875 A 2.0002 2.0002 0 0 0 24 55 L 24 60 L 18 60 L 18 46 z M 61 68 C 57.157696 68 54 71.1577 54 75 C 54 78.8423 57.157696 82 61 82 C 64.842304 82 68 78.8423 68 75 C 68 71.1577 64.842304 68 61 68 z M 79 68 C 75.157696 68 72 71.1577 72 75 C 72 78.8423 75.157696 82 79 82 C 82.842304 82 86 78.8423 86 75 C 86 71.1577 82.842304 68 79 68 z M 61 72 C 62.680543 72 64 73.3194 64 75 C 64 76.6805 62.680543 78 61 78 C 59.319456 78 58 76.6805 58 75 C 58 73.3194 59.319456 72 61 72 z M 79 72 C 80.680544 72 82 73.3194 82 75 C 82 76.6805 80.680544 78 79 78 C 77.319457 78 76 76.6805 76 75 C 76 73.3194 77.319457 72 79 72 z " transform="translate(0,952.36218)"></path></g></svg>