<svg fill="#333333" xmlns="http://www.w3.org/2000/svg" xmlns:xlink="http://www.w3.org/1999/xlink" version="1.1" x="0px" y="0px" viewBox="0 0 100 100" enable-background="new 0 0 100 100" xml:space="preserve"><g><path d="M50,67.5c-9.649,0-17.5-7.851-17.5-17.5S40.351,32.5,50,32.5S67.5,40.351,67.5,50S59.649,67.5,50,67.5z"></path></g><g><path d="M89,85H11c-3.309,0-6-2.691-6-6V21c0-3.309,2.691-6,6-6h78c3.309,0,6,2.691,6,6v58C95,82.309,92.309,85,89,85z M11,19   c-1.103,0-2,0.897-2,2v58c0,1.103,0.897,2,2,2h78c1.103,0,2-0.897,2-2V21c0-1.103-0.897-2-2-2H11z"></path></g></svg>