<svg fill="#333333" xmlns="http://www.w3.org/2000/svg" xmlns:xlink="http://www.w3.org/1999/xlink" version="1.1" x="0px" y="0px" viewBox="0 0 100 100" style="enable-background:new 0 0 100 100;" xml:space="preserve"><g><path d="M71.4435577,31.1798744c0.0419922,0.0053711,0.0839844,0.0078125,0.1259766,0.0078125   c0.4970703,0,0.9277344-0.3691406,0.9912109-0.875c0.3505859-2.7773438-0.7431641-5.4794922-2.9267578-7.2280273   c-2.1835938-1.7475586-5.0605469-2.2246094-7.6933556-1.2749023c-0.5195313,0.1875-0.7890625,0.7602539-0.6015625,1.2797852   c0.1865234,0.5195313,0.7607422,0.7890625,1.2792969,0.6020508c1.9726524-0.7128906,4.1289024-0.3554688,5.7656212,0.9545898   c1.6357422,1.3095703,2.4550781,3.3344727,2.1923828,5.4165039C70.5070343,30.6105385,70.8957062,31.1105385,71.4435577,31.1798744   z"></path><path d="M72.7042999,19.2496986c-3.5273438-2.8232422-8.1738281-3.5966787-12.4296837-2.0654297   c-0.5205078,0.1865234-0.7900391,0.7592773-0.6035156,1.2792969c0.1875,0.519043,0.7597656,0.7900391,1.2792969,0.6025391   c3.5976524-1.2939453,7.5234337-0.6416016,10.5039024,1.7451172c2.9755859,2.3818359,4.46875,6.0678711,3.9931641,9.8603516   c-0.0683594,0.5483398,0.3203125,1.0478516,0.8681641,1.1166992c0.0419922,0.0053711,0.0839844,0.0078125,0.125,0.0078125   c0.4970703,0,0.9277344-0.3701172,0.9912109-0.8754883C77.994339,26.4323158,76.2267609,22.0695229,72.7042999,19.2496986z"></path><path d="M75.7746124,15.4142504c-4.8701172-3.8994141-11.2880859-4.9667969-17.1660118-2.8554688   c-0.5195313,0.1865234-0.7900391,0.7592773-0.6035156,1.2788086s0.7607422,0.7910156,1.2792969,0.6030273   c5.2197227-1.8754883,10.9169884-0.9277344,15.2402306,2.5351553c4.3193359,3.4580078,6.4882813,8.8076172,5.8007813,14.3105469   c-0.0683594,0.5483398,0.3203125,1.0478516,0.8681641,1.1162109c0.0419922,0.0053711,0.0839844,0.0078125,0.125,0.0078125   c0.4970703,0,0.9277344-0.3701172,0.9912109-0.8759766C83.0841827,25.3361244,80.6408234,19.3102455,75.7746124,15.4142504z"></path><path d="M65.0284576,42.2055702l2.4981079-15.1013794c0.0595703-0.3569336-0.0791016-0.7177734-0.3613281-0.9438477   c-0.2832031-0.2260742-0.6650391-0.2827148-1-0.1459961l-14.1889,5.7419434L40.442585,22.5226479   c-0.2060547-0.1650391-0.4658203-0.2416992-0.7353516-0.2133789c-0.2636719,0.0292969-0.5048828,0.1621094-0.6699219,0.3691406   c-7.6480122,9.5526123-6.9544067,23.0948486,1.4893188,31.8012085L30.1240406,77.5548782H18.5490284c-0.5527344,0-1,0.4477539-1,1   v8.9511719c0,0.5522461,0.4472656,1,1,1h53.6464844c0.5527344,0,1-0.4477539,1-1v-8.9511719c0-0.5522461-0.4472656-1-1-1   H60.6203804l-7.2520752-16.093998c1.5085449,0.2890625,3.0245361,0.4406738,4.5303345,0.4406738   c7.2011681,0,14.1542931-3.2373047,18.8193321-9.0556641c0.1660156-0.2070313,0.2431641-0.4711914,0.2138672-0.7353516   c-0.0292969-0.2636719-0.1621094-0.5048828-0.3691406-0.6708984L65.0284576,42.2055702z M65.2628937,28.536808   l-2.0243492,12.2358398l-9.472168-7.583252L65.2628937,28.536808z M71.1955109,79.5548782v6.9511719H19.5490284v-6.9511719   h11.2216797H59.973835H71.1955109z M58.4259834,77.5548782H32.3185616l9.7314453-21.5869179   c0.2412109,0.2104492,0.4902344,0.4194336,0.7509766,0.6293945c0.6246948,0.4984131,1.2697754,0.9609375,1.9315186,1.3918457   c0.2174072,0.1415405,0.4467773,0.2592773,0.6679688,0.3934326c0.4523315,0.2744141,0.9033813,0.5509644,1.3711548,0.7942505   c0.2720337,0.1414795,0.555603,0.2579956,0.8327026,0.388855c0.4330444,0.2045898,0.8639526,0.413269,1.3088989,0.5916748   c0.3007813,0.1206055,0.6115112,0.2173462,0.9176025,0.3258667c0.3583374,0.1270752,0.7094116,0.2712402,1.074646,0.3816528   L58.4259834,77.5548782z M51.8986397,59.071476c-2.8603516-0.8051758-5.5009766-2.1630859-7.8466797-4.0351563   c-0.5966797-0.4799805-1.1308594-0.9570313-1.6425781-1.4682617c-7.9414063-7.734375-8.9082031-19.9672852-2.4189453-28.8452148   l11.1900024,8.9584961c0.0009155,0.0007324,0.0014648,0.001709,0.0023804,0.0024414l12.1386719,9.7177734   c0.0004883,0.0003662,0.0011597,0.0005493,0.0016479,0.0009155l11.190731,8.9590454   C68.8996124,58.7575111,60.1349678,61.3883705,51.8986397,59.071476z"></path></g></svg>