<svg fill="#333333" xmlns:cc="http://creativecommons.org/ns#" xmlns:dc="http://purl.org/dc/elements/1.1/" xmlns:inkscape="http://www.inkscape.org/namespaces/inkscape" xmlns:rdf="http://www.w3.org/1999/02/22-rdf-syntax-ns#" xmlns:sodipodi="http://sodipodi.sourceforge.net/DTD/sodipodi-0.dtd" xmlns:svg="http://www.w3.org/2000/svg" xmlns="http://www.w3.org/2000/svg" xmlns:xlink="http://www.w3.org/1999/xlink" version="1.1" x="0px" y="0px" viewBox="0 0 64.1 64.1" style="enable-background:new 0 0 64.1 64.1;" xml:space="preserve"><style type="text/css">
	.st0{fill:none;stroke:#333333;stroke-linecap:round;stroke-linejoin:round;stroke-miterlimit:10;}
	.st1{fill:none;stroke:#333333;stroke-miterlimit:10;}
	.st2{fill:none;stroke:#333333;stroke-linecap:round;stroke-miterlimit:10;}
</style><g><polyline class="st0" points="6.7,32.2 12.6,32.2 14.9,39.5 21.6,25.9 24.1,32 38.2,32  "></polyline><circle class="st1" cx="42.3" cy="32" r="4"></circle><path class="st2" d="M33.2,28.8c1.3-3.6,4.8-6.2,8.9-6.2c5.2,0,9.4,4.2,9.4,9.4s-4.2,9.4-9.4,9.4c-3.9,0-7.3-2.4-8.7-5.8"></path><path class="st2" d="M27.2,29c1.4-6.9,7.6-12.2,14.9-12.2c8.4,0,15.2,6.8,15.2,15.2s-6.8,15.2-15.2,15.2c-7.2,0-13.2-5-14.8-11.7"></path></g></svg>