<svg fill="#333333" xmlns="http://www.w3.org/2000/svg" xmlns:xlink="http://www.w3.org/1999/xlink" version="1.1" x="0px" y="0px" viewBox="0 0 100 100" enable-background="new 0 0 100 100" xml:space="preserve"><g><path fill="#333333" d="M49.961,24.707c-20.499,0-37.175,16.677-37.175,37.175c0,20.499,16.677,37.176,37.175,37.176   s37.175-16.677,37.175-37.176C87.137,41.383,70.46,24.707,49.961,24.707z M49.961,97.002c-19.365,0-35.12-15.755-35.12-35.12   s15.754-35.12,35.12-35.12c19.365,0,35.12,15.754,35.12,35.12S69.326,97.002,49.961,97.002z"></path><path fill="#333333" d="M49.961,29.549c-17.829,0-32.333,14.504-32.333,32.333c0,17.829,14.504,32.333,32.333,32.333   s32.333-14.504,32.333-32.333C82.295,44.053,67.79,29.549,49.961,29.549z M49.961,93.215c-17.305,0-31.333-14.027-31.333-31.333   c0-17.305,14.028-31.333,31.333-31.333c17.304,0,31.333,14.028,31.333,31.333C81.295,79.188,67.266,93.215,49.961,93.215z"></path><path fill="#333333" d="M52.111,82.44v1.306c4.358-0.426,8.346-2.131,11.584-4.734l-0.955-0.902   C59.75,80.467,56.104,82.027,52.111,82.44z"></path><path fill="#333333" d="M65.727,75.234l0.943,0.891c2.557-2.996,4.326-6.682,4.979-10.739h-1.336   C69.678,69.102,68.063,72.478,65.727,75.234z"></path><path fill="#333333" d="M48.111,41.305v-1.31c-5.138,0.431-9.776,2.636-13.302,6.001l0.948,0.896   C39.041,43.779,43.337,41.729,48.111,41.305z"></path><path fill="#333333" d="M36.217,79.005c3.314,2.665,7.414,4.388,11.894,4.765v-1.311c-4.108-0.365-7.864-1.934-10.927-4.35   L36.217,79.005z"></path><path fill="#333333" d="M33.044,50.027l-0.953-0.901c-2.461,3.437-3.954,7.609-4.083,12.12h1.316   C29.451,57.076,30.801,53.221,33.044,50.027z"></path><path fill="#333333" d="M28.274,65.386c0.652,4.052,2.417,7.735,4.97,10.729l0.951-0.881c-2.336-2.757-3.95-6.133-4.585-9.848   H28.274z"></path><path fill="#333333" d="M67.131,50.374c2.098,3.124,3.346,6.855,3.469,10.871h1.316c-0.125-4.353-1.518-8.392-3.826-11.758   L67.131,50.374z"></path><path fill="#333333" d="M65.435,46.302c-3.496-3.472-8.149-5.778-13.323-6.283v1.306c4.805,0.497,9.119,2.642,12.373,5.857   L65.435,46.302z"></path><path fill="#333333" d="M52.111,80.35c3.397-0.393,6.51-1.711,9.1-3.688l-0.957-0.904c-2.336,1.737-5.115,2.9-8.143,3.279V80.35z"></path><path fill="#333333" d="M66.906,65.386c-0.582,2.821-1.854,5.392-3.631,7.53l0.943,0.893c1.992-2.378,3.396-5.26,4.003-8.423   H66.906z"></path><path fill="#333333" d="M62.957,48.597c-2.873-2.811-6.647-4.696-10.846-5.182v1.313c3.822,0.477,7.258,2.198,9.89,4.753   L62.957,48.597z"></path><path fill="#333333" d="M68.531,61.245c-0.118-3.468-1.182-6.696-2.953-9.433l-0.971,0.899c1.566,2.493,2.51,5.405,2.624,8.533   H68.531z"></path><path fill="#333333" d="M38.731,76.677c2.663,2.026,5.874,3.366,9.38,3.714v-1.309c-3.131-0.334-6.004-1.52-8.412-3.302   L38.731,76.677z"></path><path fill="#333333" d="M32.691,61.245c0.12-3.269,1.137-6.31,2.832-8.874l-0.962-0.91c-1.907,2.81-3.046,6.17-3.169,9.784H32.691z   "></path><path fill="#333333" d="M33.017,65.386h-1.316c0.607,3.171,2.017,6.058,4.017,8.438l0.952-0.883   C34.883,70.797,33.602,68.219,33.017,65.386z"></path><path fill="#333333" d="M48.111,43.374c-4.177,0.415-7.938,2.228-10.843,4.948l0.945,0.894c2.663-2.472,6.092-4.127,9.897-4.534   V43.374z"></path><path fill="#333333" d="M52.111,76.946c2.439-0.347,4.693-1.266,6.619-2.629l-0.957-0.905c-1.664,1.133-3.591,1.898-5.662,2.221   V76.946z"></path><path fill="#333333" d="M39.145,70.649c-1.236-1.522-2.146-3.312-2.654-5.264H35.15c0.542,2.29,1.589,4.388,3.037,6.15   L39.145,70.649z"></path><path fill="#333333" d="M37.058,53.822c-1.361,2.172-2.185,4.704-2.298,7.423h1.3c0.108-2.374,0.809-4.59,1.963-6.511   L37.058,53.822z"></path><path fill="#333333" d="M60.48,50.89c-2.246-2.15-5.146-3.613-8.369-4.071v1.313c2.848,0.444,5.409,1.746,7.414,3.644L60.48,50.89z   "></path><path fill="#333333" d="M64.772,65.386h-1.341c-0.502,1.929-1.398,3.698-2.612,5.208l0.95,0.897   C63.199,69.738,64.234,67.658,64.772,65.386z"></path><path fill="#333333" d="M48.111,46.772c-3.214,0.392-6.115,1.79-8.393,3.866l0.946,0.895c2.035-1.83,4.604-3.067,7.447-3.447   V46.772z"></path><path fill="#333333" d="M63.061,54.145l-0.973,0.9c1.047,1.847,1.674,3.955,1.775,6.2h1.3   C65.055,58.659,64.305,56.242,63.061,54.145z"></path><path fill="#333333" d="M41.24,74.354c1.995,1.399,4.336,2.33,6.871,2.639v-1.313c-2.16-0.288-4.169-1.062-5.9-2.225L41.24,74.354z   "></path><path fill="#333333" d="M48.111,51.489v-1.313c-2.254,0.355-4.297,1.342-5.942,2.78l0.946,0.895   C44.513,52.656,46.226,51.824,48.111,51.489z"></path><path fill="#333333" d="M58.004,53.184c-1.615-1.495-3.641-2.548-5.893-2.962v1.315c1.877,0.39,3.566,1.287,4.938,2.531   L58.004,53.184z"></path><path fill="#333333" d="M40.543,57.118l-0.986-0.933c-0.833,1.516-1.332,3.235-1.429,5.06h1.3   C39.517,59.768,39.906,58.372,40.543,57.118z"></path><path fill="#333333" d="M41.626,68.352c-0.69-0.887-1.24-1.886-1.621-2.966h-1.381c0.439,1.417,1.143,2.716,2.044,3.853   L41.626,68.352z"></path><path fill="#333333" d="M61.795,61.245c-0.092-1.702-0.537-3.31-1.273-4.749l-0.996,0.923c0.551,1.175,0.889,2.465,0.97,3.826   H61.795z"></path><path fill="#333333" d="M43.786,71.995c1.299,0.796,2.76,1.347,4.325,1.594v-1.313c-1.192-0.212-2.315-0.621-3.334-1.197   L43.786,71.995z"></path><path fill="#333333" d="M59.309,69.165c0.875-1.119,1.561-2.392,1.99-3.779h-1.381c-0.369,1.046-0.898,2.015-1.559,2.882   L59.309,69.165z"></path><path fill="#333333" d="M52.111,72.228v1.315c1.486-0.273,2.871-0.826,4.109-1.6l-0.978-0.924   C54.283,71.576,53.231,71.994,52.111,72.228z"></path><path fill="#333333" d="M76.29,60.859c-1.45,0-2.626,1.176-2.626,2.627c0,1.45,1.176,2.626,2.626,2.626s2.626-1.176,2.626-2.626   C78.916,62.035,77.74,60.859,76.29,60.859z M76.29,65.112c-0.897,0-1.626-0.729-1.626-1.626c0-0.897,0.729-1.627,1.626-1.627   s1.626,0.729,1.626,1.627C77.916,64.383,77.188,65.112,76.29,65.112z"></path><path fill="#333333" d="M30.746,11.944c0.34,0,0.656-0.092,0.938-0.241l0.002,0.004c5.522-3.017,11.851-4.735,18.576-4.735   c6.573,0,12.762,1.645,18.196,4.537l0.008-0.015c0.223,0.084,0.461,0.136,0.713,0.136c1.113,0,2.016-0.902,2.016-2.015   c0-0.685-0.344-1.288-0.865-1.652l0.01-0.017c-0.104-0.055-0.212-0.102-0.316-0.156c-0.025-0.012-0.049-0.027-0.074-0.038   C64.044,4.69,57.356,2.942,50.26,2.942c-7.433,0-14.43,1.903-20.531,5.244l0.004,0.008c-0.598,0.35-1.003,0.991-1.003,1.734   C28.73,11.042,29.632,11.944,30.746,11.944z"></path><path fill="#333333" d="M64.105,17.449c0.033,0.018,0.067,0.032,0.1,0.049l0.009-0.016c0.144,0.043,0.294,0.074,0.452,0.074   c0.863,0,1.562-0.699,1.562-1.562c0-0.493-0.232-0.927-0.59-1.214l0.014-0.023c-0.034-0.018-0.069-0.033-0.104-0.051   c-0.109-0.076-0.232-0.133-0.361-0.179c-4.5-2.304-9.585-3.619-14.979-3.619c-5.602,0-10.876,1.412-15.501,3.885   c-0.017,0.007-0.031,0.017-0.047,0.024c-0.081,0.043-0.164,0.08-0.244,0.124l0.005,0.009c-0.408,0.282-0.675,0.751-0.675,1.285   c0,0.863,0.699,1.562,1.562,1.562c0.343,0,0.657-0.113,0.915-0.3c4.176-2.222,8.934-3.49,13.986-3.49   c4.922,0,9.565,1.208,13.665,3.325C63.947,17.377,64.023,17.417,64.105,17.449z"></path><path fill="#333333" d="M37.057,21.791c0,0.658,0.532,1.19,1.19,1.19c0.163,0,0.318-0.034,0.459-0.093l0.007,0.013   c3.267-1.786,7.012-2.803,10.991-2.803c3.889,0,7.551,0.974,10.766,2.685l0.023-0.045c0.188,0.123,0.398,0.212,0.64,0.212   c0.658,0,1.19-0.532,1.19-1.19c0-0.516-0.331-0.944-0.789-1.109c-3.536-1.871-7.561-2.936-11.831-2.936   c-4.299,0-8.346,1.081-11.898,2.975c-0.023,0.009-0.043,0.022-0.065,0.033c-0.061,0.033-0.125,0.061-0.185,0.094l0.012,0.022   C37.267,21.055,37.057,21.391,37.057,21.791z"></path><path fill="#333333" d="M55.058,61.882c0-2.8-2.271-5.069-5.07-5.069c-2.8,0-5.07,2.27-5.07,5.069s2.27,5.07,5.07,5.07   C52.787,66.952,55.058,64.682,55.058,61.882z M49.987,63.952c-1.142,0-2.07-0.929-2.07-2.07s0.929-2.069,2.07-2.069   s2.07,0.928,2.07,2.069S51.129,63.952,49.987,63.952z"></path></g></svg>