<svg fill="#333333" xmlns="http://www.w3.org/2000/svg" xmlns:xlink="http://www.w3.org/1999/xlink" version="1.1" x="0px" y="0px" viewBox="0 0 100 100" enable-background="new 0 0 100 100" xml:space="preserve"><path fill="#333333" d="M52.38,71.732l-0.021-0.041v-0.035v-0.094c0-0.069-0.028-0.132-0.073-0.177l-0.019-0.019l-0.002-0.004  v-0.035c0-0.021-0.018-0.034-0.022-0.054c-0.004-0.02,0.005-0.039-0.004-0.058l-0.047-0.094c-0.007-0.014-0.022-0.016-0.031-0.027  c-0.008-0.012-0.005-0.027-0.016-0.038l-0.019-0.019l-0.028-0.057c-0.007-0.014-0.022-0.016-0.031-0.027  c-0.008-0.012-0.005-0.027-0.016-0.038l-0.047-0.047l-0.094-0.094l-0.019-0.019l-0.028-0.057c-0.013-0.025-0.04-0.033-0.06-0.053  s-0.026-0.047-0.053-0.06l-0.057-0.028l-0.019-0.019c-0.011-0.011-0.026-0.007-0.038-0.016s-0.014-0.024-0.027-0.031l-0.094-0.047  l-0.094-0.047l-0.094-0.047c-0.018-0.009-0.035,0.001-0.054-0.004l-0.087-0.043c-0.018-0.009-0.037,0.001-0.057-0.004  s-0.033-0.022-0.055-0.022h-0.035l-0.041-0.021c-0.018-0.009-0.038,0.001-0.057-0.004s-0.033-0.022-0.054-0.022h-0.094h-0.094  h-0.094h-0.047c-0.021,0-0.031,0.018-0.049,0.021c-0.021,0.005-0.042-0.006-0.062,0.005l-0.041,0.021h-0.035  c-0.021,0-0.034,0.018-0.054,0.022c-0.02,0.004-0.039-0.005-0.058,0.004l-0.041,0.021h-0.035c-0.021,0-0.034,0.018-0.054,0.022  c-0.02,0.004-0.039-0.005-0.058,0.004l-0.094,0.047l-0.094,0.047c-0.013,0.007-0.015,0.022-0.027,0.031s-0.027,0.005-0.038,0.016  l-0.018,0.019l-0.058,0.028c-0.013,0.007-0.015,0.022-0.027,0.031s-0.027,0.005-0.038,0.016l-0.047,0.047l-0.094,0.094l-0.047,0.047  c-0.011,0.011-0.008,0.026-0.016,0.038c-0.009,0.012-0.024,0.014-0.031,0.027l-0.01,0.019l-0.019,0.01  c-0.013,0.007-0.015,0.022-0.027,0.031c-0.027,0.02-0.043,0.041-0.061,0.069c-0.015,0.025-0.03,0.044-0.036,0.072  c-0.026,0.02-0.041,0.041-0.058,0.068c-0.018,0.029-0.03,0.053-0.035,0.085c-0.001,0.008-0.008,0.013-0.009,0.021l-0.027,0.027  c-0.045,0.045-0.073,0.107-0.073,0.177v0.082l-0.021,0.041c-0.009,0.019,0,0.038-0.004,0.058c-0.005,0.02-0.022,0.032-0.022,0.054  v0.094v0.094v0.094v0.094v0.094v0.094c0,0.021,0.018,0.034,0.022,0.054c0.004,0.02-0.005,0.039,0.004,0.058l0.021,0.041v0.082  c0,0.069,0.028,0.132,0.073,0.177l0.061,0.061c0.012,0.026,0.011,0.058,0.033,0.08l0.027,0.027c0.001,0.009,0.008,0.014,0.009,0.021  c0.005,0.032,0.018,0.056,0.035,0.085c0.018,0.028,0.033,0.05,0.061,0.069c0.012,0.009,0.014,0.024,0.027,0.031l0.019,0.01  l0.01,0.019c0.009,0.018,0.024,0.025,0.036,0.039c0.006,0.008,0.004,0.02,0.011,0.026l0.047,0.047  c0.011,0.011,0.026,0.007,0.038,0.016s0.014,0.024,0.027,0.031l0.058,0.028l0.018,0.019l0.094,0.094l0.047,0.047  c0.011,0.011,0.026,0.007,0.038,0.016s0.014,0.024,0.027,0.031l0.094,0.047c0.036,0.019,0.074,0.026,0.112,0.026h0.035l0.041,0.021  c0.036,0.019,0.074,0.026,0.112,0.026h0.035l0.041,0.021c0.036,0.019,0.074,0.026,0.112,0.026h0.027  c0.036,0.02,0.069,0.047,0.113,0.047h0.094h0.094c0.038,0,0.076-0.008,0.112-0.026l0.041-0.021h0.035  c0.037,0,0.076-0.008,0.111-0.026l0.041-0.021h0.035c0.044,0,0.077-0.027,0.113-0.047h0.027c0.037,0,0.076-0.008,0.111-0.026  l0.094-0.047l0.094-0.047c0.004-0.001,0.004-0.005,0.006-0.007c0.044-0.023,0.082-0.057,0.106-0.105l0.01-0.019l0.019-0.01  c0.014-0.007,0.016-0.022,0.027-0.031s0.027-0.005,0.038-0.016l0.047-0.047l0.047-0.047l0.094-0.094l0.047-0.047  c0.007-0.007,0.005-0.019,0.011-0.026c0.012-0.014,0.027-0.021,0.036-0.039l0.047-0.094l0.028-0.057l0.019-0.019  c0.045-0.045,0.073-0.107,0.073-0.177v-0.035l0.002-0.004l0.019-0.019c0.045-0.045,0.073-0.107,0.073-0.177v-0.094v-0.035  l0.021-0.041c0.009-0.019,0-0.038,0.004-0.058c0.005-0.02,0.022-0.032,0.022-0.054v-0.094v-0.094c0-0.021-0.018-0.034-0.022-0.054  C52.38,71.771,52.389,71.751,52.38,71.732z M51.906,71.938v0.035l-0.021,0.041c-0.009,0.019,0,0.038-0.004,0.058  c-0.005,0.02-0.022,0.032-0.022,0.054v0.094v0.012c-0.006,0.008-0.016,0.008-0.021,0.018l-0.047,0.094  c-0.009,0.019,0,0.038-0.004,0.058c-0.005,0.02-0.022,0.032-0.022,0.054v0.012c-0.006,0.008-0.016,0.008-0.021,0.018l-0.047,0.094  l-0.028,0.057l-0.019,0.019l-0.094,0.094l-0.047,0.047l-0.019,0.019l-0.057,0.028c-0.026,0.013-0.034,0.041-0.053,0.061  c-0.02,0.019-0.047,0.026-0.06,0.052l-0.01,0.019l-0.019,0.01L51.254,73h-0.035c-0.044,0-0.077,0.027-0.113,0.047h-0.027  c-0.021,0-0.034,0.018-0.054,0.022c-0.02,0.004-0.039-0.005-0.058,0.004l-0.041,0.021h-0.035c-0.021,0-0.034,0.018-0.054,0.022  c-0.02,0.004-0.039-0.005-0.058,0.004l-0.041,0.021h-0.035h-0.027c-0.036-0.02-0.069-0.047-0.113-0.047h-0.035l-0.041-0.021  c-0.019-0.009-0.038,0.001-0.058-0.004s-0.033-0.022-0.054-0.022H50.34l-0.041-0.021c-0.019-0.009-0.038,0.001-0.058-0.004  S50.208,73,50.188,73h-0.035l-0.005-0.002l-0.018-0.019l-0.094-0.094l-0.047-0.047c-0.011-0.011-0.026-0.007-0.038-0.016  s-0.014-0.024-0.027-0.031l-0.05-0.025l-0.025-0.05c-0.013-0.025-0.041-0.033-0.06-0.053c-0.012-0.012-0.018-0.027-0.033-0.037  c-0.012-0.042-0.019-0.086-0.048-0.116l-0.061-0.061c-0.013-0.026-0.013-0.06-0.033-0.08l-0.027-0.027  c0-0.003-0.002-0.004-0.002-0.006c0-0.009,0.009-0.016,0.009-0.024c0-0.021-0.018-0.034-0.022-0.054  c-0.004-0.02,0.005-0.039-0.004-0.058l-0.021-0.041v-0.035v-0.094v-0.094v-0.094V71.75v-0.035l0.021-0.041  c0.018-0.035,0.008-0.072,0.008-0.11c0.002-0.012,0.012-0.021,0.012-0.032l0.027-0.026c0.029-0.03,0.036-0.074,0.048-0.116  c0.004-0.002,0.005-0.006,0.008-0.009c0.027-0.02,0.043-0.041,0.061-0.069c0.014-0.022,0.03-0.038,0.037-0.063  c0.032-0.022,0.062-0.05,0.082-0.089l0.029-0.057l0.018-0.019l0.094-0.094l0.018-0.019l0.058-0.028  c0.013-0.007,0.015-0.022,0.027-0.031s0.027-0.005,0.038-0.016l0.018-0.019l0.058-0.028l0.041-0.021h0.035  c0.038,0,0.076-0.008,0.112-0.026l0.041-0.021h0.035c0.038,0,0.076-0.008,0.112-0.026l0.041-0.021h0.082h0.094h0.035l0.041,0.021  c0.036,0.019,0.074,0.026,0.112,0.026h0.035l0.041,0.021c0.028,0.015,0.059,0.019,0.088,0.021l0.053,0.026l0.094,0.047l0.057,0.028  l0.019,0.019c0.011,0.011,0.026,0.007,0.038,0.016s0.014,0.024,0.027,0.031l0.019,0.01l0.01,0.019  c0.009,0.018,0.024,0.025,0.036,0.039c0.006,0.008,0.004,0.02,0.011,0.026l0.047,0.047l0.094,0.094l0.019,0.019l0.028,0.057  c0.009,0.018,0.024,0.025,0.036,0.039c0.006,0.008,0.004,0.02,0.011,0.026l0.019,0.019l0.002,0.004v0.035  c0,0.021,0.018,0.034,0.022,0.054c0.004,0.02-0.005,0.039,0.004,0.058l0.047,0.094c0.005,0.01,0.015,0.014,0.021,0.022v0.007v0.094  c0,0.021,0.018,0.034,0.022,0.054c0.004,0.02-0.005,0.039,0.004,0.058l0.021,0.041V71.938z"></path><path fill="#333333" d="M51.609,71.752c0-0.001,0-0.002,0-0.002c0-0.023-0.017-0.039-0.022-0.06  c-0.005-0.018,0.005-0.035-0.004-0.052l-0.047-0.094c0-0.001-0.001-0.001-0.001-0.001c-0.012-0.039-0.016-0.081-0.046-0.111  l-0.047-0.047l-0.047-0.047l-0.014-0.014c-0.024-0.054-0.06-0.089-0.113-0.113l-0.014-0.014c-0.009-0.009-0.023-0.007-0.033-0.014  c-0.026-0.036-0.062-0.053-0.104-0.07c-0.046-0.05-0.108-0.083-0.181-0.083h-0.047h-0.047h-0.047H50.75h-0.047h-0.047h-0.041  c-0.002,0-0.004,0-0.006,0h-0.047h-0.047c-0.064,0-0.128,0.024-0.177,0.073l-0.014,0.014c-0.006,0.003-0.011,0.004-0.017,0.007  h-0.027c-0.082,0-0.145,0.045-0.19,0.106c-0.029,0.021-0.043,0.048-0.061,0.08c-0.078,0.042-0.14,0.108-0.14,0.204v0.014  c-0.024,0.04-0.051,0.08-0.051,0.131c0,0.002,0.004,0.006,0.004,0.008v0.023l-0.021,0.041c-0.009,0.019,0,0.038-0.004,0.058  c-0.005,0.02-0.022,0.032-0.022,0.054v0.047v0.047v0.047v0.047c0,0.021,0.017,0.031,0.022,0.05c0.004,0.021-0.005,0.042,0.004,0.062  l0.021,0.041v0.035c0,0.064,0.024,0.128,0.073,0.177l0.014,0.014c0.012,0.026,0.011,0.058,0.033,0.08l0.047,0.047  c0.008,0.009,0.023,0.007,0.033,0.014c0.007,0.011,0.004,0.024,0.014,0.033l0.04,0.04c0.001,0.002,0.001,0.005,0.003,0.007  c0.012,0.013,0.03,0.009,0.043,0.017c0.011,0.008,0.013,0.023,0.026,0.03l0.094,0.047c0.012,0.006,0.025,0.005,0.038,0.009  l0.038,0.038c0.045,0.045,0.107,0.073,0.177,0.073h0.047h0.047h0.047h0.047h0.047h0.047h0.047h0.047h0.047  c0.085,0,0.148-0.049,0.193-0.114l0.012-0.006c0.001,0,0.001-0.001,0.001-0.001c0.052-0.016,0.094-0.037,0.125-0.079  c0.011-0.007,0.024-0.005,0.033-0.014l0.047-0.047c0.009-0.009,0.007-0.023,0.014-0.033c0.02-0.015,0.032-0.027,0.047-0.047  c0.011-0.007,0.024-0.005,0.033-0.014l0.047-0.047c0.045-0.045,0.073-0.107,0.073-0.177v-0.021c0.021-0.038,0.047-0.075,0.047-0.115  c0-0.001,0-0.003,0-0.005l0,0v-0.027c0.02-0.036,0.047-0.068,0.047-0.113v-0.047v-0.047c0-0.041-0.027-0.076-0.047-0.113V71.752z   M51.109,72.029c0,0.001,0,0.002,0,0.002v0.027c-0.011,0.02-0.02,0.039-0.024,0.06c-0.022,0.015-0.04,0.028-0.057,0.051  c-0.029,0.021-0.043,0.048-0.061,0.08c-0.025,0.013-0.052,0.019-0.071,0.039l-0.071,0.035c-0.01,0.005-0.011,0.018-0.021,0.024  c-0.003-0.001-0.005-0.004-0.008-0.004c-0.009,0-0.014,0.008-0.022,0.01c-0.009-0.002-0.016-0.01-0.024-0.01  s-0.014,0.008-0.022,0.01c-0.009-0.002-0.016-0.01-0.024-0.01s-0.014,0.008-0.022,0.01c-0.009-0.002-0.016-0.01-0.024-0.01  s-0.014,0.008-0.022,0.01c-0.003,0-0.005-0.004-0.008-0.004l-0.027-0.026c-0.031-0.03-0.072-0.034-0.111-0.046c0,0,0-0.001,0-0.001  l-0.046-0.023c-0.023-0.044-0.052-0.074-0.096-0.098c-0.003-0.005-0.003-0.011-0.006-0.017c0-0.005,0.005-0.008,0.005-0.014  c0-0.021-0.018-0.034-0.022-0.054c-0.004-0.02,0.005-0.039-0.004-0.058l-0.028-0.057c0.001-0.008,0.008-0.012,0.008-0.02  s-0.007-0.012-0.008-0.02l0.028-0.057c0.009-0.019,0-0.038,0.004-0.058c0.005-0.02,0.022-0.032,0.022-0.054v-0.027  c0.005-0.009,0.007-0.018,0.011-0.026c0.003-0.003,0.007-0.001,0.01-0.004l0.047-0.047c0.009-0.009,0.006-0.022,0.014-0.033  c0.013-0.009,0.027-0.012,0.037-0.023c0.031-0.013,0.067-0.015,0.09-0.037l0.014-0.014c0.01-0.005,0.021-0.007,0.03-0.013  c0.005,0,0.009,0.006,0.014,0.006c0.009,0,0.014-0.008,0.022-0.01c0.009,0.002,0.016,0.01,0.024,0.01s0.014-0.008,0.022-0.01  c0.009,0.002,0.016,0.01,0.024,0.01s0.014-0.008,0.022-0.01c0.009,0.002,0.016,0.01,0.024,0.01s0.014-0.008,0.022-0.01  c0.009,0.002,0.016,0.01,0.024,0.01c0.005,0,0.008-0.006,0.014-0.006c0.012,0.008,0.026,0.011,0.04,0.017  c0.022,0.024,0.054,0.029,0.084,0.043l0.014,0.014c0.009,0.009,0.023,0.007,0.033,0.014c0.007,0.01,0.005,0.024,0.014,0.033  l0.047,0.047l0.045,0.045c0.003,0.011-0.003,0.021,0.002,0.03l0.021,0.041v0.035c0,0.029,0.021,0.05,0.031,0.076  c0.002,0.006,0.004,0.012,0.007,0.018C51.135,71.969,51.109,71.997,51.109,72.029z"></path><path fill="#333333" d="M96.5,22.516h-0.234h-0.047H5.188H4.906c-0.138,0-0.25,0.112-0.25,0.25v0.188V23v0.094v46.172v0.047  c0,0.01,0.009,0.014,0.01,0.021c-0.001,0.01-0.01,0.016-0.01,0.025c0,0.009,0.009,0.014,0.009,0.022  c0,0.009-0.009,0.016-0.009,0.024c0,0.085,0.049,0.148,0.114,0.193l0.006,0.012c0.007,0.014,0.021,0.021,0.029,0.032  c0.007,0.012,0.006,0.026,0.014,0.036c0.008,0.007,0.021,0.006,0.03,0.012C4.894,69.727,4.944,69.75,5,69.75h0.02  c0.04,0.02,0.077,0.047,0.121,0.047c0.009,0,0.014-0.008,0.022-0.01c0.009,0.002,0.016,0.01,0.024,0.01h18.547v4.281H12.547  c-0.048,0-0.085,0.027-0.123,0.051c-0.018,0.01-0.04,0.008-0.054,0.021c-0.01,0.01-0.007,0.026-0.015,0.037  c-0.029,0.042-0.058,0.086-0.058,0.141v2.859c0,0.139,0.112,0.25,0.25,0.25h76.356c0.003,0,0.004,0.002,0.007,0.002  c0.041,0,0.084-0.029,0.126-0.056c0.015-0.01,0.035-0.009,0.048-0.021c0.002-0.001,0.004-0.001,0.006-0.003  c0.04-0.049,0.07-0.109,0.07-0.17c0-0.002-0.004-0.004-0.004-0.008v-2.844c0-0.003,0.004-0.006,0.004-0.008  c0-0.037-0.027-0.062-0.042-0.094c-0.013-0.029-0.015-0.064-0.038-0.086c-0.045-0.045-0.105-0.07-0.169-0.07  c-0.002,0-0.003-0.002-0.005-0.002H77.672v-4.281h18.547c0.009,0,0.014-0.008,0.022-0.01c0.009,0.002,0.016,0.01,0.024,0.01h0.047  c0.045,0,0.084-0.027,0.123-0.051c0.006,0,0.012,0.004,0.018,0.004c0.059,0,0.11-0.027,0.155-0.064  c0.014-0.011,0.021-0.021,0.032-0.035c0.012-0.014,0.027-0.021,0.036-0.039l0.047-0.094c0.009-0.018-0.001-0.035,0.004-0.053  c0.005-0.021,0.022-0.036,0.022-0.055c0-0.013-0.005-0.023-0.006-0.035c0-0.006,0.006-0.01,0.006-0.016v-0.047  c0-0.01-0.009-0.014-0.01-0.021c0.001-0.01,0.01-0.016,0.01-0.025V23.094V23v-0.047v-0.047v-0.141  C96.75,22.627,96.639,22.516,96.5,22.516z M88.656,74.578v2.359H12.797v-2.359h11.188h53.438H88.656z M24.234,74.078v-4.281h0.031  h52.875h0.031v4.281H24.234z M96.25,23.094v46.172v0.029c-0.001,0.001-0.002,0.002-0.004,0.002h-0.027H77.422h-0.281H24.266h-0.281  H5.207c-0.017-0.01-0.034-0.017-0.053-0.021c0-0.001-0.001-0.001-0.001-0.002c0-0.002,0.003-0.005,0.003-0.008V23.094v-0.037  l0.021-0.021c0.003-0.003,0.001-0.007,0.004-0.01c0.009-0.003,0.018-0.006,0.026-0.011h90.992c0.016,0.009,0.033,0.016,0.051,0.021  V23.094z"></path><path fill="#333333" d="M94.625,24.438H6.781c-0.138,0-0.25,0.112-0.25,0.25v42.938c0,0.139,0.112,0.25,0.25,0.25h87.844  c0.139,0,0.25-0.111,0.25-0.25V24.688C94.875,24.549,94.764,24.438,94.625,24.438z"></path></svg>