<svg fill="#333333" xmlns="http://www.w3.org/2000/svg" xmlns:xlink="http://www.w3.org/1999/xlink" version="1.1" x="0px" y="0px" viewBox="0 0 50 50" enable-background="new 0 0 50 50" xml:space="preserve"><g><path d="M14.311,20.095h-6.54c-0.27,0-0.527,0.108-0.716,0.302c-3.843,3.938-3.881,10.231,0.011,14.216   c0.188,0.193,0.446,0.302,0.716,0.302h6.529c0.553,0,1-0.447,1-1c0-1.441,0-11.3,0-12.819   C15.311,20.542,14.863,20.095,14.311,20.095z M8.217,32.914c-2.76-3.117-2.721-7.75-0.011-10.819h5.104v1.396   c-4.179,1.044-4.186,6.983,0,8.028v1.396H8.217z M13.311,29.407c-1.53-0.808-1.531-2.997,0-3.806V29.407z"></path><path d="M42.23,20.095h-6.55c-0.553,0-1,0.447-1,1c0,5.928,0,5.987,0,9.56v3.26c0,0.553,0.447,1,1,1h6.54   c0.27,0,0.527-0.108,0.716-0.302c1.873-1.918,2.904-4.442,2.904-7.107c0-2.672-1.028-5.196-2.895-7.108   C42.758,20.203,42.5,20.095,42.23,20.095z M36.681,25.599c1.544,0.807,1.546,3.003,0,3.812V25.599z M41.785,32.914h-5.104v-1.395   c1.81-0.45,3.16-2.072,3.16-4.014s-1.35-3.566-3.16-4.015v-1.395h5.114c1.322,1.495,2.046,3.4,2.046,5.41   C43.841,29.508,43.114,31.413,41.785,32.914z"></path><path d="M49.001,11.555c0-0.553-0.447-1-1-1h-46c-0.416,0-0.771,0.253-0.922,0.613c-0.051,0.12-0.08,0.252-0.08,0.392v26.886   c0,0.553,0.447,1,1,1h46c0.553,0,1-0.447,1-1V18.104c0-0.003,0.002-0.006,0.002-0.01V11.555z M44.841,14.324H5.161   c-0.553,0-1,0.447-1,1v1.771h-1.16V12.56h43.998v4.535h-1.158v-1.771C45.841,14.771,45.394,14.324,44.841,14.324z M2.999,37.445   V19.095h2.162c0.553,0,1-0.447,1-1v-1.771h37.68v1.771c0,0.553,0.447,1,1,1h2.158v18.351H2.999z"></path><path d="M31.681,20.57H18.31c-1.294,0-1,0.35-1,12.868c0,0.553,0.447,1,1,1h13.37c0.553,0,1-0.447,1-1c0-2.632,0,4.288,0-11.868   C32.681,21.018,32.233,20.57,31.681,20.57z M30.681,32.438H19.31c0-5.82,0-4.042,0-9.868h11.37   C30.681,28.4,30.681,26.613,30.681,32.438z"></path></g></svg>