<svg fill="#333333" xmlns="http://www.w3.org/2000/svg" xmlns:xlink="http://www.w3.org/1999/xlink" version="1.1" x="0px" y="0px" viewBox="0 0 100 100" enable-background="new 0 0 100 100" xml:space="preserve"><path d="M94.426,22.993c-1.281-0.7-2.84-0.652-4.074,0.132L74.5,33.213V26.5c0-4.411-3.588-8-8-8h-54c-4.412,0-8,3.589-8,8v44  c0,4.41,3.588,8,8,8h54c4.412,0,8-3.59,8-8v-6.713l15.852,10.088c0.654,0.416,1.4,0.625,2.148,0.625  c0.662,0,1.324-0.164,1.926-0.492c1.279-0.703,2.074-2.047,2.074-3.508v-44C96.5,25.04,95.705,23.696,94.426,22.993z M12.5,70.5v-44  h54l0.002,13.99c0,0.003-0.002,0.007-0.002,0.01v16c0,0.008,0.002,0.014,0.002,0.021L66.504,70.5H12.5z M88.5,63.213l-14-8.908  V42.695l14-8.908V63.213z"></path></svg>