<svg fill="#FFFFFF" xmlns:dc="http://purl.org/dc/elements/1.1/" xmlns:cc="http://creativecommons.org/ns#" xmlns:rdf="http://www.w3.org/1999/02/22-rdf-syntax-ns#" xmlns:svg="http://www.w3.org/2000/svg" xmlns="http://www.w3.org/2000/svg" xmlns:sodipodi="http://sodipodi.sourceforge.net/DTD/sodipodi-0.dtd" xmlns:inkscape="http://www.inkscape.org/namespaces/inkscape" viewBox="0 0 48 48.000001" version="1.1" x="0px" y="0px"><title>infrared</title><g transform="translate(0,-1004.3622)"><path style="opacity:1;fill:#FFFFFF;fill-opacity:1;stroke:none;stroke-width:35;stroke-linecap:round;stroke-linejoin:miter;stroke-miterlimit:4;stroke-dasharray:none;stroke-dashoffset:0;stroke-opacity:1" d="m 24,1038.2154 a 5,5 0 0 0 -4.993555,4.8701 l -16.006445,0 0,5 42,0 0,-5 -16.004688,0 A 5,5 0 0 0 24,1038.2154 Z"></path><path style="color:#000000;font-style:normal;font-variant:normal;font-weight:normal;font-stretch:normal;font-size:medium;line-height:normal;font-family:sans-serif;text-indent:0;text-align:start;text-decoration:none;text-decoration-line:none;text-decoration-style:solid;text-decoration-color:#000000;letter-spacing:normal;word-spacing:normal;text-transform:none;direction:ltr;block-progression:tb;writing-mode:lr-tb;baseline-shift:baseline;text-anchor:start;white-space:normal;clip-rule:nonzero;display:inline;overflow:visible;visibility:visible;opacity:1;isolation:auto;mix-blend-mode:normal;color-interpolation:sRGB;color-interpolation-filters:linearRGB;solid-color:#000000;solid-opacity:1;fill:#FFFFFF;fill-opacity:1;fill-rule:nonzero;stroke:none;stroke-width:60;stroke-linecap:round;stroke-linejoin:miter;stroke-miterlimit:4;stroke-dasharray:none;stroke-dashoffset:0;stroke-opacity:1;color-rendering:auto;image-rendering:auto;shape-rendering:auto;text-rendering:auto;enable-background:accumulate" d="m 24,1008.6389 c -8.9708,0 -16.820683,4.9123 -21,12.187 l 3.683187,2.4555 c 3.361208,-6.094 9.844355,-10.209 17.316813,-10.209 7.472457,0 13.955606,4.115 17.316813,10.209 L 45,1020.8259 c -4.179317,-7.2747 -12.029201,-12.187 -21,-12.187 z m 0,8.6856 c -5.962627,0 -11.15255,3.3866 -13.748548,8.3357 l 2.466172,1.6442 c 2.040398,-4.1659 6.317368,-7.0242 11.282376,-7.0242 4.965008,0 9.241979,2.8583 11.282377,7.0242 l 2.466172,-1.6442 C 35.152547,1020.7111 29.962618,1017.3245 24,1017.3245 Z m 0,5.7849 c -3.954787,0 -7.373468,2.3849 -8.891694,5.7888 l 2.504388,1.6695 c 0.927675,-2.6315 3.426627,-4.5026 6.387306,-4.5026 2.960678,0 5.459631,1.8711 6.387306,4.5026 l 2.504389,-1.6695 C 31.373469,1025.4943 27.954787,1023.1094 24,1023.1094 Z"></path></g></svg>