<svg fill="#FFFFFF" xmlns:dc="http://purl.org/dc/elements/1.1/" xmlns:cc="http://creativecommons.org/ns#" xmlns:rdf="http://www.w3.org/1999/02/22-rdf-syntax-ns#" xmlns:svg="http://www.w3.org/2000/svg" xmlns="http://www.w3.org/2000/svg" xmlns:sodipodi="http://sodipodi.sourceforge.net/DTD/sodipodi-0.dtd" xmlns:inkscape="http://www.inkscape.org/namespaces/inkscape" version="1.1" x="0px" y="0px" viewBox="0 0 100 100"><g transform="translate(0,-952.36218)"><path style="font-size:medium;font-style:normal;font-variant:normal;font-weight:normal;font-stretch:normal;text-indent:0;text-align:start;text-decoration:none;line-height:normal;letter-spacing:normal;word-spacing:normal;text-transform:none;direction:ltr;block-progression:tb;writing-mode:lr-tb;text-anchor:start;baseline-shift:baseline;opacity:1;color:#000000;fill:#FFFFFF;fill-opacity:1;stroke:none;stroke-width:4;marker:none;visibility:visible;display:inline;overflow:visible;enable-background:accumulate;font-family:Sans;-inkscape-font-specification:Sans" d="M 7.8125 16 A 2.0002 2.0002 0 0 0 6 18 L 6 75 A 2.0002 2.0002 0 0 0 8 77 L 11.96875 77 L 10.15625 81.1875 A 2.0002 2.0002 0 0 0 12 84 L 28 84 A 2.0002 2.0002 0 0 0 29.84375 81.1875 L 28.03125 77 L 32 77 A 2.0002 2.0002 0 0 0 34 75 L 34 18 A 2.0002 2.0002 0 0 0 32 16 L 8 16 A 2.0002 2.0002 0 0 0 7.8125 16 z M 67.8125 16 A 2.0002 2.0002 0 0 0 66 18 L 66 75 A 2.0002 2.0002 0 0 0 68 77 L 71.96875 77 L 70.15625 81.1875 A 2.0002 2.0002 0 0 0 72 84 L 88 84 A 2.0002 2.0002 0 0 0 89.84375 81.1875 L 88.03125 77 L 92 77 A 2.0002 2.0002 0 0 0 94 75 L 94 18 A 2.0002 2.0002 0 0 0 92 16 L 68 16 A 2.0002 2.0002 0 0 0 67.8125 16 z M 10 20 L 30 20 L 30 73 L 10 73 L 10 20 z M 70 20 L 90 20 L 90 73 L 70 73 L 70 20 z M 20 23 C 15.605415 23 12 26.60542 12 31 C 12 35.39458 15.605415 39 20 39 C 24.394585 39 28 35.39458 28 31 C 28 26.60542 24.394585 23 20 23 z M 80 23 C 75.605415 23 72 26.60542 72 31 C 72 35.39458 75.605415 39 80 39 C 84.394585 39 88 35.39458 88 31 C 88 26.60542 84.394585 23 80 23 z M 20 27 C 22.232811 27 24 28.76718 24 31 C 24 33.23282 22.232811 35 20 35 C 17.767189 35 16 33.23282 16 31 C 16 28.76718 17.767189 27 20 27 z M 80 27 C 82.232811 27 84 28.76718 84 31 C 84 33.23282 82.232811 35 80 35 C 77.767189 35 76 33.23282 76 31 C 76 28.76718 77.767189 27 80 27 z M 20 54 C 15.605415 54 12 57.6054 12 62 C 12 66.3946 15.605415 70 20 70 C 24.394585 70 28 66.3946 28 62 C 28 57.6054 24.394585 54 20 54 z M 80 54 C 75.605415 54 72 57.6054 72 62 C 72 66.3946 75.605415 70 80 70 C 84.394585 70 88 66.3946 88 62 C 88 57.6054 84.394585 54 80 54 z M 20 58 C 22.232811 58 24 59.7672 24 62 C 24 64.2328 22.232811 66 20 66 C 17.767189 66 16 64.2328 16 62 C 16 59.7672 17.767189 58 20 58 z M 80 58 C 82.232811 58 84 59.7672 84 62 C 84 64.2328 82.232811 66 80 66 C 77.767189 66 76 64.2328 76 62 C 76 59.7672 77.767189 58 80 58 z M 16.3125 77 L 23.6875 77 L 24.96875 80 L 15.03125 80 L 16.3125 77 z M 76.3125 77 L 83.6875 77 L 84.96875 80 L 75.03125 80 L 76.3125 77 z " transform="translate(0,952.36218)"></path></g></svg>