<svg fill="#FFFFFF" xmlns="http://www.w3.org/2000/svg" xmlns:xlink="http://www.w3.org/1999/xlink" version="1.1" x="0px" y="0px" viewBox="0, 0, 1080, 1080"><g><g><path d="M964.61,196.58 C975.881,196.58 985.017,205.717 985.017,216.987 L985.017,751.684 C985.017,762.954 975.881,772.091 964.61,772.091 L115.39,772.091 C104.119,772.091 94.983,762.954 94.983,751.684 L94.983,216.987 C94.983,205.717 104.119,196.58 115.39,196.58 L964.61,196.58 z M923.217,220.573 L156.783,220.573 C146.611,220.573 138.365,228.819 138.364,238.991 L138.364,721.563 C138.365,731.735 146.611,739.981 156.783,739.981 L923.217,739.981 C933.389,739.981 941.635,731.735 941.635,721.563 L941.635,238.991 C941.635,228.819 933.389,220.573 923.217,220.573 z" fill="#FFFFFF"></path><path d="M624.618,739.981 C635.889,739.981 645.026,742.944 645.026,746.599 L645.026,799.035 L645.858,799.035 C644.948,802.8 645.317,800.654 645.026,805.489 C648.9,855.985 735.318,876.759 798.133,882.149 C795.56,883.096 792.654,883.319 789.779,883.417 L290.22,883.417 C287.171,883.471 284.618,882.932 281.867,882.149 C344.04,877.183 431.949,855.697 434.974,805.489 C434.683,800.654 435.052,802.8 434.142,799.035 L434.974,799.035 L434.974,746.599 C434.974,742.944 444.111,739.981 455.382,739.981 L624.618,739.981 z" fill="#FFFFFF"></path><path d="M172.577,230.177 L907.423,230.177 C917.176,230.177 925.082,238.157 925.082,248 L925.082,714.963 C925.082,724.806 917.176,732.785 907.423,732.785 L172.577,732.785 C162.824,732.785 154.918,724.806 154.918,714.963 L154.918,248 C154.918,238.157 162.824,230.177 172.577,230.177 z" fill="#FFFFFF"></path></g><text transform="matrix(1, 0, 0, 1, 540, 1193.808)"><tspan x="-755.1" y="37" font-family="MyriadPro-Cond" font-size="150" fill="#FFFFFF">Created By Benjamin Sommerlad</tspan></text></g></svg>