<svg fill="#FFFFFF" xmlns="http://www.w3.org/2000/svg" xmlns:xlink="http://www.w3.org/1999/xlink" xml:space="preserve" version="1.1" style="shape-rendering:geometricPrecision;text-rendering:geometricPrecision;image-rendering:optimizeQuality;" viewBox="0 0 50000 50000" x="0px" y="0px" fill-rule="evenodd" clip-rule="evenodd"><defs><style type="text/css">
   
    .str1 {stroke:black;stroke-width:282.22}
    .str2 {stroke:black;stroke-width:282.22}
    .str0 {stroke:black;stroke-width:564.44}
    .str3 {stroke:black;stroke-width:352.77}
    .fil0 {fill:none}
   
  </style></defs><g><g><path class="fil0 str0" d="M23399 16789l-1218 1718c-103,142 -1581,2190 -1615,2307l21558 147c1142,43 1577,803 1987,1605 799,1562 1537,3272 2259,4878 1228,2730 3890,7015 816,9438 -1212,955 -2467,845 -3974,838 -7951,-39 -15889,-38 -23840,-17 -1462,1 -2849,142 -4052,-744 -2897,-2132 -1211,-5722 -221,-8339l-6726 9487c-550,764 -865,326 -1750,-312l-4965 -3498c-179,-138 -326,-363 -253,-693 161,-738 13805,-19683 15429,-21991 633,-919 7854,3473 6565,5176z"></path><line class="fil0 str0" x1="14010" y1="30156" x2="20999" y2="20164"></line><circle class="fil0 str1" transform="matrix(0.605367 0.43025 -0.43025 0.605367 17344.1 14187)" r="931"></circle><circle class="fil0 str1" transform="matrix(0.605367 0.43025 -0.43025 0.605367 21127.6 16876)" r="931"></circle><rect class="fil0 str1" transform="matrix(0.605367 0.43025 -0.43025 0.605367 15799.8 14921.6)" width="2477" height="1715" rx="300" ry="300"></rect><rect class="fil0 str1" transform="matrix(0.605367 0.43025 -0.43025 0.605367 17611.6 16218.9)" width="2477" height="1715" rx="300" ry="300"></rect><rect class="fil0 str1" transform="matrix(0.605367 0.43025 -0.43025 0.605367 19427.9 17509.8)" width="2477" height="1715" rx="300" ry="300"></rect><rect class="fil0 str1" transform="matrix(0.605367 0.43025 -0.43025 0.605367 14836 16277.6)" width="2477" height="1715" rx="300" ry="300"></rect><rect class="fil0 str1" transform="matrix(0.605367 0.43025 -0.43025 0.605367 16647.8 17574.9)" width="2477" height="1715" rx="300" ry="300"></rect><rect class="fil0 str1" transform="matrix(0.605367 0.43025 -0.43025 0.605367 18464.2 18865.8)" width="2477" height="1715" rx="300" ry="300"></rect><circle class="fil0 str1" transform="matrix(0.605367 0.43025 -0.43025 0.605367 13958 18951.2)" r="931"></circle><circle class="fil0 str1" transform="matrix(0.605367 0.43025 -0.43025 0.605367 17741.6 21640.3)" r="931"></circle><g><path class="fil0 str2" d="M11535 21508l234 1388 587 -99c-16,-770 477,-1464 1209,-1702l-99 -586 -1388 234c-360,61 -604,405 -543,765z"></path><path class="fil0 str2" d="M14077 21008c770,-15 1464,478 1702,1210l586 -99 -234 -1388c-61,-360 -405,-605 -765,-544l-1388 235 99 586z"></path><path class="fil0 str2" d="M15866 22730c15,770 -478,1463 -1210,1702l99 586 1388 -235c360,-60 604,-405 544,-764l-235 -1388 -586 99z"></path><path class="fil0 str2" d="M14144 24518c-770,16 -1463,-477 -1702,-1209l-586 99 235 1388c60,360 404,604 764,543l1388 -234 -99 -587z"></path><circle class="fil0 str2" transform="matrix(0.240685 -0.0406985 0.0406985 0.240685 14110.6 22763.3)" r="5292"></circle></g><circle class="fil0 str1" transform="matrix(0.605367 0.43025 -0.43025 0.605367 10552.2 23756.1)" r="931"></circle><circle class="fil0 str1" transform="matrix(0.605367 0.43025 -0.43025 0.605367 14335.7 26445.1)" r="931"></circle><circle class="fil0 str1" transform="matrix(0.493505 0.350746 -0.350746 0.493505 9197.48 25364.6)" r="931"></circle><circle class="fil0 str1" transform="matrix(0.493505 0.350746 -0.350746 0.493505 10546.4 26323.3)" r="931"></circle><circle class="fil0 str1" transform="matrix(0.493505 0.350746 -0.350746 0.493505 11895.3 27282)" r="931"></circle><circle class="fil0 str1" transform="matrix(0.493505 0.350746 -0.350746 0.493505 13244.2 28240.7)" r="931"></circle><circle class="fil0 str1" transform="matrix(0.493505 0.350746 -0.350746 0.493505 8212.21 26750.9)" r="931"></circle><circle class="fil0 str1" transform="matrix(0.493505 0.350746 -0.350746 0.493505 9561.1 27709.6)" r="931"></circle><circle class="fil0 str1" transform="matrix(0.493505 0.350746 -0.350746 0.493505 10910 28668.3)" r="931"></circle><circle class="fil0 str1" transform="matrix(0.493505 0.350746 -0.350746 0.493505 12258.9 29627)" r="931"></circle><circle class="fil0 str1" transform="matrix(0.493505 0.350746 -0.350746 0.493505 7209.73 28161.4)" r="931"></circle><circle class="fil0 str1" transform="matrix(0.493505 0.350746 -0.350746 0.493505 8558.62 29120.1)" r="931"></circle><circle class="fil0 str1" transform="matrix(0.493505 0.350746 -0.350746 0.493505 9907.51 30078.8)" r="931"></circle><circle class="fil0 str1" transform="matrix(0.493505 0.350746 -0.350746 0.493505 11256.4 31037.5)" r="931"></circle><rect class="fil0 str1" transform="matrix(0.353316 0.251111 -0.228141 0.320998 5890.37 29047)" width="2477" height="1715" rx="300" ry="300"></rect><rect class="fil0 str1" transform="matrix(0.353316 0.251111 -0.228141 0.320998 7256.11 30017.7)" width="2477" height="1715" rx="300" ry="300"></rect><rect class="fil0 str1" transform="matrix(0.353316 0.251111 -0.228141 0.320998 8621.83 30988.3)" width="2477" height="1715" rx="300" ry="300"></rect><rect class="fil0 str1" transform="matrix(0.353316 0.251111 -0.228141 0.320998 9987.56 31959)" width="2477" height="1715" rx="300" ry="300"></rect><rect class="fil0 str1" transform="matrix(0.353316 0.251111 -0.228141 0.320998 5072.9 30197.2)" width="2477" height="1715" rx="300" ry="300"></rect><rect class="fil0 str1" transform="matrix(0.353316 0.251111 -0.228141 0.320998 6438.63 31167.9)" width="2477" height="1715" rx="300" ry="300"></rect><rect class="fil0 str1" transform="matrix(0.353316 0.251111 -0.228141 0.320998 7804.36 32138.5)" width="2477" height="1715" rx="300" ry="300"></rect><rect class="fil0 str1" transform="matrix(0.353316 0.251111 -0.228141 0.320998 9170.09 33109.2)" width="2477" height="1715" rx="300" ry="300"></rect><line class="fil0 str0" x1="2515" y1="31844" x2="9368" y2="36703"></line><path class="fil0 str0" d="M13781 32716c566,-2101 2054,-2567 3545,-2626l27560 -69c2709,38 3392,1846 3656,2986"></path><rect class="fil0 str3" x="38194" y="32715" width="6578" height="2639" rx="223" ry="277"></rect><rect class="fil0 str3" x="38974" y="33504" width="5017" height="1059" rx="268" ry="176"></rect><path class="fil0 str0" d="M14607 29784c720,-776 1719,-999 2719,-1039l27560 -69c1039,15 1972,158 2469,850"></path></g></g></svg>