<svg xmlns="http://www.w3.org/2000/svg" xmlns:xlink="http://www.w3.org/1999/xlink" version="1.1" x="0px" y="0px" viewBox="0 0 512 512" style="enable-background:new 0 0 512 512;" xml:space="preserve"><path d="M466,359V114H46v245h180v20h-70v20h200v-20h-70v-20H466z M66,339V134h380v205H66z"></path><g><path d="M305.9,198.8L291.8,213c8.7,8.7,13.5,20.3,13.5,32.6c0,12.3-4.8,23.9-13.5,32.6c-18,18-47.3,18-65.2,0s-18-47.3,0-65.2   l-14.1-14.1c-25.8,25.8-25.8,67.7,0,93.5c12.9,12.9,29.8,19.3,46.8,19.3c16.9,0,33.9-6.4,46.8-19.3c12.5-12.5,19.4-29.1,19.4-46.8   C325.3,227.9,318.4,211.3,305.9,198.8z"></path><rect x="249" y="162" width="20" height="92"></rect></g></svg>